<?xml version="1.0" encoding="UTF-8" standalone="no"?>
<!-- Created with Inkscape (http://www.inkscape.org/) -->

<svg
   width="223.27786mm"
   height="233.29715mm"
   viewBox="0 0 223.27786 233.29715"
   version="1.1"
   id="svg5"
   inkscape:version="1.2.2 (732a01da63, 2022-12-09)"
   sodipodi:docname="wifi-broadcast.svg"
   xmlns:inkscape="http://www.inkscape.org/namespaces/inkscape"
   xmlns:sodipodi="http://sodipodi.sourceforge.net/DTD/sodipodi-0.dtd"
   xmlns:xlink="http://www.w3.org/1999/xlink"
   xmlns="http://www.w3.org/2000/svg"
   xmlns:svg="http://www.w3.org/2000/svg">
  <sodipodi:namedview
     id="namedview7"
     pagecolor="#ffffff"
     bordercolor="#666666"
     borderopacity="1.0"
     inkscape:showpageshadow="2"
     inkscape:pageopacity="0.0"
     inkscape:pagecheckerboard="0"
     inkscape:deskcolor="#d1d1d1"
     inkscape:document-units="mm"
     showgrid="false"
     showguides="true"
     inkscape:zoom="0.74564394"
     inkscape:cx="333.93955"
     inkscape:cy="477.43967"
     inkscape:window-width="1920"
     inkscape:window-height="1017"
     inkscape:window-x="1912"
     inkscape:window-y="-8"
     inkscape:window-maximized="1"
     inkscape:current-layer="layer1">
    <sodipodi:guide
       position="99.109,99.108989"
       orientation="0,-1"
       id="guide1751"
       inkscape:locked="false" />
    <sodipodi:guide
       position="99.108997,99.108989"
       orientation="1,0"
       id="guide1753"
       inkscape:locked="false" />
  </sodipodi:namedview>
  <defs
     id="defs2">
    <linearGradient
       inkscape:collect="always"
       id="linearGradient2149">
      <stop
         style="stop-color:#ff0000;stop-opacity:1;"
         offset="0"
         id="stop2145" />
      <stop
         style="stop-color:#ff0000;stop-opacity:0;"
         offset="1"
         id="stop2147" />
    </linearGradient>
    <linearGradient
       inkscape:collect="always"
       id="linearGradient1817">
      <stop
         style="stop-color:#0000ff;stop-opacity:1;"
         offset="0"
         id="stop1813" />
      <stop
         style="stop-color:#0000ff;stop-opacity:0;"
         offset="1"
         id="stop1815" />
    </linearGradient>
    <radialGradient
       inkscape:collect="always"
       xlink:href="#linearGradient1817"
       id="radialGradient1819"
       cx="99.108994"
       cy="121.06351"
       fx="99.108994"
       fy="121.06351"
       r="101.60899"
       gradientUnits="userSpaceOnUse" />
    <radialGradient
       inkscape:collect="always"
       xlink:href="#linearGradient2149"
       id="radialGradient1819-9"
       cx="99.108994"
       cy="121.06351"
       fx="99.108994"
       fy="121.06351"
       r="101.60899"
       gradientUnits="userSpaceOnUse"
       gradientTransform="matrix(0.74734075,0,0,0.74734075,75.141472,-29.532138)" />
  </defs>
  <g
     inkscape:label="Calque 1"
     inkscape:groupmode="layer"
     id="layer1"
     transform="translate(0,13.124641)">
    <circle
       style="fill:url(#radialGradient1819);fill-opacity:1;fill-rule:evenodd;stroke:none;stroke-width:4.99999;stroke-dasharray:none"
       id="path1788"
       cx="99.108994"
       cy="121.06351"
       r="99.108994" />
    <circle
       style="fill:url(#radialGradient1819-9);fill-opacity:1;fill-rule:evenodd;stroke:none;stroke-width:4.99999;stroke-dasharray:none"
       id="path1788-1"
       cx="149.20967"
       cy="60.94355"
       r="74.068192" />
    <path
       id="path1518"
       style="fill:none;fill-rule:evenodd;stroke:#000000;stroke-width:5;stroke-dasharray:none;stroke-opacity:1"
       d="M 86.068679,134.10384 A 18.441801,18.441801 0 0 1 80.6672,121.06352 18.441801,18.441801 0 0 1 86.068937,108.02294" />
    <path
       id="path1783"
       style="fill:none;fill-rule:evenodd;stroke:#000000;stroke-width:5;stroke-dasharray:none;stroke-opacity:1"
       d="m 112.14932,108.0232 a 18.441801,18.441801 0 0 1 5.40148,13.04032 v 0 a 18.441801,18.441801 0 0 1 -5.40148,13.04032" />
    <path
       id="path1572"
       style="fill:none;fill-rule:evenodd;stroke:#000000;stroke-width:5;stroke-dasharray:none;stroke-opacity:1"
       d="m 91.258194,128.91433 a 11.102716,11.102716 0 0 1 -3.251909,-7.85081 11.102716,11.102716 0 0 1 3.25191,-7.8508" />
    <path
       id="path1780"
       style="fill:none;fill-rule:evenodd;stroke:#003cb4;stroke-width:5;stroke-dasharray:none"
       d="m 91.258463,128.9146 a 11.102716,11.102716 0 0 1 -2.69e-4,-2.7e-4" />
    <path
       id="path1776"
       style="fill:none;fill-rule:evenodd;stroke:#000000;stroke-width:5;stroke-dasharray:none;stroke-opacity:1"
       d="m 106.95981,113.21272 a 11.102716,11.102716 0 0 1 3.25191,7.8508 v 0 a 11.102716,11.102716 0 0 1 -3.25191,7.85081" />
    <circle
       style="fill:#000000;fill-opacity:1;fill-rule:evenodd;stroke:#000000;stroke-width:1;stroke-opacity:1"
       id="path1574"
       cx="99.109001"
       cy="121.06352"
       r="4.5163593" />
    <path
       id="path1518-5"
       style="fill:none;fill-rule:evenodd;stroke:#000000;stroke-width:3;stroke-dasharray:none;stroke-opacity:1"
       d="m 136.16934,73.983868 a 18.441801,18.441801 0 0 1 -5.40148,-13.04032 18.441801,18.441801 0 0 1 5.40174,-13.04058" />
    <path
       id="path1783-9"
       style="fill:none;fill-rule:evenodd;stroke:#000000;stroke-width:3;stroke-dasharray:none;stroke-opacity:1"
       d="m 162.24998,47.903228 a 18.441801,18.441801 0 0 1 5.40148,13.04032 v 0 a 18.441801,18.441801 0 0 1 -5.40148,13.04032" />
    <path
       id="path1572-2"
       style="fill:none;fill-rule:evenodd;stroke:#000000;stroke-width:3;stroke-dasharray:none;stroke-opacity:1"
       d="m 141.35885,68.794358 a 11.102716,11.102716 0 0 1 -3.2519,-7.85081 11.102716,11.102716 0 0 1 3.25191,-7.8508" />
    <path
       id="path1780-7"
       style="fill:none;fill-rule:evenodd;stroke:#003cb4;stroke-width:5;stroke-dasharray:none"
       d="m 141.35912,68.794628 a 11.102716,11.102716 0 0 1 -2.7e-4,-2.7e-4" />
    <path
       id="path1776-9"
       style="fill:none;fill-rule:evenodd;stroke:#000000;stroke-width:3;stroke-dasharray:none;stroke-opacity:1"
       d="m 157.06047,53.092748 a 11.102716,11.102716 0 0 1 3.25191,7.8508 v 0 a 11.102716,11.102716 0 0 1 -3.25191,7.85081" />
    <rect
       style="fill:none;fill-opacity:1;fill-rule:evenodd;stroke:#000000;stroke-width:3;stroke-dasharray:none;stroke-opacity:1"
       id="rect1934"
       width="9.5806446"
       height="17.209677"
       x="144.41934"
       y="52.338711"
       ry="3.016129" />
    <path
       style="fill:none;stroke:#000000;stroke-width:3;stroke-linecap:butt;stroke-linejoin:miter;stroke-dasharray:none;stroke-opacity:1"
       d="m 144.41843,66.607769 h 9.58064"
       id="path1936" />
  </g>
</svg>
