<?xml version="1.0" encoding="UTF-8"?>
<svg width="104.695mm" height="24.992mm" version="1.1" viewBox="0 0 104.695 24.992" xmlns="http://www.w3.org/2000/svg" xmlns:cc="http://creativecommons.org/ns#" xmlns:dc="http://purl.org/dc/elements/1.1/" xmlns:rdf="http://www.w3.org/1999/02/22-rdf-syntax-ns#"><defs><marker id="Arrow2Send" overflow="visible" orient="auto"><path transform="matrix(-.3 0 0 -.3 .69 0)" d="m8.71859 4.03374-10.9259-4.01772 10.9259-4.01772c-1.7455 2.37206-1.73544 5.61745-6e-7 8.03544z" fill="#1959fe" fill-rule="evenodd" stroke="#1959fe" stroke-linejoin="round" stroke-width=".625"/></marker></defs><metadata><rdf:RDF><cc:Work rdf:about=""><dc:format>image/svg+xml</dc:format><dc:type rdf:resource="http://purl.org/dc/dcmitype/StillImage"/><dc:title/></cc:Work></rdf:RDF></metadata><g transform="translate(-26.5528 -3.43212)"><g font-family="Calibri" font-size="5.64444px" stroke-width=".264583"><text x="32.026764" y="7.4132667" style="font-variant-caps:normal;font-variant-east-asian:normal;font-variant-ligatures:normal;font-variant-numeric:normal;line-height:1.25" xml:space="preserve"><tspan x="32.026764" y="7.4132667" font-family="Calibri" font-size="5.64444px" stroke-width=".264583" style="font-variant-caps:normal;font-variant-east-asian:normal;font-variant-ligatures:normal;font-variant-numeric:normal">W(<tspan fill="#ff1906">A</tspan>) = 8</tspan></text><text x="32.026764" y="13.393422" style="font-variant-caps:normal;font-variant-east-asian:normal;font-variant-ligatures:normal;font-variant-numeric:normal;line-height:1.25" xml:space="preserve"><tspan x="32.026764" y="13.393422" font-family="Calibri" font-size="5.64444px" stroke-width=".264583" style="font-variant-caps:normal;font-variant-east-asian:normal;font-variant-ligatures:normal;font-variant-numeric:normal">W(<tspan fill="#ffc306">B</tspan>) = 12</tspan></text><text x="32.026764" y="19.373579" style="font-variant-caps:normal;font-variant-east-asian:normal;font-variant-ligatures:normal;font-variant-numeric:normal;font-variation-settings:'wdth' 100, 'wght' 400;line-height:1.25" xml:space="preserve"><tspan x="32.026764" y="19.373579" font-family="Calibri" font-size="5.64444px" stroke-width=".264583" style="font-variant-caps:normal;font-variant-east-asian:normal;font-variant-ligatures:normal;font-variant-numeric:normal;font-variation-settings:'wdth' 100, 'wght' 400">W(<tspan fill="#59c306">C</tspan>) = 4</tspan></text><text x="26.568554" y="27.473316" style="font-variant-caps:normal;font-variant-east-asian:normal;font-variant-ligatures:normal;font-variant-numeric:normal;font-variation-settings:'wdth' 100, 'wght' 400;line-height:1.25" xml:space="preserve"><tspan x="26.568554" y="27.473316" font-family="Calibri" font-size="5.64444px" stroke-width=".264583" style="font-variant-caps:normal;font-variant-east-asian:normal;font-variant-ligatures:normal;font-variant-numeric:normal;font-variation-settings:'wdth' 100, 'wght' 400">Σ(W(x)) = <tspan fill="#1959fe">24</tspan></tspan></text></g><text x="61.672443" y="6.2140169" font-family="Bahnschrift" font-size="5.64444px" stroke-width=".264583" style="font-variation-settings:'wdth' 100, 'wght' 400;line-height:1.25" xml:space="preserve"><tspan x="61.672443" y="6.2140169" stroke-width=".264583"/></text><g font-family="Calibri" font-size="5.64444px" stroke-width=".264583"><text x="60.336098" y="7.4835467" style="font-variant-caps:normal;font-variant-east-asian:normal;font-variant-ligatures:normal;font-variant-numeric:normal;font-variation-settings:'wdth' 100, 'wght' 400;line-height:1.25" xml:space="preserve"><tspan x="60.336098" y="7.4835467" font-family="Calibri" font-size="5.64444px" stroke-width=".264583" style="font-variant-caps:normal;font-variant-east-asian:normal;font-variant-ligatures:normal;font-variant-numeric:normal;font-variation-settings:'wdth' 100, 'wght' 400">P(<tspan fill="#ff1906">A</tspan>) =   8/<tspan fill="#1959fe">24</tspan> = <tspan fill="#ff1906">0.33</tspan></tspan></text><text x="60.336098" y="13.463702" style="font-variant-caps:normal;font-variant-east-asian:normal;font-variant-ligatures:normal;font-variant-numeric:normal;font-variation-settings:'wdth' 100, 'wght' 400;line-height:1.25" xml:space="preserve"><tspan x="60.336098" y="13.463702" font-family="Calibri" font-size="5.64444px" stroke-width=".264583" style="font-variant-caps:normal;font-variant-east-asian:normal;font-variant-ligatures:normal;font-variant-numeric:normal;font-variation-settings:'wdth' 100, 'wght' 400">P(<tspan fill="#ffc306">B</tspan>) = 12/<tspan fill="#1959ff">24</tspan> = <tspan fill="#ffc306">0.50</tspan></tspan></text><text x="60.336098" y="19.443859" style="font-variant-caps:normal;font-variant-east-asian:normal;font-variant-ligatures:normal;font-variant-numeric:normal;font-variation-settings:'wdth' 100, 'wght' 400;line-height:1.25" xml:space="preserve"><tspan x="60.336098" y="19.443859" font-family="Calibri" font-size="5.64444px" stroke-width=".264583" style="font-variant-caps:normal;font-variant-east-asian:normal;font-variant-ligatures:normal;font-variant-numeric:normal;font-variation-settings:'wdth' 100, 'wght' 400">P(<tspan fill="#59c306">C</tspan>) =   4/<tspan fill="#1959fe">24</tspan> = <tspan fill="#59c306">0.17</tspan></tspan></text></g><g transform="matrix(.614308 0 0 .614308 37.9897 2.36484)" fill-rule="evenodd"><path transform="scale(.264583)" d="m501.541 6.56641a72.2259 72.2259 0 0 0-72.2266 72.2246 72.2259 72.2259 0 0 0 9.67774 36.1113l62.5488-36.1113zm-62.5488 108.336-2e-3 2e-3a72.2259 72.2255 0 0 0 0.30274 0.51562 72.2259 72.2259 0 0 1-0.30078-0.51758zm4.36719 6.6836a72.2259 72.2255 0 0 0 0.3496 0.47265 72.2259 72.2259 0 0 1-0.3496-0.47265zm4.3496 5.35742a72.2259 72.2259 0 0 0 0.4629 0.51562 72.2259 72.2255 0 0 1-0.4629-0.51562zm0.9629 1.05664a72.2259 72.2259 0 0 0 0.38085 0.4082 72.2259 72.2255 0 0 1-0.38085-0.4082zm0.98437 1.03711a72.2259 72.2259 0 0 0 0.5 0.50977 72.2259 72.2255 0 0 1-0.5-0.50977zm5.2168 4.87891a72.2259 72.2259 0 0 0 0.45507 0.38281 72.2259 72.2255 0 0 1-0.45507-0.38281zm3.35351 2.67187a72.2259 72.2259 0 0 0 0.43164 0.32031 72.2259 72.2255 0 0 1-0.43164-0.32031zm1.73438 1.25977a72.2259 72.2259 0 0 0 0.58594 0.4082 72.2259 72.2255 0 0 1-0.58594-0.4082zm9.18945 5.5a72.2259 72.2259 0 0 0 0.62891 0.31054 72.2259 72.2255 0 0 1-0.62891-0.31054zm2.58008 1.23046a72.2259 72.2259 0 0 0 0.59375 0.26758 72.2259 72.2255 0 0 1-0.59375-0.26758zm0.9707 0.43165a72.2259 72.2255 0 0 0 0.44336 0.1914 72.2259 72.2259 0 0 1-0.44336-0.1914zm4.99805 1.95898a72.2259 72.2259 0 0 0 0.60937 0.20898 72.2259 72.2255 0 0 1-0.60937-0.20898zm4.77539 1.48633a72.2259 72.2259 0 0 0 0.4707 0.12695 72.2259 72.2255 0 0 1-0.4707-0.12695zm0.80273 0.21484a72.2259 72.2255 0 0 0 0.69141 0.17774 72.2259 72.2259 0 0 1-0.69141-0.17774zm1.60547 0.39844a72.2259 72.2255 0 0 0 0.47657 0.11328 72.2259 72.2259 0 0 1-0.47657-0.11328zm6.81055 1.27539a72.2259 72.2255 0 0 0 0.69726 0.0918 72.2259 72.2259 0 0 1-0.69726-0.0918zm2.00195 0.24609a72.2259 72.2259 0 0 0 0.71094 0.0742 72.2259 72.2255 0 0 1-0.71094-0.0742zm2.13477 0.20118a72.2259 72.2259 0 0 0 0.56836 0.043 72.2259 72.2255 0 0 1-0.56836-0.043zm0.91406 0.0664a72.2259 72.2255 0 0 0 0.62695 0.0391 72.2259 72.2259 0 0 1-0.62695-0.0391zm2.05469 0.10742a72.2259 72.2255 0 0 0 0.71484 0.0234 72.2259 72.2259 0 0 1-0.71484-0.0234z" fill="#ff1906" stroke-width="2.26772" style="font-variation-settings:'wdth' 100, 'wght' 400"/><path d="m132.699 1.73736v38.2194a19.1098 19.1098 0 0 0 19.11-19.1099 19.1098 19.1098 0 0 0-19.11-19.1094z" fill="#ffc306" stroke-width=".600001" style="font-variation-settings:'wdth' 100, 'wght' 400"/><path d="m132.699 20.8468-16.5499 9.55497a19.1098 19.1097 0 0 0 16.5499 9.55497z" fill="#59c306" stroke-width=".600001" style="font-variation-settings:'wdth' 100, 'wght' 400"/></g><path d="m26.5528 21.7714h28.49" fill="none" stroke="#000" stroke-width=".4"/><path d="m56.4273 25.9933h28.9953v-5.19217" fill="none" marker-end="url(#Arrow2Send)" stroke="#1959fe" stroke-linejoin="round" stroke-width=".4"/></g></svg>
