<?xml version="1.0" encoding="UTF-8"?>
<svg width="208.631mm" height="131.222mm" version="1.1" viewBox="0 0 208.631 131.222" xmlns="http://www.w3.org/2000/svg" xmlns:cc="http://creativecommons.org/ns#" xmlns:dc="http://purl.org/dc/elements/1.1/" xmlns:rdf="http://www.w3.org/1999/02/22-rdf-syntax-ns#"><metadata><rdf:RDF><cc:Work rdf:about=""><dc:format>image/svg+xml</dc:format><dc:type rdf:resource="http://purl.org/dc/dcmitype/StillImage"/><dc:title/></cc:Work></rdf:RDF></metadata><g transform="translate(-15.5006 -22.9714)"><g fill="none" stroke="#000"><path d="m139.91 134.894h14.2494" stroke-width=".204437px"/><path d="m154.159 134.894h6.71167" stroke-dasharray="1.22662, 1.22662" stroke-width=".204437"/><path d="m138.121 87.6905h14.2494" stroke-width=".204437px"/><path d="m152.37 87.6905h6.71167" stroke-dasharray="1.22662, 1.22662" stroke-width=".204437"/><path d="m90.1509 135.346h14.2494" stroke-width=".204437px"/><path d="m104.4 135.346h6.71167" stroke-dasharray="1.22662, 1.22662" stroke-width=".204437"/><path d="m90.1509 38.078h14.2494" stroke-width=".204437px"/><path d="m104.4 38.078h6.71167" stroke-dasharray="1.22662, 1.22662" stroke-width=".204437"/></g><g stroke="#000" stroke-linecap="round" stroke-width=".0754189"><rect x="75.1311" y="32.7964" width="9.78725" height="9.78725" ry=".125698" fill="#666" style="font-variation-settings:'wdth' 100, 'wght' 400"/><rect x="84.7926" y="32.7964" width="9.78725" height="9.78725" ry=".125698" fill="#666" style="font-variation-settings:'wdth' 100, 'wght' 400"/><rect x="75.0054" y="23.0091" width="9.78725" height="9.78725" ry=".125698" fill="#fff" style="font-variation-settings:'wdth' 100, 'wght' 400"/></g><g transform="matrix(.251396 0 0 .251396 57.0462 16.9277)" stroke="#000" stroke-linecap="round"><rect x="32.506" y="24.1905" width="38.9315" height="38.9315" ry=".499999" fill="#666" stroke-width=".3" style="font-variation-settings:'wdth' 100, 'wght' 400"/><ellipse cx="51.9717" cy="43.6562" rx="19.4658" ry="19.4658" fill="#00f" stroke-width=".2" style="font-variation-settings:'wdth' 100, 'wght' 400"/></g><g transform="matrix(.251396 0 0 .251396 57.0462 36.5022)" stroke="#000" stroke-linecap="round"><rect x="32.506" y="24.1905" width="38.9315" height="38.9315" ry=".499999" fill="#666" stroke-width=".3" style="font-variation-settings:'wdth' 100, 'wght' 400"/><ellipse cx="51.9717" cy="43.6562" rx="19.4658" ry="19.4658" fill="#00f" stroke-width=".2" style="font-variation-settings:'wdth' 100, 'wght' 400"/></g><g transform="matrix(.251396 0 0 .251396 76.6207 36.5022)" stroke="#000" stroke-linecap="round"><rect x="32.506" y="24.1905" width="38.9315" height="38.9315" ry=".499999" fill="#666" stroke-width=".3" style="font-variation-settings:'wdth' 100, 'wght' 400"/><ellipse cx="51.9717" cy="43.6562" rx="19.4658" ry="19.4658" fill="#00f" stroke-width=".2" style="font-variation-settings:'wdth' 100, 'wght' 400"/></g><g transform="matrix(.251396 0 0 .251396 66.8335 36.5022)"><g stroke="#000" stroke-linecap="round"><rect x="32.506" y="24.1905" width="38.9315" height="38.9315" ry=".499999" fill="#666" stroke-width=".3" style="font-variation-settings:'wdth' 100, 'wght' 400"/><ellipse cx="51.9717" cy="43.6562" rx="19.4658" ry="19.4658" fill="#0f0" stroke-width=".2" style="font-variation-settings:'wdth' 100, 'wght' 400"/></g></g><g transform="matrix(.251396 0 0 .251396 57.0462 26.715)" stroke="#000" stroke-linecap="round"><rect x="32.506" y="24.1905" width="38.9315" height="38.9315" ry=".499999" fill="#666" stroke-width=".3" style="font-variation-settings:'wdth' 100, 'wght' 400"/><ellipse cx="51.9717" cy="43.6562" rx="19.4658" ry="19.4658" fill="#0f0" stroke-width=".2" style="font-variation-settings:'wdth' 100, 'wght' 400"/></g><g transform="matrix(.251396 0 0 .251396 76.6207 16.9277)" stroke="#000" stroke-linecap="round"><rect x="32.506" y="24.1905" width="38.9315" height="38.9315" ry=".499999" fill="#666" stroke-width=".3" style="font-variation-settings:'wdth' 100, 'wght' 400"/><ellipse cx="51.9717" cy="43.6562" rx="19.4658" ry="19.4658" fill="#0f0" stroke-width=".2" style="font-variation-settings:'wdth' 100, 'wght' 400"/></g><g stroke="#000" stroke-linecap="round" stroke-width=".0754189"><rect x="25.3256" y="73.2235" width="9.78725" height="9.78725" ry=".125698" fill="#666" style="font-variation-settings:'wdth' 100, 'wght' 400"/><rect x="35.1128" y="83.0108" width="9.78725" height="9.78725" ry=".125698" fill="#666" style="font-variation-settings:'wdth' 100, 'wght' 400"/><rect x="25.3256" y="83.0108" width="9.78725" height="9.78725" ry=".125698" fill="#fff" style="font-variation-settings:'wdth' 100, 'wght' 400"/></g><g transform="matrix(.251396 0 0 .251396 7.36644 67.1421)" stroke="#000" stroke-linecap="round"><rect x="32.506" y="24.1905" width="38.9315" height="38.9315" ry=".499999" fill="#666" stroke-width=".3" style="font-variation-settings:'wdth' 100, 'wght' 400"/><ellipse cx="51.9717" cy="43.6562" rx="19.4658" ry="19.4658" fill="#00f" stroke-width=".2" style="font-variation-settings:'wdth' 100, 'wght' 400"/></g><g transform="matrix(.251396 0 0 .251396 7.36644 86.7166)" stroke="#000" stroke-linecap="round"><rect x="32.506" y="24.1905" width="38.9315" height="38.9315" ry=".499999" fill="#666" stroke-width=".3" style="font-variation-settings:'wdth' 100, 'wght' 400"/><ellipse cx="51.9717" cy="43.6562" rx="19.4658" ry="19.4658" fill="#00f" stroke-width=".2" style="font-variation-settings:'wdth' 100, 'wght' 400"/></g><g transform="matrix(.251396 0 0 .251396 26.9409 86.7166)" stroke="#000" stroke-linecap="round"><rect x="32.506" y="24.1905" width="38.9315" height="38.9315" ry=".499999" fill="#666" stroke-width=".3" style="font-variation-settings:'wdth' 100, 'wght' 400"/><ellipse cx="51.9717" cy="43.6562" rx="19.4658" ry="19.4658" fill="#00f" stroke-width=".2" style="font-variation-settings:'wdth' 100, 'wght' 400"/></g><g transform="matrix(.251396 0 0 .251396 17.1537 86.7166)"><g stroke="#000" stroke-linecap="round"><rect x="32.506" y="24.1905" width="38.9315" height="38.9315" ry=".499999" fill="#666" stroke-width=".3" style="font-variation-settings:'wdth' 100, 'wght' 400"/><ellipse cx="51.9717" cy="43.6562" rx="19.4658" ry="19.4658" fill="#0f0" stroke-width=".2" style="font-variation-settings:'wdth' 100, 'wght' 400"/></g></g><g transform="matrix(.251396 0 0 .251396 7.36644 76.9294)" stroke="#000" stroke-linecap="round"><rect x="32.506" y="24.1905" width="38.9315" height="38.9315" ry=".499999" fill="#666" stroke-width=".3" style="font-variation-settings:'wdth' 100, 'wght' 400"/><ellipse cx="51.9717" cy="43.6562" rx="19.4658" ry="19.4658" fill="#0f0" stroke-width=".2" style="font-variation-settings:'wdth' 100, 'wght' 400"/></g><g transform="matrix(.251396 0 0 .251396 26.9409 67.1421)" stroke="#000" stroke-linecap="round"><rect x="32.506" y="24.1905" width="38.9315" height="38.9315" ry=".499999" fill="#666" stroke-width=".3" style="font-variation-settings:'wdth' 100, 'wght' 400"/><ellipse cx="51.9717" cy="43.6562" rx="19.4658" ry="19.4658" fill="#0f0" stroke-width=".2" style="font-variation-settings:'wdth' 100, 'wght' 400"/></g><g stroke="#000" stroke-linecap="round" stroke-width=".0754189"><rect x="84.7926" y="73.2235" width="9.78725" height="9.78725" ry=".125698" fill="#666" style="font-variation-settings:'wdth' 100, 'wght' 400"/><rect x="84.7926" y="83.0108" width="9.78725" height="9.78725" ry=".125698" fill="#666" style="font-variation-settings:'wdth' 100, 'wght' 400"/><rect x="75.0054" y="83.0108" width="9.78725" height="9.78725" ry=".125698" fill="#fff" style="font-variation-settings:'wdth' 100, 'wght' 400"/></g><g transform="matrix(.251396 0 0 .251396 57.0462 67.1421)" stroke="#000" stroke-linecap="round"><rect x="32.506" y="24.1905" width="38.9315" height="38.9315" ry=".499999" fill="#666" stroke-width=".3" style="font-variation-settings:'wdth' 100, 'wght' 400"/><ellipse cx="51.9717" cy="43.6562" rx="19.4658" ry="19.4658" fill="#00f" stroke-width=".2" style="font-variation-settings:'wdth' 100, 'wght' 400"/></g><g transform="matrix(.251396 0 0 .251396 57.0462 86.7166)" stroke="#000" stroke-linecap="round"><rect x="32.506" y="24.1905" width="38.9315" height="38.9315" ry=".499999" fill="#666" stroke-width=".3" style="font-variation-settings:'wdth' 100, 'wght' 400"/><ellipse cx="51.9717" cy="43.6562" rx="19.4658" ry="19.4658" fill="#00f" stroke-width=".2" style="font-variation-settings:'wdth' 100, 'wght' 400"/></g><g transform="matrix(.251396 0 0 .251396 76.6207 86.7166)" stroke="#000" stroke-linecap="round"><rect x="32.506" y="24.1905" width="38.9315" height="38.9315" ry=".499999" fill="#666" stroke-width=".3" style="font-variation-settings:'wdth' 100, 'wght' 400"/><ellipse cx="51.9717" cy="43.6562" rx="19.4658" ry="19.4658" fill="#00f" stroke-width=".2" style="font-variation-settings:'wdth' 100, 'wght' 400"/></g><g transform="matrix(.251396 0 0 .251396 66.8335 86.7166)"><g stroke="#000" stroke-linecap="round"><rect x="32.506" y="24.1905" width="38.9315" height="38.9315" ry=".499999" fill="#666" stroke-width=".3" style="font-variation-settings:'wdth' 100, 'wght' 400"/><ellipse cx="51.9717" cy="43.6562" rx="19.4658" ry="19.4658" fill="#0f0" stroke-width=".2" style="font-variation-settings:'wdth' 100, 'wght' 400"/></g></g><g transform="matrix(.251396 0 0 .251396 57.0462 76.9293)" stroke="#000" stroke-linecap="round"><rect x="32.506" y="24.1905" width="38.9315" height="38.9315" ry=".499999" fill="#666" stroke-width=".3" style="font-variation-settings:'wdth' 100, 'wght' 400"/><ellipse cx="51.9717" cy="43.6562" rx="19.4658" ry="19.4658" fill="#0f0" stroke-width=".2" style="font-variation-settings:'wdth' 100, 'wght' 400"/></g><g transform="matrix(.251396 0 0 .251396 66.8335 67.1421)" stroke="#000" stroke-linecap="round"><rect x="32.506" y="24.1905" width="38.9315" height="38.9315" ry=".499999" fill="#666" stroke-width=".3" style="font-variation-settings:'wdth' 100, 'wght' 400"/><ellipse cx="51.9717" cy="43.6562" rx="19.4658" ry="19.4658" fill="#0f0" stroke-width=".2" style="font-variation-settings:'wdth' 100, 'wght' 400"/></g><g stroke="#000" stroke-linecap="round" stroke-width=".0754189"><rect x="75.0054" y="120.576" width="9.78725" height="9.78725" ry=".125698" fill="#666" style="font-variation-settings:'wdth' 100, 'wght' 400"/><rect x="84.7926" y="120.576" width="9.78725" height="9.78725" ry=".125698" fill="#666" style="font-variation-settings:'wdth' 100, 'wght' 400"/><rect x="75.0054" y="130.363" width="9.78725" height="9.78725" ry=".125698" fill="#fff" style="font-variation-settings:'wdth' 100, 'wght' 400"/></g><g transform="matrix(.251396 0 0 .251396 57.0466 114.494)" stroke="#000" stroke-linecap="round"><rect x="32.506" y="24.1905" width="38.9315" height="38.9315" ry=".499999" fill="#666" stroke-width=".3" style="font-variation-settings:'wdth' 100, 'wght' 400"/><ellipse cx="51.9717" cy="43.6562" rx="19.4658" ry="19.4658" fill="#00f" stroke-width=".2" style="font-variation-settings:'wdth' 100, 'wght' 400"/></g><g transform="matrix(.251396 0 0 .251396 57.0466 134.069)" stroke="#000" stroke-linecap="round"><rect x="32.506" y="24.1905" width="38.9315" height="38.9315" ry=".499999" fill="#666" stroke-width=".3" style="font-variation-settings:'wdth' 100, 'wght' 400"/><ellipse cx="51.9717" cy="43.6562" rx="19.4658" ry="19.4658" fill="#00f" stroke-width=".2" style="font-variation-settings:'wdth' 100, 'wght' 400"/></g><g transform="matrix(.251396 0 0 .251396 76.6211 134.069)" stroke="#000" stroke-linecap="round"><rect x="32.506" y="24.1905" width="38.9315" height="38.9315" ry=".499999" fill="#666" stroke-width=".3" style="font-variation-settings:'wdth' 100, 'wght' 400"/><ellipse cx="51.9717" cy="43.6562" rx="19.4658" ry="19.4658" fill="#00f" stroke-width=".2" style="font-variation-settings:'wdth' 100, 'wght' 400"/></g><g transform="matrix(.251396 0 0 .251396 66.8339 134.069)"><g stroke="#000" stroke-linecap="round"><rect x="32.506" y="24.1905" width="38.9315" height="38.9315" ry=".499999" fill="#666" stroke-width=".3" style="font-variation-settings:'wdth' 100, 'wght' 400"/><ellipse cx="51.9717" cy="43.6562" rx="19.4658" ry="19.4658" fill="#0f0" stroke-width=".2" style="font-variation-settings:'wdth' 100, 'wght' 400"/></g></g><g transform="matrix(.251396 0 0 .251396 57.0466 124.282)" stroke="#000" stroke-linecap="round"><rect x="32.506" y="24.1905" width="38.9315" height="38.9315" ry=".499999" fill="#666" stroke-width=".3" style="font-variation-settings:'wdth' 100, 'wght' 400"/><ellipse cx="51.9717" cy="43.6562" rx="19.4658" ry="19.4658" fill="#0f0" stroke-width=".2" style="font-variation-settings:'wdth' 100, 'wght' 400"/></g><g transform="matrix(.251396 0 0 .251396 76.6211 124.282)" stroke="#000" stroke-linecap="round"><rect x="32.506" y="24.1905" width="38.9315" height="38.9315" ry=".499999" fill="#666" stroke-width=".3" style="font-variation-settings:'wdth' 100, 'wght' 400"/><ellipse cx="51.9717" cy="43.6562" rx="19.4658" ry="19.4658" fill="#0f0" stroke-width=".2" style="font-variation-settings:'wdth' 100, 'wght' 400"/></g><g font-family="Bahnschrift" font-size="3.271px" stroke-width=".204437"><text x="66.753242" y="56.62336" style="font-variation-settings:'wdth' 100, 'wght' 400;line-height:1.25" xml:space="preserve"><tspan x="66.753242" y="56.62336" stroke-width=".204437">maxvalue = -103</tspan></text><text x="68.505562" y="106.56451" style="font-variation-settings:'wdth' 100, 'wght' 400;line-height:1.25" xml:space="preserve"><tspan x="68.505562" y="106.56451" stroke-width=".204437">maxvalue = 102</tspan></text><text x="69.381729" y="154.16925" style="font-variation-settings:'wdth' 100, 'wght' 400;line-height:1.25" xml:space="preserve"><tspan x="69.381729" y="154.16925" stroke-width=".204437">maxvalue = 102</tspan></text></g><g fill="none" stroke="#000" stroke-width=".204437px"><path d="m44.9001 88.1651 18.3077-31.7098"/><path d="m44.9001 88.1651h16.8883"/><path d="m44.9001 88.1651 17.5835 30.4555"/></g><g stroke="#000" stroke-linecap="round" stroke-width=".0754189"><rect x="117.477" y="23.0091" width="9.78725" height="9.78725" ry=".125698" fill="#666" style="font-variation-settings:'wdth' 100, 'wght' 400"/><rect x="137.051" y="32.7964" width="9.78725" height="9.78725" ry=".125698" fill="#666" style="font-variation-settings:'wdth' 100, 'wght' 400"/><rect x="127.264" y="32.7964" width="9.78725" height="9.78725" ry=".125698" fill="#fff" style="font-variation-settings:'wdth' 100, 'wght' 400"/></g><g transform="matrix(.251396 0 0 .251396 128.88 16.9277)" stroke="#000" stroke-linecap="round"><rect x="32.506" y="24.1905" width="38.9315" height="38.9315" ry=".499999" fill="#666" stroke-width=".3" style="font-variation-settings:'wdth' 100, 'wght' 400"/><ellipse cx="51.9717" cy="43.6562" rx="19.4658" ry="19.4658" fill="#00f" stroke-width=".2" style="font-variation-settings:'wdth' 100, 'wght' 400"/></g><g transform="matrix(.251396 0 0 .251396 109.305 36.5022)" stroke="#000" stroke-linecap="round"><rect x="32.506" y="24.1905" width="38.9315" height="38.9315" ry=".499999" fill="#666" stroke-width=".3" style="font-variation-settings:'wdth' 100, 'wght' 400"/><ellipse cx="51.9717" cy="43.6562" rx="19.4658" ry="19.4658" fill="#00f" stroke-width=".2" style="font-variation-settings:'wdth' 100, 'wght' 400"/></g><g transform="matrix(.251396 0 0 .251396 128.88 36.5022)" stroke="#000" stroke-linecap="round"><rect x="32.506" y="24.1905" width="38.9315" height="38.9315" ry=".499999" fill="#666" stroke-width=".3" style="font-variation-settings:'wdth' 100, 'wght' 400"/><ellipse cx="51.9717" cy="43.6562" rx="19.4658" ry="19.4658" fill="#00f" stroke-width=".2" style="font-variation-settings:'wdth' 100, 'wght' 400"/></g><g transform="matrix(.251396 0 0 .251396 119.092 36.5022)"><g stroke="#000" stroke-linecap="round"><rect x="32.506" y="24.1905" width="38.9315" height="38.9315" ry=".499999" fill="#666" stroke-width=".3" style="font-variation-settings:'wdth' 100, 'wght' 400"/><ellipse cx="51.9717" cy="43.6562" rx="19.4658" ry="19.4658" fill="#0f0" stroke-width=".2" style="font-variation-settings:'wdth' 100, 'wght' 400"/></g></g><g transform="matrix(.251396 0 0 .251396 109.305 26.715)" stroke="#000" stroke-linecap="round"><rect x="32.506" y="24.1905" width="38.9315" height="38.9315" ry=".499999" fill="#666" stroke-width=".3" style="font-variation-settings:'wdth' 100, 'wght' 400"/><ellipse cx="51.9717" cy="43.6562" rx="19.4658" ry="19.4658" fill="#0f0" stroke-width=".2" style="font-variation-settings:'wdth' 100, 'wght' 400"/></g><g transform="matrix(.251396 0 0 .251396 119.092 16.9277)" stroke="#000" stroke-linecap="round"><rect x="32.506" y="24.1905" width="38.9315" height="38.9315" ry=".499999" fill="#666" stroke-width=".3" style="font-variation-settings:'wdth' 100, 'wght' 400"/><ellipse cx="51.9717" cy="43.6562" rx="19.4658" ry="19.4658" fill="#0f0" stroke-width=".2" style="font-variation-settings:'wdth' 100, 'wght' 400"/></g><text x="120.76405" y="56.350121" font-family="Bahnschrift" font-size="3.271px" stroke-width=".204437" style="font-variation-settings:'wdth' 100, 'wght' 400;line-height:1.25" xml:space="preserve"><tspan x="120.76405" y="56.350121" stroke-width=".204437">minvalue = 102</tspan></text><g stroke="#000" stroke-linecap="round" stroke-width=".0754189"><rect x="137.052" y="72.4058" width="9.78725" height="9.78725" ry=".125698" fill="#666" style="font-variation-settings:'wdth' 100, 'wght' 400"/><rect x="117.477" y="72.4058" width="9.78725" height="9.78725" ry=".125698" fill="#666" style="font-variation-settings:'wdth' 100, 'wght' 400"/><rect x="127.264" y="82.193" width="9.78725" height="9.78725" ry=".125698" fill="#fff" style="font-variation-settings:'wdth' 100, 'wght' 400"/></g><g transform="matrix(.251396 0 0 .251396 128.88 76.1116)" stroke="#000" stroke-linecap="round"><rect x="32.506" y="24.1905" width="38.9315" height="38.9315" ry=".499999" fill="#666" stroke-width=".3" style="font-variation-settings:'wdth' 100, 'wght' 400"/><ellipse cx="51.9717" cy="43.6562" rx="19.4658" ry="19.4658" fill="#00f" stroke-width=".2" style="font-variation-settings:'wdth' 100, 'wght' 400"/></g><g transform="matrix(.251396 0 0 .251396 109.305 85.8989)" stroke="#000" stroke-linecap="round"><rect x="32.506" y="24.1905" width="38.9315" height="38.9315" ry=".499999" fill="#666" stroke-width=".3" style="font-variation-settings:'wdth' 100, 'wght' 400"/><ellipse cx="51.9717" cy="43.6562" rx="19.4658" ry="19.4658" fill="#00f" stroke-width=".2" style="font-variation-settings:'wdth' 100, 'wght' 400"/></g><g transform="matrix(.251396 0 0 .251396 128.88 85.8989)" stroke="#000" stroke-linecap="round"><rect x="32.506" y="24.1905" width="38.9315" height="38.9315" ry=".499999" fill="#666" stroke-width=".3" style="font-variation-settings:'wdth' 100, 'wght' 400"/><ellipse cx="51.9717" cy="43.6562" rx="19.4658" ry="19.4658" fill="#00f" stroke-width=".2" style="font-variation-settings:'wdth' 100, 'wght' 400"/></g><g transform="matrix(.251396 0 0 .251396 119.092 85.8989)"><g stroke="#000" stroke-linecap="round"><rect x="32.506" y="24.1905" width="38.9315" height="38.9315" ry=".499999" fill="#666" stroke-width=".3" style="font-variation-settings:'wdth' 100, 'wght' 400"/><ellipse cx="51.9717" cy="43.6562" rx="19.4658" ry="19.4658" fill="#0f0" stroke-width=".2" style="font-variation-settings:'wdth' 100, 'wght' 400"/></g></g><g transform="matrix(.251396 0 0 .251396 109.305 76.1116)" stroke="#000" stroke-linecap="round"><rect x="32.506" y="24.1905" width="38.9315" height="38.9315" ry=".499999" fill="#666" stroke-width=".3" style="font-variation-settings:'wdth' 100, 'wght' 400"/><ellipse cx="51.9717" cy="43.6562" rx="19.4658" ry="19.4658" fill="#0f0" stroke-width=".2" style="font-variation-settings:'wdth' 100, 'wght' 400"/></g><g transform="matrix(.251396 0 0 .251396 119.092 66.3244)" stroke="#000" stroke-linecap="round"><rect x="32.506" y="24.1905" width="38.9315" height="38.9315" ry=".499999" fill="#666" stroke-width=".3" style="font-variation-settings:'wdth' 100, 'wght' 400"/><ellipse cx="51.9717" cy="43.6562" rx="19.4658" ry="19.4658" fill="#0f0" stroke-width=".2" style="font-variation-settings:'wdth' 100, 'wght' 400"/></g><text x="120.76445" y="105.74673" font-family="Bahnschrift" font-size="3.271px" stroke-width=".204437" style="font-variation-settings:'wdth' 100, 'wght' 400;line-height:1.25" xml:space="preserve"><tspan x="120.76445" y="105.74673" stroke-width=".204437">minvalue = 102</tspan></text><g stroke="#000" stroke-linecap="round" stroke-width=".0754189"><rect x="137.052" y="120.167" width="9.78725" height="9.78725" ry=".125698" fill="#666" style="font-variation-settings:'wdth' 100, 'wght' 400"/><rect x="137.052" y="129.954" width="9.78725" height="9.78725" ry=".125698" fill="#666" style="font-variation-settings:'wdth' 100, 'wght' 400"/><rect x="127.264" y="120.167" width="9.78725" height="9.78725" ry=".125698" fill="#fff" style="font-variation-settings:'wdth' 100, 'wght' 400"/></g><g transform="matrix(.251396 0 0 .251396 109.305 114.086)" stroke="#000" stroke-linecap="round"><rect x="32.506" y="24.1905" width="38.9315" height="38.9315" ry=".499999" fill="#666" stroke-width=".3" style="font-variation-settings:'wdth' 100, 'wght' 400"/><ellipse cx="51.9717" cy="43.6562" rx="19.4658" ry="19.4658" fill="#00f" stroke-width=".2" style="font-variation-settings:'wdth' 100, 'wght' 400"/></g><g transform="matrix(.251396 0 0 .251396 109.305 133.66)" stroke="#000" stroke-linecap="round"><rect x="32.506" y="24.1905" width="38.9315" height="38.9315" ry=".499999" fill="#666" stroke-width=".3" style="font-variation-settings:'wdth' 100, 'wght' 400"/><ellipse cx="51.9717" cy="43.6562" rx="19.4658" ry="19.4658" fill="#00f" stroke-width=".2" style="font-variation-settings:'wdth' 100, 'wght' 400"/></g><g transform="matrix(.251396 0 0 .251396 128.88 133.66)" stroke="#000" stroke-linecap="round"><rect x="32.506" y="24.1905" width="38.9315" height="38.9315" ry=".499999" fill="#666" stroke-width=".3" style="font-variation-settings:'wdth' 100, 'wght' 400"/><ellipse cx="51.9717" cy="43.6562" rx="19.4658" ry="19.4658" fill="#00f" stroke-width=".2" style="font-variation-settings:'wdth' 100, 'wght' 400"/></g><g transform="matrix(.251396 0 0 .251396 119.092 133.66)"><g stroke="#000" stroke-linecap="round"><rect x="32.506" y="24.1905" width="38.9315" height="38.9315" ry=".499999" fill="#666" stroke-width=".3" style="font-variation-settings:'wdth' 100, 'wght' 400"/><ellipse cx="51.9717" cy="43.6562" rx="19.4658" ry="19.4658" fill="#0f0" stroke-width=".2" style="font-variation-settings:'wdth' 100, 'wght' 400"/></g></g><g transform="matrix(.251396 0 0 .251396 109.305 123.873)" stroke="#000" stroke-linecap="round"><rect x="32.506" y="24.1905" width="38.9315" height="38.9315" ry=".499999" fill="#666" stroke-width=".3" style="font-variation-settings:'wdth' 100, 'wght' 400"/><ellipse cx="51.9717" cy="43.6562" rx="19.4658" ry="19.4658" fill="#0f0" stroke-width=".2" style="font-variation-settings:'wdth' 100, 'wght' 400"/></g><g transform="matrix(.251396 0 0 .251396 119.092 123.873)" stroke="#000" stroke-linecap="round"><rect x="32.506" y="24.1905" width="38.9315" height="38.9315" ry=".499999" fill="#666" stroke-width=".3" style="font-variation-settings:'wdth' 100, 'wght' 400"/><ellipse cx="51.9717" cy="43.6562" rx="19.4658" ry="19.4658" fill="#0f0" stroke-width=".2" style="font-variation-settings:'wdth' 100, 'wght' 400"/></g><text x="120.76443" y="153.50766" font-family="Bahnschrift" font-size="3.271px" stroke-width=".204437" style="font-variation-settings:'wdth' 100, 'wght' 400;line-height:1.25" xml:space="preserve"><tspan x="120.76443" y="153.50766" stroke-width=".204437">minvalue = 102</tspan></text><g fill="none" stroke="#000" stroke-width=".204437px"><path d="m96.3237 88.1651h19.1295"/><path d="m96.3237 88.1651 17.7595 30.7603"/><path d="m96.3237 88.1651 19.3074-33.4413"/></g><g stroke="#000" stroke-linecap="round" stroke-width=".0754189"><rect x="179.932" y="23.0091" width="9.78725" height="9.78725" ry=".125698" fill="#666" style="font-variation-settings:'wdth' 100, 'wght' 400"/><rect x="189.718" y="32.7964" width="9.78725" height="9.78725" ry=".125698" fill="#666" style="font-variation-settings:'wdth' 100, 'wght' 400"/><rect x="179.931" y="32.7964" width="9.78725" height="9.78725" ry=".125698" fill="#fff" style="font-variation-settings:'wdth' 100, 'wght' 400"/></g><g transform="matrix(.251396 0 0 .251396 181.547 16.9277)" stroke="#000" stroke-linecap="round"><rect x="32.506" y="24.1905" width="38.9315" height="38.9315" ry=".499999" fill="#666" stroke-width=".3" style="font-variation-settings:'wdth' 100, 'wght' 400"/><ellipse cx="51.9717" cy="43.6562" rx="19.4658" ry="19.4658" fill="#00f" stroke-width=".2" style="font-variation-settings:'wdth' 100, 'wght' 400"/></g><g transform="matrix(.251396 0 0 .251396 161.973 36.5022)" stroke="#000" stroke-linecap="round"><rect x="32.506" y="24.1905" width="38.9315" height="38.9315" ry=".499999" fill="#666" stroke-width=".3" style="font-variation-settings:'wdth' 100, 'wght' 400"/><ellipse cx="51.9717" cy="43.6562" rx="19.4658" ry="19.4658" fill="#00f" stroke-width=".2" style="font-variation-settings:'wdth' 100, 'wght' 400"/></g><g transform="matrix(.251396 0 0 .251396 181.547 36.5022)" stroke="#000" stroke-linecap="round"><rect x="32.506" y="24.1905" width="38.9315" height="38.9315" ry=".499999" fill="#666" stroke-width=".3" style="font-variation-settings:'wdth' 100, 'wght' 400"/><ellipse cx="51.9717" cy="43.6562" rx="19.4658" ry="19.4658" fill="#00f" stroke-width=".2" style="font-variation-settings:'wdth' 100, 'wght' 400"/></g><g transform="matrix(.251396 0 0 .251396 171.76 36.5022)"><g stroke="#000" stroke-linecap="round"><rect x="32.506" y="24.1905" width="38.9315" height="38.9315" ry=".499999" fill="#666" stroke-width=".3" style="font-variation-settings:'wdth' 100, 'wght' 400"/><ellipse cx="51.9717" cy="43.6562" rx="19.4658" ry="19.4658" fill="#0f0" stroke-width=".2" style="font-variation-settings:'wdth' 100, 'wght' 400"/></g></g><g transform="matrix(.251396 0 0 .251396 161.973 26.715)" stroke="#000" stroke-linecap="round"><rect x="32.506" y="24.1905" width="38.9315" height="38.9315" ry=".499999" fill="#666" stroke-width=".3" style="font-variation-settings:'wdth' 100, 'wght' 400"/><ellipse cx="51.9717" cy="43.6562" rx="19.4658" ry="19.4658" fill="#0f0" stroke-width=".2" style="font-variation-settings:'wdth' 100, 'wght' 400"/></g><g transform="matrix(.251396 0 0 .251396 161.973 16.9277)" stroke="#000" stroke-linecap="round"><rect x="32.506" y="24.1905" width="38.9315" height="38.9315" ry=".499999" fill="#666" stroke-width=".3" style="font-variation-settings:'wdth' 100, 'wght' 400"/><ellipse cx="51.9717" cy="43.6562" rx="19.4658" ry="19.4658" fill="#0f0" stroke-width=".2" style="font-variation-settings:'wdth' 100, 'wght' 400"/></g><text x="173.43137" y="56.350121" font-family="Bahnschrift" font-size="3.271px" stroke-width=".204437" style="font-variation-settings:'wdth' 100, 'wght' 400;line-height:1.25" xml:space="preserve"><tspan x="173.43137" y="56.350121" stroke-width=".204437">maxvalue = -101</tspan></text><g stroke="#000" stroke-linecap="round" stroke-width=".0754189"><rect x="170.145" y="71.9969" width="9.78725" height="9.78725" ry=".125698" fill="#666" style="font-variation-settings:'wdth' 100, 'wght' 400"/><rect x="179.932" y="71.9969" width="9.78725" height="9.78725" ry=".125698" fill="#666" style="font-variation-settings:'wdth' 100, 'wght' 400"/><rect x="179.932" y="81.7842" width="9.78725" height="9.78725" ry=".125698" fill="#fff" style="font-variation-settings:'wdth' 100, 'wght' 400"/></g><g transform="matrix(.251396 0 0 .251396 181.547 65.9155)" stroke="#000" stroke-linecap="round"><rect x="32.506" y="24.1905" width="38.9315" height="38.9315" ry=".499999" fill="#666" stroke-width=".3" style="font-variation-settings:'wdth' 100, 'wght' 400"/><ellipse cx="51.9717" cy="43.6562" rx="19.4658" ry="19.4658" fill="#00f" stroke-width=".2" style="font-variation-settings:'wdth' 100, 'wght' 400"/></g><g transform="matrix(.251396 0 0 .251396 161.973 85.49)" stroke="#000" stroke-linecap="round"><rect x="32.506" y="24.1905" width="38.9315" height="38.9315" ry=".499999" fill="#666" stroke-width=".3" style="font-variation-settings:'wdth' 100, 'wght' 400"/><ellipse cx="51.9717" cy="43.6562" rx="19.4658" ry="19.4658" fill="#00f" stroke-width=".2" style="font-variation-settings:'wdth' 100, 'wght' 400"/></g><g transform="matrix(.251396 0 0 .251396 181.547 85.49)" stroke="#000" stroke-linecap="round"><rect x="32.506" y="24.1905" width="38.9315" height="38.9315" ry=".499999" fill="#666" stroke-width=".3" style="font-variation-settings:'wdth' 100, 'wght' 400"/><ellipse cx="51.9717" cy="43.6562" rx="19.4658" ry="19.4658" fill="#00f" stroke-width=".2" style="font-variation-settings:'wdth' 100, 'wght' 400"/></g><g transform="matrix(.251396 0 0 .251396 171.76 85.49)"><g stroke="#000" stroke-linecap="round"><rect x="32.506" y="24.1905" width="38.9315" height="38.9315" ry=".499999" fill="#666" stroke-width=".3" style="font-variation-settings:'wdth' 100, 'wght' 400"/><ellipse cx="51.9717" cy="43.6562" rx="19.4658" ry="19.4658" fill="#0f0" stroke-width=".2" style="font-variation-settings:'wdth' 100, 'wght' 400"/></g></g><g transform="matrix(.251396 0 0 .251396 161.973 75.7027)" stroke="#000" stroke-linecap="round"><rect x="32.506" y="24.1905" width="38.9315" height="38.9315" ry=".499999" fill="#666" stroke-width=".3" style="font-variation-settings:'wdth' 100, 'wght' 400"/><ellipse cx="51.9717" cy="43.6562" rx="19.4658" ry="19.4658" fill="#0f0" stroke-width=".2" style="font-variation-settings:'wdth' 100, 'wght' 400"/></g><g transform="matrix(.251396 0 0 .251396 181.547 75.7027)" stroke="#000" stroke-linecap="round"><rect x="32.506" y="24.1905" width="38.9315" height="38.9315" ry=".499999" fill="#666" stroke-width=".3" style="font-variation-settings:'wdth' 100, 'wght' 400"/><ellipse cx="51.9717" cy="43.6562" rx="19.4658" ry="19.4658" fill="#0f0" stroke-width=".2" style="font-variation-settings:'wdth' 100, 'wght' 400"/></g><text x="173.43182" y="105.33787" font-family="Bahnschrift" font-size="3.271px" stroke-width=".204437" style="font-variation-settings:'wdth' 100, 'wght' 400;line-height:1.25" xml:space="preserve"><tspan x="173.43182" y="105.33787" stroke-width=".204437">maxvalue = 100</tspan></text><g stroke="#000" stroke-linecap="round" stroke-width=".0754189"><rect x="170.145" y="119.758" width="9.78725" height="9.78725" ry=".125698" fill="#666" style="font-variation-settings:'wdth' 100, 'wght' 400"/><rect x="189.719" y="129.545" width="9.78725" height="9.78725" ry=".125698" fill="#666" style="font-variation-settings:'wdth' 100, 'wght' 400"/><rect x="170.145" y="129.545" width="9.78725" height="9.78725" ry=".125698" fill="#fff" style="font-variation-settings:'wdth' 100, 'wght' 400"/></g><g transform="matrix(.251396 0 0 .251396 181.547 113.677)" stroke="#000" stroke-linecap="round"><rect x="32.506" y="24.1905" width="38.9315" height="38.9315" ry=".499999" fill="#666" stroke-width=".3" style="font-variation-settings:'wdth' 100, 'wght' 400"/><ellipse cx="51.9717" cy="43.6562" rx="19.4658" ry="19.4658" fill="#00f" stroke-width=".2" style="font-variation-settings:'wdth' 100, 'wght' 400"/></g><g transform="matrix(.251396 0 0 .251396 161.973 133.251)" stroke="#000" stroke-linecap="round"><rect x="32.506" y="24.1905" width="38.9315" height="38.9315" ry=".499999" fill="#666" stroke-width=".3" style="font-variation-settings:'wdth' 100, 'wght' 400"/><ellipse cx="51.9717" cy="43.6562" rx="19.4658" ry="19.4658" fill="#00f" stroke-width=".2" style="font-variation-settings:'wdth' 100, 'wght' 400"/></g><g transform="matrix(.251396 0 0 .251396 181.547 133.251)" stroke="#000" stroke-linecap="round"><rect x="32.506" y="24.1905" width="38.9315" height="38.9315" ry=".499999" fill="#666" stroke-width=".3" style="font-variation-settings:'wdth' 100, 'wght' 400"/><ellipse cx="51.9717" cy="43.6562" rx="19.4658" ry="19.4658" fill="#00f" stroke-width=".2" style="font-variation-settings:'wdth' 100, 'wght' 400"/></g><g transform="matrix(.251396 0 0 .251396 171.76 133.251)"><g stroke="#000" stroke-linecap="round"><rect x="32.506" y="24.1905" width="38.9315" height="38.9315" ry=".499999" fill="#666" stroke-width=".3" style="font-variation-settings:'wdth' 100, 'wght' 400"/><ellipse cx="51.9717" cy="43.6562" rx="19.4658" ry="19.4658" fill="#0f0" stroke-width=".2" style="font-variation-settings:'wdth' 100, 'wght' 400"/></g></g><g transform="matrix(.251396 0 0 .251396 171.76 123.464)" stroke="#000" stroke-linecap="round"><rect x="32.506" y="24.1905" width="38.9315" height="38.9315" ry=".499999" fill="#666" stroke-width=".3" style="font-variation-settings:'wdth' 100, 'wght' 400"/><ellipse cx="51.9717" cy="43.6562" rx="19.4658" ry="19.4658" fill="#0f0" stroke-width=".2" style="font-variation-settings:'wdth' 100, 'wght' 400"/></g><g transform="matrix(.251396 0 0 .251396 171.76 113.677)" stroke="#000" stroke-linecap="round"><rect x="32.506" y="24.1905" width="38.9315" height="38.9315" ry=".499999" fill="#666" stroke-width=".3" style="font-variation-settings:'wdth' 100, 'wght' 400"/><ellipse cx="51.9717" cy="43.6562" rx="19.4658" ry="19.4658" fill="#0f0" stroke-width=".2" style="font-variation-settings:'wdth' 100, 'wght' 400"/></g><text x="167.23645" y="152.99556" font-family="Bahnschrift" font-size="3.271px" stroke-width=".204437" style="font-variation-settings:'wdth' 100, 'wght' 400;line-height:1.25" xml:space="preserve"><tspan x="167.23645" y="152.99556" stroke-width=".204437">Victoire : maxvalue = 102</tspan></text><g fill="none" stroke="#000"><g stroke-width=".204437px"><path d="m149.112 37.2018h17.2312"/><path d="m149.112 37.2018 18.0486 31.2611"/><path d="m149.112 37.2018 21.4806 80.1668"/><path d="m202.189 37.7477h14.2494"/></g><path d="m216.439 37.7477h6.71166" stroke-dasharray="1.22662, 1.22662" stroke-width=".204437"/><path d="m203.17 87.4141h14.2494" stroke-width=".204437px"/><path d="m217.42 87.4141h6.71167" stroke-dasharray="1.22662, 1.22662" stroke-width=".204437"/></g></g></svg>
