<?xml version="1.0" encoding="UTF-8" standalone="no"?>
<!-- Created with Inkscape (http://www.inkscape.org/) -->

<svg
   width="210mm"
   height="297mm"
   viewBox="0 0 210 297"
   version="1.1"
   id="svg5"
   sodipodi:docname="3-core-dynamics.svg"
   inkscape:version="1.2 (dc2aedaf03, 2022-05-15)"
   xmlns:inkscape="http://www.inkscape.org/namespaces/inkscape"
   xmlns:sodipodi="http://sodipodi.sourceforge.net/DTD/sodipodi-0.dtd"
   xmlns="http://www.w3.org/2000/svg"
   xmlns:svg="http://www.w3.org/2000/svg">
  <sodipodi:namedview
     id="namedview7"
     pagecolor="#ffffff"
     bordercolor="#666666"
     borderopacity="1.0"
     inkscape:showpageshadow="2"
     inkscape:pageopacity="0.0"
     inkscape:pagecheckerboard="0"
     inkscape:deskcolor="#d1d1d1"
     inkscape:document-units="mm"
     showgrid="false"
     inkscape:zoom="1.0544998"
     inkscape:cx="553.34294"
     inkscape:cy="401.13807"
     inkscape:window-width="1920"
     inkscape:window-height="1017"
     inkscape:window-x="1912"
     inkscape:window-y="-8"
     inkscape:window-maximized="1"
     inkscape:current-layer="layer1" />
  <defs
     id="defs2" />
  <g
     inkscape:label="Calque 1"
     inkscape:groupmode="layer"
     id="layer1">
    <path
       sodipodi:type="star"
       style="fill:#7fa3cc;fill-opacity:1;fill-rule:evenodd;stroke:none;stroke-width:1.5;stroke-linejoin:round;stroke-dasharray:none;stroke-opacity:1"
       id="path11635"
       inkscape:flatsided="true"
       sodipodi:sides="5"
       sodipodi:cx="47.19355"
       sodipodi:cy="52.161289"
       sodipodi:r1="31.230343"
       sodipodi:r2="25.265877"
       sodipodi:arg1="-1.5707963"
       sodipodi:arg2="-0.9424778"
       inkscape:rounded="1.4328816e-15"
       inkscape:randomized="0"
       d="m 47.193551,20.930946 29.70182,21.579637 -11.345087,34.916585 -36.71347,-10e-7 -11.345085,-34.916585 z"
       inkscape:transform-center-y="-2.982233" />
    <path
       sodipodi:type="star"
       style="fill:#ffff00;fill-opacity:1;fill-rule:evenodd;stroke:#ffffff;stroke-width:1.5;stroke-linejoin:round;stroke-dasharray:none;stroke-opacity:1"
       id="path11637"
       inkscape:flatsided="false"
       sodipodi:sides="5"
       sodipodi:cx="47.19355"
       sodipodi:cy="52.161289"
       sodipodi:r1="31.230343"
       sodipodi:r2="0"
       sodipodi:arg1="-1.5707963"
       sodipodi:arg2="0"
       inkscape:rounded="0"
       inkscape:randomized="0"
       d="M 47.193551,20.930946 47.19355,52.161289 76.895371,42.510583 47.19355,52.161289 65.550284,77.427168 47.19355,52.161289 28.836814,77.427167 47.19355,52.161289 17.491729,42.510582 47.19355,52.161289 Z"
       inkscape:transform-center-y="-2.9822327" />
    <path
       sodipodi:type="star"
       style="fill:#ffffff;fill-opacity:1;fill-rule:evenodd;stroke:none;stroke-width:1.5;stroke-linejoin:round;stroke-dasharray:none;stroke-opacity:1"
       id="path12624"
       inkscape:flatsided="false"
       sodipodi:sides="5"
       sodipodi:cx="47.19355"
       sodipodi:cy="52.161289"
       sodipodi:r1="23.902985"
       sodipodi:r2="7.5461936"
       sodipodi:arg1="-0.31415924"
       sodipodi:arg2="0.94247782"
       inkscape:rounded="0"
       inkscape:randomized="0"
       d="M 69.92664,44.774861 51.629091,58.266288 61.243371,71.49921 42.758009,58.266288 33.143728,71.49921 40.016694,49.829387 24.460461,44.77486 47.19355,44.615096 l 10e-7,-16.356791 7.176856,21.571082 z"
       inkscape:transform-center-y="-2.1855236" />
    <path
       sodipodi:type="star"
       style="fill:#c4041a;fill-opacity:1;fill-rule:evenodd;stroke:none;stroke-width:1.5;stroke-linejoin:round;stroke-dasharray:none;stroke-opacity:1"
       id="path12678"
       inkscape:flatsided="true"
       sodipodi:sides="5"
       sodipodi:cx="47.19355"
       sodipodi:cy="52.161289"
       sodipodi:r1="5.8903852"
       sodipodi:r2="2.4880848"
       sodipodi:arg1="-1.5707963"
       sodipodi:arg2="-0.9424778"
       inkscape:rounded="0"
       inkscape:randomized="0"
       d="m 47.19355,46.270904 5.602089,4.070156 -2.139807,6.585651 -6.924564,0 -2.139807,-6.585651 z"
       inkscape:transform-center-y="-0.72059802" />
    <path
       style="fill:#42545f;stroke-width:0.117838;fill-opacity:1"
       d="m 74.095545,58.813953 c 0.04098,-0.17849 2.446742,-7.61573 5.346128,-16.5272 l 5.27161,-16.20269 14.401153,-0.0299 c 7.920634,-0.0165 14.401154,0.006 14.401154,0.0494 0,0.0436 -0.46046,1.50211 -1.02325,3.24101 l -1.02325,3.16164 h -2.72791 c -1.50036,0 -2.75923,-0.0313 -2.79749,-0.0696 -0.0383,-0.0383 -0.002,-0.26363 0.0803,-0.50081 0.0824,-0.23718 0.18541,-0.57707 0.22893,-0.7553 l 0.0791,-0.32405 -8.751705,9.4e-4 -8.751689,9.5e-4 -3.113893,9.57337 c -1.712641,5.26535 -3.443648,10.59414 -3.846684,11.84175 l -0.73279,2.26837 h 8.756587 8.756583 l 0.28471,-0.85432 0.284707,-0.85433 2.788904,-0.0316 c 2.60207,-0.0295 2.78851,-0.0176 2.78333,0.17676 -0.003,0.11459 -0.44274,1.53402 -0.97705,3.15429 l -0.97147,2.94594 -14.410253,0.0299 -14.410243,0.0299 0.07452,-0.32452 z m 32.995215,-0.53074 c 0.76531,-2.45489 10.35685,-31.87625 10.44911,-32.05185 0.10227,-0.19468 0.91255,-0.20621 14.48039,-0.20621 7.90462,0 14.37205,0.0306 14.37205,0.0681 0,0.0668 -8.29508,25.61933 -9.91424,30.54024 l -0.82392,2.50405 h -14.41486 -14.41486 z m 28.31609,-15.49701 c 2.09176,-6.46412 3.80188,-11.79272 3.80027,-11.84133 -0.002,-0.0486 -3.96668,-0.0881 -8.81128,-0.0878 l -8.80837,5.9e-4 -3.84137,11.84212 -3.84139,11.84211 8.84949,-0.001 8.84948,-10e-4 3.80317,-11.75295 z m 5.75061,12.9635 c 0.60597,-1.86331 2.31352,-7.11257 3.79456,-11.66503 l 2.69281,-8.2772 3.26442,-2.44603 3.26443,-2.44603 -2.38489,-0.032 c -1.31169,-0.0176 -2.42005,-0.0706 -2.46302,-0.11784 -0.043,-0.0472 0.27368,-1.11988 0.70367,-2.38369 l 0.78178,-2.29784 14.41374,-0.0299 14.41375,-0.0299 -0.0815,0.2656 c -0.13441,0.43772 -4.55932,14.09213 -6.01461,18.55991 l -1.35303,4.15378 h -4.53465 -4.53467 l -0.12743,0.27968 c -0.0945,0.2075 -0.0892,0.35198 0.0205,0.55973 0.12327,0.2333 6.02855,8.68882 6.38843,9.14733 0.0919,0.11711 -0.58156,0.14698 -3.28666,0.14574 l -3.40225,-0.002 -4.79554,-6.92141 -4.79552,-6.92141 7.50045,-0.0589 7.50045,-0.0589 1.22055,-3.77081 c 0.67131,-2.07394 1.71511,-5.29566 2.31957,-7.15937 l 1.099,-3.38856 -9.01586,0.0302 -9.01587,0.0302 -3.58171,11.01782 c -1.96995,6.05981 -4.03357,12.40978 -4.58584,14.11107 l -1.00411,3.09323 h -2.75135 -2.75135 l 1.10176,-3.38783 z m 34.471,-2.3562 c 1.02658,-3.15982 2.72859,-8.41111 3.78225,-11.66951 l 1.91574,-5.92438 3.28065,-2.4421 3.28066,-2.4421 -2.48288,-0.0318 c -1.36559,-0.0175 -2.47907,-0.0705 -2.47441,-0.11784 0.005,-0.0473 0.36259,-1.12006 0.79541,-2.38387 l 0.78692,-2.29784 11.98998,-0.03 c 6.59449,-0.0165 11.98999,0.01 11.98999,0.0589 0,0.0489 -0.34909,1.13618 -0.77574,2.41623 l -0.77575,2.32736 h -9.23513 -9.23513 l -1.7209,5.27324 c -0.94649,2.90028 -1.92918,5.90585 -2.18374,6.67906 -0.25455,0.7732 -0.44816,1.42049 -0.43024,1.43842 0.0179,0.0179 1.24393,-0.84006 2.72446,-1.90664 l 2.69184,-1.93923 h 7.16323 7.16321 l -0.79647,2.38622 -0.79647,2.38621 -9.24735,0.0302 -9.24735,0.0302 -1.49516,4.57692 c -0.82234,2.51731 -1.49517,4.61156 -1.49517,4.65388 0,0.0423 4.1361,0.077 9.19134,0.077 5.05524,0 9.19095,0.0398 9.19047,0.0884 0,0.0486 -0.30928,1.06937 -0.68624,2.26837 l -0.68537,2.18 -12.02458,0.03 -12.02457,0.03 z"
       id="path15410"
       sodipodi:nodetypes="csccsscsscscccsscccccscscccccssssscccscccccccccccscccscsccccscccccsccccccsscccssccccccscccscscssscccsssscccccccssscscccc" />
    <path
       d="m 170.41906,77.620168 c -1.82413,-0.26575 -2.82063,-0.81463 -3.31556,-1.82622 -0.54234,-1.10853 -0.42446,-1.80603 1.15301,-6.82161 0.73748,-2.34479 1.48219,-4.4943 1.66503,-4.80591 0.69436,-1.18327 2.40548,-2.13158 4.50763,-2.49816 2.13685,-0.37264 4.95048,-0.34774 6.84878,0.0606 0.88304,0.18995 0.88249,0.18893 0.60294,1.11928 -0.13577,0.45182 -0.25624,0.8341 -0.26773,0.84951 -0.0114,0.0154 -0.54736,-0.1122 -1.19086,-0.28358 -1.02933,-0.27413 -1.40378,-0.31271 -3.11432,-0.32088 -2.17809,-0.0104 -2.91193,0.13473 -3.9178,0.77487 -0.6596,0.41977 -1.06045,0.87063 -1.43621,1.6154 -0.44193,0.87589 -2.54118,7.81237 -2.54068,8.39507 0.001,0.70357 0.33807,1.209 1.04716,1.56832 1.20351,0.60987 2.84982,0.66019 5.95068,0.1819 0.83536,-0.12884 1.53593,-0.23426 1.55683,-0.23426 0.0209,0 -0.10578,0.40996 -0.28152,0.91103 l -0.31955,0.91103 -0.63466,0.14039 c -1.64857,0.36467 -4.73387,0.49331 -6.31317,0.26322 z m 12.99455,0.0115 c -1.07739,-0.10301 -2.35017,-0.33346 -2.56088,-0.46369 -0.11912,-0.0736 -0.0936,-0.2763 0.12106,-0.96284 0.14956,-0.47827 0.28089,-0.88518 0.29184,-0.90423 0.011,-0.019 0.56506,0.0765 1.23138,0.21225 1.51472,0.30868 3.98022,0.42471 5.2396,0.24659 1.78307,-0.25219 2.5132,-0.83015 3.13364,-2.48061 0.51928,-1.38137 0.39321,-2.41206 -0.32943,-2.69323 -0.18129,-0.0705 -1.33713,-0.14984 -2.56853,-0.17624 -2.62653,-0.0563 -3.0853,-0.17204 -3.81364,-0.9622 -0.55226,-0.59913 -0.67554,-1.14872 -0.56663,-2.52585 0.14497,-1.83277 0.96084,-3.32856 2.30522,-4.2263 1.51982,-1.0149 3.09479,-1.37483 6.02261,-1.37637 1.865,-9.5e-4 3.75681,0.17921 4.09849,0.39039 0.0871,0.0538 0.0475,0.34871 -0.12608,0.93802 -0.22196,0.75373 -0.28257,0.85172 -0.4925,0.79612 -0.65227,-0.17274 -3.48026,-0.32776 -4.94811,-0.27123 -2.69259,0.1037 -3.26058,0.39836 -3.9621,2.05541 -0.29101,0.68739 -0.38986,1.09751 -0.39535,1.64035 -0.0134,1.32315 0.31506,1.45434 3.64565,1.4562 2.63127,0.001 3.11366,0.0852 3.66475,0.63632 0.63881,0.63881 0.76334,1.49195 0.4634,3.17477 -0.73442,4.12048 -4.44434,6.07097 -10.45439,5.49637 z m -115.217491,-0.2045 c 0.0032,-0.11342 1.07701,-3.67949 2.386213,-7.92459 l 2.380368,-7.71837 4.124319,-0.0338 c 4.379076,-0.0359 5.630564,0.0509 6.714447,0.46571 1.219938,0.46684 2.055886,1.47139 2.061872,2.47771 0.0032,0.53244 -2.458385,8.56364 -2.879377,9.39443 -0.451993,0.89196 -1.461707,1.81817 -2.582462,2.36887 -1.913416,0.94019 -3.717136,1.17624 -8.987801,1.17624 -2.993596,0 -3.223007,-0.0147 -3.217579,-0.20621 z m 9.833602,-1.83937 c 1.30427,-0.34841 2.354728,-1.17131 2.699939,-2.11507 0.09937,-0.27166 0.671302,-2.05823 1.270957,-3.97015 1.218908,-3.88632 1.311821,-4.47001 0.821065,-5.15807 -0.151282,-0.2121 -0.495957,-0.50375 -0.765945,-0.6481 -0.468728,-0.25062 -0.640159,-0.2641 -3.797902,-0.29852 l -3.307017,-0.0361 -1.867587,6.04578 c -1.027173,3.32518 -1.891132,6.11206 -1.919909,6.19307 -0.07737,0.21781 6.045779,0.20632 6.866399,-0.0129 z m 12.060208,1.98815 c -0.03584,-0.0358 0.377801,-1.47894 0.919198,-3.2069 0.541397,-1.72795 0.984359,-3.23072 0.984359,-3.33949 0,-0.10877 -0.715864,-2.17853 -1.590809,-4.59946 -0.874945,-2.42094 -1.590809,-4.4699 -1.590809,-4.55325 0,-0.11323 0.292755,-0.15156 1.157698,-0.15156 h 1.157698 l 1.301813,3.56459 c 0.715999,1.96053 1.34837,3.56459 1.405273,3.56459 0.0569,0 1.633278,-1.60406 3.503058,-3.56459 l 3.399602,-3.56459 h 1.29427 c 0.73203,0 1.27722,0.0468 1.255,0.10774 -0.0361,0.099 -4.813041,5.14411 -7.566835,7.99162 l -1.166169,1.20586 -1.034245,3.27198 -1.034245,3.27197 -1.164849,0.0333 c -0.640667,0.0183 -1.19417,0.004 -1.230008,-0.0318 z m 10.862951,-0.14466 c 0.002,-0.11569 1.07987,-3.68361 2.39515,-7.92871 l 2.3914,-7.71837 1.59751,-0.0327 c 1.2108,-0.0248 1.61213,0.004 1.65798,0.11784 1.8692,4.65162 4.95471,12.19141 5.01331,12.25057 0.0439,0.0443 0.82,-2.31537 1.72466,-5.24377 0.90465,-2.92841 1.77275,-5.73534 1.92911,-6.23762 l 0.28429,-0.91325 h 1.22304 c 0.67267,0 1.22305,0.0279 1.22305,0.062 0,0.11291 -4.70982,15.31039 -4.82972,15.58435 -0.11485,0.26242 -0.15281,0.26781 -1.65882,0.23568 l -1.54129,-0.0329 -2.49362,-6.51649 c -1.3715,-3.58406 -2.51109,-6.46414 -2.53242,-6.40016 -0.0213,0.064 -0.93027,2.99641 -2.01988,6.51649 l -1.98111,6.40016 -1.19319,0.0336 c -1.08039,0.0304 -1.19283,0.0137 -1.18945,-0.17675 z m 17.22022,0.0947 c 0.0216,-0.0591 2.61029,-3.63841 5.75261,-7.95404 l 5.71335,-7.84661 h 1.49887 1.49889 l 0.0659,0.38298 c 0.0906,0.52689 1.59453,14.91157 1.59453,15.25149 0,0.2696 -0.019,0.27362 -1.28926,0.27362 -0.70909,0 -1.3165,-0.0441 -1.34977,-0.0979 -0.0333,-0.0539 -0.14353,-0.96857 -0.24496,-2.0327 -0.10145,-1.06413 -0.2147,-2.13439 -0.25168,-2.37836 l -0.0672,-0.44358 -3.60454,0.0311 -3.60452,0.0311 -1.76612,2.44513 -1.7661,2.44513 h -1.1096 c -0.61832,0 -1.09223,-0.0476 -1.07034,-0.10744 z m 12.75578,-6.87444 c -0.0297,-0.21064 -0.18769,-1.78597 -0.35101,-3.50075 -0.16331,-1.71478 -0.31201,-3.13285 -0.33042,-3.15128 -0.0272,-0.0272 -2.16178,2.88135 -4.70616,6.4127 l -0.44838,0.6223 h 2.94502 2.94502 z m 5.72509,6.88258 c 0,-0.0546 1.08706,-3.61318 2.41568,-7.90793 1.32862,-4.29475 2.41567,-7.82938 2.41567,-7.85474 0,-0.0883 3.87512,-0.0455 3.93004,0.0434 0.0304,0.0492 0.3603,2.89941 0.73307,6.33378 0.37278,3.43436 0.71072,6.28319 0.751,6.33072 0.0403,0.0475 2.13034,-2.80267 4.64461,-6.33378 l 4.57138,-6.4202 h 1.75151 c 0.96331,0 1.77442,0.0398 1.80244,0.0884 0.028,0.0486 -1.04657,3.61467 -2.388,7.92459 l -2.43896,7.8362 -1.19909,0.0336 c -0.9843,0.0276 -1.1991,0.003 -1.1991,-0.13726 0,-0.094 0.89429,-3.06533 1.98729,-6.60303 1.093,-3.5377 1.97391,-6.43219 1.95758,-6.43219 -0.0163,0 -2.13952,2.96951 -4.71816,6.59891 l -4.68844,6.59891 h -1.10256 c -0.77585,0 -1.11791,-0.0437 -1.15437,-0.1473 -0.0285,-0.081 -0.37149,-3.03282 -0.76221,-6.55958 -0.39071,-3.52676 -0.72785,-6.42977 -0.7492,-6.45112 -0.0213,-0.0213 -0.93081,2.83767 -2.02101,6.35338 -1.0902,3.5157 -2.02911,6.48499 -2.08645,6.59841 -0.0888,0.17562 -0.27845,0.20621 -1.27849,0.20621 -0.64582,0 -1.17423,-0.0447 -1.17423,-0.0993 z m 22.74589,-0.10279 c 0.002,-0.11569 1.07922,-3.68361 2.39434,-7.92871 l 2.39112,-7.71837 1.19971,-0.0336 c 0.96258,-0.0269 1.19972,-0.001 1.19972,0.13045 0,0.0902 -1.08087,3.65813 -2.40194,7.92871 l -2.40194,7.76467 -1.19211,0.0336 c -1.07921,0.0304 -1.19181,0.0137 -1.1889,-0.17675 z"
       style="fill:#648495;stroke-width:0.117838;fill-opacity:1"
       id="path16274" />
  </g>
</svg>
