<?xml version="1.0" encoding="UTF-8"?>
<svg width="91.2895mm" height="27.9258mm" version="1.1" viewBox="0 0 91.2895 27.9258" xmlns="http://www.w3.org/2000/svg"><g transform="translate(-8.82655 -9.61271)" fill="#bdff56" fill-rule="evenodd" stroke="#000" stroke-linejoin="round" stroke-width=".600001"><path d="m37.7697 22.9163a14.3209 14.3209 0 0 1-11.7892 14.0954 14.3209 14.3209 0 0 1-15.9575-9.11166 14.3209 14.3209 0 0 1 6.14708-17.317l7.27871 12.3333z"/><path d="m68.5283 22.9163a14.3209 14.3209 0 0 1-12.0602 14.1414 14.3209 14.3209 0 0 1-15.8679-9.67666 14.3209 14.3209 0 0 1 7.05043-17.1965"/><path d="m99.816 22.9163a14.3209 14.3209 0 0 1-12.2645 14.1725 14.3209 14.3209 0 0 1-15.7868-10.1023 14.3209 14.3209 0 0 1 7.73067-17.0738z"/></g></svg>
