<?xml version="1.0" encoding="UTF-8"?>
<svg width="147.88mm" height="107.926mm" version="1.1" viewBox="0 0 147.88 107.926" xmlns="http://www.w3.org/2000/svg"><g transform="translate(-3.34301 -4.50197)"><g><path class="UnoptimicedTransforms" transform="translate(-4.81808 66.2684)" d="m14.4542 38.8888c-0.495134-0.02471-0.879299-2.15464-1.20491-5.88954-0.285082-3.27002-0.695155-9.59673 1.29697-15.6038 0.629503-2.93299 1.85318-6.23394 4.24162-9.07944 1.0857-1.31566 2.55773-2.50455 4.41628-3.25388 1.07305-0.415258 2.18864-0.619238 3.29609-0.622603 0.879801-0.00267 1.74126 0.121319 2.55841 0.35599 3.69815 0.520897 6.37832 3.01309 7.63133 5.81958 0.761074 1.47566 1.14963 3.1597 1.06197 4.88958-0.138797 1.89991-0.957368 3.60503-2.20622 4.87138 0 0-3e-6 1e-6 -3e-6 1e-6 -2.83535 2.47727-6.21331 3.23616-8.83699 3.3386-3.46334 0.149842-7.11192-0.490223-8.65521-0.776812-2.51845-0.667421-2.75398-2.14856-2.5669-2.28894 0.281656-0.21133 1.0387 0.220485 2.76176 0.321399 2.00842-0.255875 4.91142-0.233512 8.06764-0.836362 2.11004-0.415425 4.64693-1.19489 6.10112-2.86119-1e-6 0 1e-6 -1e-6 1e-6 -1e-6 0.441507-0.510719 0.715161-1.26363 0.694974-1.97863 0.02531-0.759696-0.25623-1.61441-0.699315-2.46502-1.0129-1.57409-2.65386-3.12103-4.26458-3.14948-0.483714-0.11928-0.982297-0.19264-1.46885-0.207053-0.612708-0.018151-1.19573 0.057441-1.70278 0.243916-0.878092 0.292965-1.71928 0.9984-2.48281 1.81449-1.78602 1.96711-2.88 4.68228-3.66237 7.22425-2.01536 4.61195-2.46852 11.1606-2.85574 14.2562-0.470468 3.76122-1.00091 5.90329-1.5215 5.87731z"/><path class="UnoptimicedTransforms" transform="translate(-4.81808 66.2684)" d="m46.2879 9.11993c0.676358 0.130934 0.746364 2.90968 0.06195 7.07818-0.684413 4.1685-2.21633 9.6421-2.88553 15.6371-0.06975 0.624835-0.126972 1.2429-0.170796 1.85665 0.935138 0.232258 3.05766-0.898956 5.56217-0.889784 6.27114 0.151938 10.8247 0.919069 13.1911 1.2995-0.01693-0.0055 0.02343-0.02309 0.03892-0.02798 0.04666-0.01472 0.082-0.01459 0.106836-0.0084h1e-6c0.222548-0.02914 0.418674-0.03255 0.580964-0.02213l1e-6 1e-6c0.191523 0.204401 0.478875 0.324624 0.629651 0.386171h1e-6c0.01415 0.03152 0.01379 0.07219-0.0013 0.10391-0.105553 0.221433-0.200104 0.151844-0.250718 0.05372-0.01595-0.03092-0.05828-0.288755 0.08443-0.140262l1e-6 1e-6c0.01105 0.0115 0.0048 0.02379-0.01812 0.05849v1e-6c-0.01925 0.08913 0.0048 0.278155-0.0693 0.595064v1e-6c-0.106275 0.1064-0.22894 0.219794-0.354514 0.343101l-1e-6 1e-6c-0.07615 0.05016-0.149698 0.09802-0.205609 0.141651-0.01855 0.01448-0.0595 0.04039-0.03986 0.05164-2.13875 0.891077-7.50781 1.26929-13.8363 1.76757-1.96096-0.393593-4.874-0.03682-8.71114-1.44168 8.66e-4 -0.742588 0.01793-1.49096 0.0507-2.24525 0.303728-6.99173 1.96867-13.7668 3.17131-17.8489 1.2819-4.3512 2.39488-6.87815 3.06513-6.7484z"/><path class="UnoptimicedTransforms" transform="translate(-4.81808 66.2684)" d="m80.0145 8.43163c-0.27417 0.283973-1.55369-0.596912-3.01947-0.110397-0.751483 0.181273-1.44021 0.644143-2.35149 1.40751 0 5e-7 0 7e-7 -1e-6 9e-7 -1.38842 1.21613-2.71585 2.92547-3.70882 5.18365-0.181985 0.706875-0.291228 1.44842 0.01428 1.71156 0.155749 0.424352 0.749543 0.810913 1.50449 1.34088 1.44973 0.951246 3.6188 1.48422 6.05727 2.81023 1.89089 0.258302 3.82662 1.19269 5.28962 2.93612 0.09278 0.112077 0.182516 0.226069 0.269161 0.341867 1.13936 1.52271 1.71151 3.31262 1.73891 5.08068 0.06772 4.41062-2.66458 7.88933-6.03694 9.33514-7.07348 4.08703-14.891 2.76332-17.7922 2.03735-0.996895-1.6003-0.753261-2.9166-0.611856-3.45459 0.170717-0.649506 0.408234-0.962288 0.592069-0.962696 0.206781-4.59e-4 0.404708 0.334588 0.527342 0.963732 0.102541 0.526064 0.11818 1.56759 0.459781 1.59519 3.05167-0.139926 10.2274-0.359477 14.5577-4.15732 1.79445-0.918238 3.45542-3.1313 3.34752-5.22291-0.0418-0.795637-0.295698-1.61997-0.753164-2.2021-0.03481-0.0443-0.07073-0.0871-0.107748-0.128295-0.669415-0.774672-1.87502-1.27874-3.09752-1.57134-1.98576-1.10381-4.58971-1.94367-6.99035-3.52777-1.16705-0.735706-2.26965-1.87962-2.9869-3.43626-0.689802-1.99979-0.388689-3.85147 0.325837-5.21755 1.55384-2.78718 3.63801-4.73756 5.65583-5.92786l2e-6 -6e-7c1.31744-0.812588 2.70589-1.17312 3.94999-1.13048 2.91105 0.192982 3.44087 2.02165 3.1667 2.30562z"/><path class="UnoptimicedTransforms" transform="translate(-4.81808 66.2684)" d="m96.7057 8.25956c0.645077-0.17016 1.78788 1.34459 2.48185 4.26959 0.724623 3.0542 0.789692 6.88436 0.04599 11.3492 0 2e-6 -0.0025 0.01592-0.0025 0.01593-0.601973 3.83735-1.79405 8.35256-2.40627 10.5285-0.730627 2.59671-1.3221 4.29464-2.01189 4.29393-0.685722-7.1e-4 -1.34365-1.74762-1.49085-4.66982-0.159563-3.16767 0.275175-6.58394 0.978885-10.9375 3e-6 -2e-5 0.0025-0.01523 0.0025-0.01525 0.617559-4.08431 1.13662-7.66551 1.38523-10.288 0.245681-2.59156 0.339229-4.36779 1.01708-4.54659z"/><path class="UnoptimicedTransforms" transform="translate(-4.81808 66.2684)" d="m88.274 9.9803c0-1.37783 5.47334-2.49607 12.2173-2.49607 6.74393 0 12.2173 1.11824 12.2173 2.49607 0 1.37783-5.47333 2.49607-12.2173 2.49607-6.74393 0-12.2173-1.11824-12.2173-2.49607z"/><path class="UnoptimicedTransforms" transform="translate(-4.81808 66.2684)" d="m131.465 8.94786c0.0506 0.732734-1.99119 0.978361-5.25232 1.3829-1.36601 0.200406-3.19571 0.500261-4.48266 1.30429-0.72633 0.222402-1.45796 0.657054-1.87614 1.23016v1e-6c-0.40339 0.53464-0.61558 1.33441-0.83993 2.32894-0.38861 1.87142-0.25477 4.19109-0.52857 6.95519-0.14912 1.0923-0.32932 2.18096-0.52839 3.28495-0.76566 4.24614-1.47753 7.19991-1.80115 10.7692 4.23321 0.09643 8.01514-0.06971 10.7466 0.126926 2.73148 0.19663 4.39909 0.680955 4.39047 1.18178-9e-3 0.50083-1.68889 0.920591-4.72196 1.1614-2.81647 0.22361-7.64375 0.351486-12.835-0.196836-0.36325-4.22126-0.2863-8.22801-0.21748-13.0126 0.0185-1.28387 0.0329-2.51327 0.0321-3.73504 0.28868-2.51914 0.25519-4.79824 0.97594-7.59715 0.33656-1.37536 0.97008-2.76031 1.98121-3.97421v-1e-6c1.12682-1.33632 2.61087-2.01677 4.04339-2.17636 2.16327-0.855357 4.22556-0.765525 5.67763-0.546817 3.32255 0.406505 5.21301 1.17619 5.23629 1.51326z"/><path class="UnoptimicedTransforms" transform="translate(-4.81808 66.2684)" d="m118.515 21.4045c-0.0567 0.288415-0.29781 0.632351-0.80426 0.758151-0.0335-0.242462-0.11177-0.555214-0.2626-0.965332 0.0131-0.09012 0.0194-0.193375 0.0477-0.301324 0.0277-0.105901 0.0739-0.198235 0.11417-0.298064 0.0815-0.201965 0.15719-0.412808 0.21663-0.632127v-2e-6c0.21167-0.115187 0.38648-0.190927 0.56529-0.276896 1.01146-0.480326 2.37161-0.74538 3.95474-0.869738 0.79598-0.06141 1.6427-0.07845 2.52017-0.0483 0.90901 0.03123 1.77879 0.110624 2.57865 0.225281 1.5371 0.198102 2.89888 0.618814 3.65234 0.935921 0.28224 0.119609 0.52387 0.246876 0.72295 0.380836 0.43445 0.312727 0.67649 0.659476 0.67623 1.0242-2.7e-4 0.364751-0.24285 0.711095-0.67913 1.02322-0.17446 0.133037-0.37745 0.259633-0.60309 0.378036-1.02936 0.544533-2.36591 0.818362-3.88866 0.956367-0.82778 0.07362-1.71219 0.09688-2.63063 0.06535-0.88244-0.03029-1.72699-0.108758-2.50709-0.222816-1.54116-0.218203-2.8822-0.630445-3.71368-1.01255-0.16054-0.06814-0.26175-0.14941-0.33372-0.218606v-1e-6 -1e-6c-0.0241-0.208953-0.0305-0.405903-0.0236-0.583013 3e-3 -0.0865 3e-3 -0.16631 0.0271-0.234213 0.0248-0.07033 0.0781-0.148265 0.12417-0.221669-0.0683-0.364864-0.0597-0.652136-0.0124-0.868807 0.1543 0.4074 0.33453 0.620024 0.25865 1.00609z"/><path class="UnoptimicedTransforms" transform="translate(-4.81808 66.2684)" d="m137.315 7.57126c1.37783 0 2.49607 7.78601 2.49607 17.3795s-1.11824 17.3795-2.49607 17.3795-2.49607-7.78601-2.49607-17.3795 1.11824-17.3795 2.49607-17.3795z"/><path class="UnoptimicedTransforms" transform="translate(-4.81808 66.2684)" d="m154.695 10.3244c0.44757 0.320838-0.0739 2.01027-1.7363 4.42874-2.08935 3.0396-3.98534 4.75375-7.40832 8.61817-0.74506 0.745998-1.4683 1.3293-2.13417 1.8802-0.60186 0.523021-1.1121 0.898234-1.32737 1.21676-0.0359 0.145918-0.0207 0.01293 0.14301-0.394626 0.0859-0.65335-0.0639-1.18095-0.48384-1.66582-0.11097-0.02095-0.17159-0.04931-0.1863-0.07748-0.0547-0.104834 0.52722-0.198095 1.43078 0.08154 2.56064 0.71438 4.97356 1.43537 7.32986 2.7135 2.84617 1.5855 4.65257 3.97804 5.45275 6.30014v2e-6c1.14598 4.83065-0.41256 6.82438-1.0801 6.83978-0.66754 0.01541-0.573-3.11467-2.11254-5.54956v0c-0.83191-1.38884-2.27809-2.63191-4.32313-3.53143-1.77544-0.819627-3.62668-1.20742-6.1266-1.90124-0.5113 0.169067-1.54666 0.08955-2.85928-0.652351-0.3527-0.199352-0.72265-0.445377-1.10429-0.744842-0.71041-0.783724-0.99045-1.74988-0.82187-2.80857 0.26836-0.920526 0.59658-1.49724 0.88844-1.75308 0.77709-0.896994 1.54524-1.48873 2.13213-1.91013 0.7313-0.558885 1.32648-0.96448 1.81408-1.39814 2.75138-2.71517 7.17333-6.14533 8.61507-7.28883 2.11182-1.67498 3.44309-2.72883 3.89799-2.40273z"/></g><g fill="none" stroke="#000" stroke-width="1.065"><path d="m10.8291 29.932v-1.09507c0-3.71748-0.129277-6.05714 0.486699-9.85566 0.195306-1.20439 0.587561-2.37106 0.973398-3.52857 0.345341-1.03602 0.728362-2.0651 1.21675-3.04187 0.712343-1.42468 1.50885-2.14378 2.55517-3.28522 0.446141-0.486699 0.81023-1.06395 1.33842-1.4601 0.623506-0.46763 1.36754-0.365024 2.06847-0.365024h1.33842 2.9202c0.486699 0 0.980596-0.083392 1.4601 0 0.580266 0.100916 1.75031 0.581932 2.19015 1.09507 0.271754 0.317045 0.539727 0.683182 0.608373 1.09507 0.140022 0.840135 0.148018 1.71641 0 2.55517-0.208328 1.18054-1.58123 2.81504-2.4335 3.40689-1.40002 0.972239-3.89254 1.57604-5.47537 2.06847-4.2177 1.31217-1.08157 0.567086-4.98867 1.09507-0.733452 0.09912-1.45396 0.288867-2.19015 0.365024-0.443773 0.04591-0.892282 0-1.33842 0h-0.851723c-1.09111 0-1.44641 0.03672-2.55517-0.121675-0.126967-0.01814-0.24335-0.08112-0.365024-0.121674"/><path d="m35.0423 8.88226c0 7.94887 0.05378-10.5224-2.06847 18.3729-0.110561 1.50535-0.265694 3.19346 0.486699 4.50197 0.388884 0.67632 1.53238 0.331618 2.31182 0.365024 4.39059 0.188167 5.20475 0.23222 8.63891-0.365024 1.05796-0.183994 2.11578-0.373163 3.16354-0.608375 0.940649-0.211167 1.85097-0.552384 2.79852-0.730049 0.358773-0.06727 0.730049 0 1.09507 0h0.243348"/><path d="m76.2901 8.39556c-5.82676 0-13.4308-0.195254-17.6428 3.77192-1.87219 1.76334 2.9378 4.25418 4.74532 6.08374 1.54505 1.56389 3.61566 2.52519 5.23202 4.01527 1.92643 1.77593 2.43024 2.8323 3.40689 4.86699 0.212069 0.441806 0.499767 0.860541 0.608375 1.33842 0.09887 0.435046 0 0.892281 0 1.33842 0 0.527259 0.228161 1.10644 0 1.58177-0.807468 1.68222-2.04568 1.67084-3.65024 1.82512-1.37502 0.132212-2.75558 0.243348-4.13694 0.243348-3.65984 0-4.63678 0.03185-7.78719-1.58177-0.59206-0.303252-1.24336-0.644057-1.58177-1.21675-0.2476-0.419012 0-0.973399 0-1.4601"/><path d="m91.3778 8.03054c-1.37842 8.27054-0.462479 2.88502-5.59704 23.2399-1.28978 5.11306-0.863293 5.92736-1.58177 3.77192"/><path d="m81.7655 9.85566c0.162235-0.0811165 0.305631-0.232699 0.486701-0.24335 1.90338-0.111964 3.81254-0.0783527 5.71872-0.121675 15.8921-0.361184 10.8379 1.57825 16.3044-0.608374"/><path d="m120.458 7.78719c-0.32447 0.040558-0.64654 0.112595-0.9734 0.121675-1.1352 0.031533-2.27503-0.092397-3.4069 0-0.86416 0.070544-1.69685 0.364082-2.55517 0.486699-0.84698 0.120997-1.70482 0.148867-2.55517 0.24335-1.95081 0.216757-1.53342 0.170423-3.28522 0.608374-0.32447 0.081117-0.66467 0.114714-0.9734 0.24335-0.25655 0.106898-0.81134 0.66941-0.9734 0.851723-0.17253 0.194102-0.38439 0.369673-0.48669 0.608374-0.37727 0.880281-0.25079 2.36391-0.36503 3.16354-0.10576 0.740341-0.32096 1.46089-0.4867 2.19015-0.23984 1.05532-0.50483 2.10501-0.73005 3.16354-0.18043 0.848054-0.31294 1.70572-0.4867 2.55517-0.1913 0.935263-0.4376 1.85929-0.60837 2.79852-0.43214 2.37679-0.35749 2.54115-0.4867 4.86699-0.0383 0.689618-0.1025 1.37806-0.12167 2.06847-0.0214 0.770982-0.10236 2.98613 0.24335 3.89359 0.14438 0.379013 0.43284 0.697421 0.73005 0.9734 0.28038 0.260358 0.61225 0.481973 0.97339 0.608372 1.0001 0.350033 2.41354 0.243351 3.4069 0.243351h1.82512c0.68949 0 1.38051 0.04586 2.06847 0 0.53228-0.03549 1.06101-0.127625 1.58177-0.243351 1.16286-0.258411 0.29399-0.243348 0.73005-0.243348"/><path d="m103.544 20.0816c14.9293 1.63908 9.59239 0.895525 16.0626 1.81984"/><path d="m127.515 8.76059c-0.0976 0.878495-0.33837 3.00877-0.36503 3.52857-0.0395 0.769596 0.0188 1.54144 0 2.31182-0.0218 0.892937-0.10601 1.78378-0.12168 2.67684-0.0475 2.70731 0.0899 4.7779-0.12167 7.42216-0.10818 1.35226-0.66606 4.95884-0.85172 6.20541-0.2829 1.89942-0.41076 2.99286-0.85173 4.86699-0.20877 0.887288-0.36796 1.34726-0.60837 2.06847"/><path d="m126.058 23.3143c16.6398-10.997 10.3786-5.90359 19.7083-14.0671"/><path d="m126.058 23.3143c5.24679 8.15897 2.83967 5.86987 10.8261 12.093 0.87848 0.684532 1.85412 1.23487 2.79853 1.82512 0.0344 0.02151 0.0811 0 0.12167 0h0.36502"/></g><path class="UnoptimicedTransforms" d="m68.6246 65.461c0.649865 0.04099 1.06388 2.37959 1.43427 6.12475 0.329354 3.33023 0.765628 9.37602 0.940943 14.8638v2e-6c0.07432 0.816129 0.133722 1.63378 0.1847 2.45961 0.253574 4.10785 0.252451 6.65395 0.649992 9.9408-0.381122 8.08862-1.25164 13.5767-2.2365 13.5775-1.00484 8.1e-4 -1.83919-5.45199-2.2365-13.191-0.729709-3.30834-0.957391-6.52915-1.17733-10.2214-0.04744-0.796324-0.09196-1.55477-0.142586-2.3156v-2e-6c-0.06999-6.14183 0.121074-11.1149 0.663596-15.1498 0.517314-3.84743 1.27999-6.12904 1.91942-6.08871z"/><g fill="none" stroke="#000" stroke-width="1.065"><path d="m65.461 4.50197v1.09507 4.50197c0 3.86012 0.02678 6.69913-0.121674 10.7074-0.08268 2.23249-0.247607 4.46118-0.365024 6.69211-0.125931 2.39272-0.185825 4.7895-0.365025 7.17881-0.06435 0.857962-0.291547 1.69794-0.365024 2.55517-0.04849 0.565743 0 1.13563 0 1.70345v1.21675"/><path d="m6.39217 61.7995c-0.400792-7.89035 0.202279-17.3127 7.05677-22.4897 4.3807-3.44234 13.7654 2.97084 8.0627 7.33132-5.07382 4.02826-11.9723 4.30568-18.1613 3.96428"/><path d="m30.6055 40.7498c-1.20233 6.91576-2.18075 13.9253-1.9053 20.9625 4.84771 5.81374 12.6072 0.384596 18.5748 0.573901"/><path d="m71.8532 40.2631c-5.99923 0.0048-12.7323-0.294613-17.6428 3.77192 1.81198 7.47818 12.1309 8.17667 13.872 15.6974 0.213357 6.89513-8.99072 6.67342-13.6156 4.93941-1.66219-0.484678-3.29833-1.73863-3.4199-3.60234"/><path d="m86.9409 39.8981c-1.58425 9.50738-4.66198 18.6711-6.80992 28.0508-0.122962-0.34633-0.245923-0.69266-0.368885-1.03899"/><path d="m77.3286 41.7232c7.4388-1.4701 15.1517 1.07714 22.5098-0.973397"/><path d="m116.021 39.6547c-4.81424 0.827297-10.9709-0.862935-14.4752 3.48383-2.41509 5.60966-2.93389 11.8806-3.90615 17.8792-2.31839 5.63844 3.3894 10.2561 8.80789 8.35726 0.88689-0.131348 1.76601-0.310961 2.63803-0.518308"/><path d="m99.1069 51.9492c5.34955 0.647828 10.7328 1.0091 16.0626 1.81984"/><path d="m123.078 40.6281c-0.89176 9.69533 0.12844 19.6801-2.9202 29.0803"/><path d="m121.621 55.1819c6.65931-4.55279 13.9756-8.28516 19.7083-14.0671"/><path d="m121.621 55.1819c3.09496 5.94434 7.91312 11.1778 14.1113 13.9182"/><path d="m61.0242 36.3695c0.228107 11.8957-0.436389 23.7857-1.21675 35.6507"/></g></g></svg>
