<?xml version="1.0" encoding="UTF-8" standalone="no"?>
<!-- Created with Inkscape (http://www.inkscape.org/) -->

<svg
   width="210mm"
   height="297mm"
   viewBox="0 0 210 297"
   version="1.1"
   id="svg8173"
   inkscape:version="1.2 (dc2aedaf03, 2022-05-15)"
   sodipodi:docname="3-howl.svg"
   xmlns:inkscape="http://www.inkscape.org/namespaces/inkscape"
   xmlns:sodipodi="http://sodipodi.sourceforge.net/DTD/sodipodi-0.dtd"
   xmlns="http://www.w3.org/2000/svg"
   xmlns:svg="http://www.w3.org/2000/svg">
  <sodipodi:namedview
     id="namedview8175"
     pagecolor="#ffffff"
     bordercolor="#666666"
     borderopacity="1.0"
     inkscape:showpageshadow="2"
     inkscape:pageopacity="0.0"
     inkscape:pagecheckerboard="0"
     inkscape:deskcolor="#d1d1d1"
     inkscape:document-units="mm"
     showgrid="false"
     inkscape:zoom="2.1089995"
     inkscape:cx="248.9332"
     inkscape:cy="153.62734"
     inkscape:window-width="1920"
     inkscape:window-height="1017"
     inkscape:window-x="1912"
     inkscape:window-y="-8"
     inkscape:window-maximized="1"
     inkscape:current-layer="layer1" />
  <defs
     id="defs8170">
    <marker
       style="overflow:visible"
       id="TriangleStart"
       refX="0"
       refY="0"
       orient="auto-start-reverse"
       inkscape:stockid="TriangleStart"
       markerWidth="2"
       markerHeight="2"
       viewBox="0 0 5.3244081 6.1553851"
       inkscape:isstock="true"
       inkscape:collect="always"
       preserveAspectRatio="xMidYMid">
      <path
         transform="scale(0.5)"
         style="fill:context-stroke;fill-rule:evenodd;stroke:context-stroke;stroke-width:1pt"
         d="M 5.77,0 -2.88,5 V -5 Z"
         id="path135" />
    </marker>
    <inkscape:path-effect
       effect="simplify"
       id="path-effect13805"
       is_visible="true"
       lpeversion="1"
       steps="1"
       threshold="0.000408163"
       smooth_angles="360"
       helper_size="0"
       simplify_individual_paths="false"
       simplify_just_coalesce="false" />
    <inkscape:path-effect
       effect="skeletal"
       id="path-effect13801"
       is_visible="true"
       lpeversion="1"
       pattern="M 0,4.9921382 C 0,2.2364779 2.2364779,0 4.9921382,0 c 2.7556604,0 4.9921383,2.2364779 4.9921383,4.9921382 0,2.7556604 -2.2364779,4.9921383 -4.9921383,4.9921383 C 2.2364779,9.9842765 0,7.7477986 0,4.9921382 Z"
       copytype="single_stretched"
       prop_scale="0.5"
       scale_y_rel="false"
       spacing="0"
       normal_offset="0"
       tang_offset="0"
       prop_units="false"
       vertical_pattern="false"
       hide_knot="false"
       fuse_tolerance="0" />
    <inkscape:path-effect
       effect="simplify"
       id="path-effect13799"
       is_visible="true"
       lpeversion="1"
       steps="1"
       threshold="0.000408163"
       smooth_angles="360"
       helper_size="0"
       simplify_individual_paths="false"
       simplify_just_coalesce="false" />
  </defs>
  <g
     inkscape:label="Calque 1"
     inkscape:groupmode="layer"
     id="layer1">
    <circle
       style="fill:#000000;fill-opacity:1;stroke:none;stroke-width:1;stroke-linecap:round;stroke-linejoin:round;stroke-dasharray:none;paint-order:stroke fill markers"
       id="path12934"
       cx="49.588707"
       cy="-3.5483871"
       transform="rotate(45)"
       r="21.137547" />
    <circle
       style="fill:#000000;fill-opacity:1;stroke:none;stroke-width:1;stroke-linecap:round;stroke-linejoin:round;stroke-dasharray:none;paint-order:stroke fill markers;opacity:0.5"
       id="path12934-4"
       cx="51.833763"
       cy="-3.5483871"
       transform="rotate(45)"
       r="21.137547" />
    <path
       style="fill:#c33829;fill-opacity:1;stroke:none;stroke-width:1;stroke-linecap:round;stroke-linejoin:round;stroke-dasharray:none;paint-order:stroke fill markers"
       id="path12884"
       sodipodi:type="arc"
       sodipodi:cx="49.588707"
       sodipodi:cy="-3.5483871"
       sodipodi:rx="20.888163"
       sodipodi:ry="20.888163"
       sodipodi:start="0"
       sodipodi:end="1.5707963"
       sodipodi:arc-type="slice"
       d="M 70.47687,-3.5483871 A 20.888163,20.888163 0 0 1 49.588707,17.339776 V -3.5483871 Z"
       transform="rotate(45)" />
    <path
       style="fill:#679221;fill-opacity:1;stroke:none;stroke-width:1;stroke-linecap:round;stroke-linejoin:round;stroke-dasharray:none;paint-order:stroke fill markers"
       id="path12884-6"
       sodipodi:type="arc"
       sodipodi:cx="-3.5483871"
       sodipodi:cy="-49.588707"
       sodipodi:rx="20.888163"
       sodipodi:ry="20.888163"
       sodipodi:start="0"
       sodipodi:end="1.5707963"
       sodipodi:arc-type="slice"
       d="M 17.339776,-49.588707 A 20.888163,20.888163 0 0 1 -3.5483871,-28.700544 V -49.588707 Z"
       transform="rotate(135)" />
    <path
       style="fill:#1f629e;fill-opacity:1;stroke:none;stroke-width:1;stroke-linecap:round;stroke-linejoin:round;stroke-dasharray:none;paint-order:stroke fill markers"
       id="path12884-8"
       sodipodi:type="arc"
       sodipodi:cx="-49.588707"
       sodipodi:cy="3.5483871"
       sodipodi:rx="20.888163"
       sodipodi:ry="20.888163"
       sodipodi:start="0"
       sodipodi:end="1.5707963"
       sodipodi:arc-type="slice"
       d="M -28.700544,3.5483871 A 20.888163,20.888163 0 0 1 -49.588707,24.43655 V 3.5483871 Z"
       transform="rotate(-135)" />
    <path
       style="fill:#1a1816;fill-opacity:1;stroke:none;stroke-width:1;stroke-linecap:round;stroke-linejoin:round;stroke-dasharray:none;paint-order:stroke fill markers"
       id="path12884-4"
       sodipodi:type="arc"
       sodipodi:cx="3.5483871"
       sodipodi:cy="49.588707"
       sodipodi:rx="20.888163"
       sodipodi:ry="20.888163"
       sodipodi:start="0"
       sodipodi:end="1.5707963"
       sodipodi:arc-type="slice"
       d="M 24.43655,49.588707 A 20.888163,20.888163 0 0 1 3.5483871,70.47687 V 49.588707 Z"
       transform="rotate(-45)" />
    <path
       style="fill:none;stroke:#000000;stroke-width:0.25;stroke-linecap:butt;stroke-linejoin:miter;stroke-dasharray:none;stroke-opacity:1"
       d="M 22.80344,17.785262 52.343763,47.325585"
       id="path12936" />
    <path
       style="fill:none;stroke:#000000;stroke-width:0.25;stroke-linecap:butt;stroke-linejoin:miter;stroke-dasharray:none;stroke-opacity:1"
       d="M 52.343762,17.785262 22.803439,47.325584"
       id="path12938" />
    <circle
       style="fill:#92603b;fill-opacity:1;stroke:#000000;stroke-width:0.4;stroke-linecap:round;stroke-linejoin:round;stroke-dasharray:none;stroke-opacity:1;paint-order:stroke fill markers"
       id="path12992"
       cx="49.588707"
       cy="-3.5483871"
       transform="rotate(45)"
       r="2.2187705" />
    <path
       style="fill:#000000;fill-opacity:1;stroke:#000000;stroke-width:0.264582px;stroke-linecap:round;stroke-linejoin:round;stroke-opacity:1"
       d="m 36.226928,11.43638 c 0,0 0,-4.4153826 0.813888,-4.4153826 0.937732,0 0.937732,6.0777216 0.937732,6.0777216 v 3.001302 h -0.802772 l 1.495617,2.988173 1.441862,-2.988173 H 39.310484 V 12.9421 c 0,0 0,-7.9649796 -2.269668,-7.9649796 -2.006865,0 -2.006865,6.5938776 -2.006865,6.5938776 z"
       id="path13722"
       sodipodi:nodetypes="cscccccccscc" />
    <path
       style="fill:#ffffff;fill-opacity:1;stroke:#ffffff;stroke-width:2.5;stroke-linecap:round;stroke-linejoin:round;stroke-dasharray:none;stroke-opacity:1;paint-order:stroke fill markers;opacity:0.3"
       id="path13872"
       d="m 22.016373,24.426472 c -0.01243,0.01507 -0.02745,0.02831 -0.0373,0.04521 -0.02106,0.03619 -0.03653,0.07538 -0.0548,0.113065 -0.02539,0.04498 -0.04938,0.09078 -0.07615,0.134922 -0.02938,0.04844 -0.0651,0.09298 -0.09224,0.142737 -0.01906,0.03492 -0.145894,0.320064 -0.160882,0.353522 -0.1826,0.459263 -0.369491,0.916158 -0.57139,1.367158 -0.240873,0.528169 -0.476419,1.058626 -0.717944,1.586546 -0.239379,0.511136 -0.414008,1.048553 -0.561473,1.592803 -0.15714,0.599102 -0.290746,1.203903 -0.395184,1.814527 -0.09293,0.616089 -0.141683,1.236691 -0.166294,1.85896 -0.01831,0.30214 -0.01455,0.604858 -0.01803,0.907327 -0.0019,0.161397 -0.01126,0.35378 -9.27e-4,0.516066 0.0051,0.08047 0.01783,0.160271 0.02674,0.240405 0.08046,0.500849 0.187434,0.99525 0.313221,1.486216 0.128775,0.465269 0.291392,0.920383 0.448067,1.376703 0.138865,0.400305 0.25559,0.806978 0.433013,1.192127 0.101558,0.247884 0.247656,0.472857 0.371864,0.708969 0.06304,0.119841 0.121815,0.248155 0.179493,0.370697 0.137406,0.316809 0.28123,0.630425 0.467454,0.921335 0.12719,0.217616 0.289546,0.412159 0.473725,0.58266 0.0449,0.04224 0.108416,0.1064 0.161665,0.138126 1.014604,0.604493 2.88082,-1.533853 3.013933,-1.616619 0.04087,-0.02541 0.02544,-0.09339 0.03665,-0.140467 0.01369,-0.05747 0.02534,-0.115421 0.03802,-0.173133 0.08258,-0.637604 0.184926,-1.271675 0.29774,-1.904466 0.105078,-0.626008 0.182694,-1.256795 0.290037,-1.882297 0.08201,-0.586071 0.277279,-1.143584 0.506475,-1.685429 0.443169,-0.90179 -0.184503,0.366652 0.268117,-0.519526 0.219225,-0.429216 0.05929,-0.159689 0.309761,-0.606574 0.137675,-0.245639 0.219361,-0.371205 0.366433,-0.607675 0.05691,-0.08431 0.101948,-0.178121 0.170703,-0.252909 0.05726,-0.0623 0.134836,-0.101849 0.202253,-0.152775 -0.824455,0.500842 -1.65912,0.984987 -2.473364,1.502525 -0.04966,0.03156 0.11306,-0.04239 0.171705,-0.03959 0.196995,0.0094 0.313357,0.108473 0.478018,0.205105 0.238148,0.162559 0.418778,0.390113 0.628232,0.584285 0.105674,0.09797 0.244,0.22153 0.394879,0.247162 0.07718,0.01311 0.156144,-0.011 0.234218,-0.0165 2.79514,-1.60775 2.339781,-0.840871 3.109112,-2.238679 0.02526,-0.0459 0.231957,-0.438749 0.269584,-0.49081 0.04447,-0.06154 0.104248,-0.110185 0.156372,-0.165281 0.05677,-0.03622 0.111004,-0.07682 0.170288,-0.10867 0.05458,-0.02933 0.22349,-0.106068 0.170263,-0.07432 -0.848409,0.506007 -1.707287,0.993998 -2.556978,1.497807 -0.04008,0.02376 0.08423,-0.03983 0.127397,-0.05723 0.159996,-0.06451 0.13743,-0.05023 0.319439,-0.08376 0.363838,-0.0067 0.711725,0.120077 1.054997,0.227207 0.108146,0.03803 0.219632,0.06177 0.331968,0.08244 0,0 2.644364,-1.894498 2.644364,-1.894498 v 0 c -0.117751,-0.0034 -0.235624,-0.0061 -0.352917,-0.01818 -0.382376,-0.06408 -0.761454,-0.146731 -1.131855,-0.263183 -0.164993,-0.02813 -0.355899,-0.06773 -0.51403,0.02053 -0.959668,0.535606 -1.913031,1.0828 -2.860865,1.639409 -0.05132,0.03014 -0.09318,0.07502 -0.13348,0.118997 -0.04365,0.04764 -0.07812,0.103051 -0.117179,0.154576 -0.159769,0.296153 -0.285919,0.618875 -0.498667,0.883017 -0.617827,0.767085 -2.606331,1.573791 2.269508,-1.184061 -0.08676,0.09168 -0.148061,0.202148 -0.298573,0.188202 -0.143387,-0.01329 -0.316562,-0.173623 -0.412709,-0.252482 -0.210439,-0.172597 -0.262767,-0.226077 -0.466228,-0.412955 -0.138722,-0.130585 -0.30278,-0.302038 -0.472065,-0.397644 -0.07756,-0.0438 -0.16879,-0.137644 -0.24844,-0.09782 -1.899938,0.949798 -2.461232,0.825711 -3.083485,2.069496 -0.104353,0.199479 -0.202088,0.390321 -0.313823,0.586295 -0.224218,0.393254 -0.489768,0.76592 -0.638462,1.198357 -0.214643,0.574153 -0.421852,1.156298 -0.503141,1.767438 -0.05837,0.61746 -0.122493,1.234437 -0.228616,1.845856 -0.08059,0.653883 -0.183677,1.323271 -0.510126,1.904849 -0.03823,0.04936 -0.0698,0.104787 -0.114676,0.148092 -0.03135,0.03026 -0.14842,0.09076 -0.110592,0.0693 0.913909,-0.518413 1.812899,-1.064169 2.738939,-1.560225 0.02949,-0.0158 0.0032,0.07079 -0.01319,0.100113 -0.02784,0.04974 -0.106833,-0.0026 -0.127129,-0.01114 -0.17902,-0.140656 -0.339126,-0.29609 -0.466691,-0.487287 -0.194589,-0.266088 -0.371783,-0.542436 -0.510022,-0.843268 -0.181867,-0.358272 -0.358988,-0.718805 -0.535066,-1.079984 -0.171026,-0.374061 -0.322224,-0.755883 -0.465074,-1.141795 -0.162966,-0.444094 -0.305919,-0.895452 -0.443205,-1.348219 -0.124909,-0.476251 -0.252979,-0.957638 -0.281133,-1.45139 -0.05412,-0.525458 -0.110869,-1.051221 -0.0645,-1.580376 0.03541,-0.609831 0.07052,-1.221882 0.18318,-1.823295 0.113685,-0.599031 0.239295,-1.197257 0.410902,-1.782451 0.180943,-0.534337 0.383605,-1.059916 0.613742,-1.574924 0.229864,-0.523789 0.44637,-1.053573 0.692883,-1.569866 0.22866,-0.471349 0.452549,-0.945118 0.688715,-1.412726 0.11879,-0.21709 0.253492,-0.425683 0.401426,-0.624074 0.03215,-0.04312 0.06898,-0.08265 0.09989,-0.126684 0.02871,-0.0409 0.05243,-0.08512 0.07864,-0.127682 0,0 -3.01514,1.391793 -3.01514,1.391793 z" />
    <path
       style="fill:#ffffff;fill-opacity:1;stroke:#ffffff;stroke-width:2.5;stroke-linecap:round;stroke-linejoin:round;stroke-dasharray:none;stroke-opacity:1;paint-order:stroke fill markers;opacity:0.3"
       id="path13874"
       d="m 43.593314,34.51365 c 0.870899,-0.506212 7.229453,-4.198459 0.333699,-0.20381 -0.05969,0.03457 0.1199,-0.06827 0.180856,-0.100559 0.156659,-0.08298 0.314097,-0.151968 0.481381,-0.209795 0.03923,-0.0074 0.07784,-0.02455 0.117687,-0.02216 0.2167,0.01299 0.381147,0.222539 0.554965,0.323898 0.0692,0.04035 0.144091,0.0701 0.216136,0.105152 0.387538,0.125436 0.741626,-0.03693 1.117542,-0.101633 0.210801,-0.03628 0.22849,-0.01901 0.434883,0.0068 0.303946,0.06397 0.585546,0.205818 0.901284,0.211943 0.179632,0.0035 0.284854,-0.0278 0.457716,-0.06329 1.6033,-0.511236 3.07819,-1.39998 4.399926,-2.436639 -0.268055,0.109329 0.758126,-0.506841 0.560782,-0.392328 -0.920779,0.534309 -1.840302,1.070816 -2.756089,1.613611 -0.04525,0.02682 0.09413,-0.04761 0.1437,-0.06523 0.05293,-0.01881 0.11386,-0.01612 0.162752,-0.04374 1.078862,-0.609806 2.143775,-1.243891 3.215662,-1.865839 0.04363,-0.104227 0.0891,-0.207706 0.130881,-0.312685 0.234484,-0.589089 0.09551,-0.282333 0.359405,-0.92059 0.209333,-0.506289 0.441256,-1.003103 0.659398,-1.505626 0.0406,-0.09776 0.280361,-0.686894 0.346624,-0.80418 0.04925,-0.08718 0.265811,-0.29107 0.178714,-0.241508 -0.969173,0.551511 -1.886104,1.190435 -2.845361,1.75897 -0.02112,0.01253 -0.0185,-0.08757 0.0018,-0.07357 0.04826,0.03348 0.06706,0.09637 0.100603,0.14455 0.251066,0.670141 0.330535,1.401667 0.311037,2.114588 -0.0048,0.175325 -0.02246,0.350064 -0.03369,0.525098 -0.09685,1.157135 -0.462627,2.276191 -0.83433,3.370357 -0.316346,0.915574 -0.781891,1.765474 -1.21835,2.62638 -0.04963,0.104917 -0.09926,0.209837 -0.148893,0.314755 0,0 3.106544,-1.420339 3.106544,-1.420339 v 0 c 0.0405,-0.09763 0.081,-0.195256 0.121507,-0.292884 0.375181,-0.848144 0.749181,-1.697983 1.028523,-2.583792 0.363412,-1.131323 0.726814,-2.27417 0.839763,-3.462976 0.01271,-0.183941 0.03093,-0.367587 0.03817,-0.551826 0.0308,-0.783691 -0.04143,-1.567803 -0.178838,-2.338936 -0.03554,-0.113045 -0.04815,-0.236026 -0.106603,-0.339138 -0.761329,-1.343012 -2.987979,1.388313 -3.343497,1.626844 -0.07129,0.04783 -0.05496,0.16249 -0.08098,0.244213 -0.03574,0.112269 -0.06705,0.225938 -0.104258,0.337729 -0.04598,0.138157 -0.09685,0.274649 -0.145272,0.411973 -0.194298,0.49806 -0.391531,0.995279 -0.625752,1.476449 -0.139287,0.286144 -0.340345,0.682622 -0.54392,0.937238 -0.07913,0.09896 -0.182142,0.176256 -0.273212,0.264386 0.956216,-0.52994 1.922019,-1.042991 2.868649,-1.589819 0.05325,-0.03076 -0.120306,0.02581 -0.18077,0.03714 -0.07271,0.01363 -0.153889,0.0022 -0.218716,0.03776 -1.395551,0.76645 -2.537055,1.304795 -3.681255,2.208832 -1.143174,0.789837 -0.426267,0.281124 2.334757,-1.288834 0.07061,-0.04015 -0.137472,0.08792 -0.212182,0.119811 -0.06511,0.0278 -0.136884,0.03652 -0.204345,0.05803 -0.174139,0.05552 -0.22499,0.08166 -0.393229,0.152947 -0.177172,0.07759 -0.406346,0.179374 -0.603885,0.184014 -0.23452,0.0055 -0.444357,-0.127163 -0.664645,-0.183139 -0.162179,-0.04057 -0.365277,-0.101613 -0.534239,-0.100465 -0.333683,0.0022 -0.623008,0.20761 -0.953076,0.238192 -0.05255,-0.01707 -0.108189,-0.02659 -0.157649,-0.05119 -0.274189,-0.136392 -0.502182,-0.462972 -0.822277,-0.541759 -0.06294,0.0043 -0.126832,0.001 -0.188837,0.01272 -0.186518,0.03497 -0.400135,0.127267 -0.564357,0.220864 -1.072485,0.611274 -7.160783,4.130071 -0.253719,0.140254 0,0 -2.833002,2.28279 -2.833002,2.28279 z" />
    <path
       style="opacity:0.3;fill:#ffffff;fill-opacity:1;stroke:#ffffff;stroke-width:2.5;stroke-linecap:round;stroke-linejoin:round;stroke-dasharray:none;stroke-opacity:1;paint-order:stroke fill markers"
       id="path13939"
       d="m 33.783933,15.39576 c -0.03792,0.0035 -0.07723,-3.18e-4 -0.113755,0.01047 -0.06546,0.01931 -0.381383,0.163926 -0.428596,0.184572 -0.266848,0.116688 -0.536728,0.225291 -0.807407,0.332688 -0.385623,0.158053 -0.788403,0.271661 -1.172618,0.433246 -0.06933,0.02916 -0.137144,0.06181 -0.205719,0.09272 -1.210616,0.611087 -0.242495,0.117735 -3.15834,1.80486 -0.235497,0.13626 -0.460023,0.291614 -0.68479,0.444552 0,0 3.234192,-1.277501 3.234192,-1.277501 v 0 c 0.111487,-0.08534 0.224345,-0.167265 0.342072,-0.243936 0.04856,-0.03163 0.197281,-0.121663 0.146936,-0.09295 -2.13142,1.215691 -3.479966,2.010182 -2.385399,1.366107 0.464434,-0.246774 0.943235,-0.469292 1.445088,-0.629509 0.139735,-0.03758 0.252648,-0.07045 0.39288,-0.09941 0.04503,-0.0093 0.09023,-0.01874 0.135999,-0.02314 0.04997,-0.0048 0.105534,-0.0015 0.09035,0.02209 -0.0037,0.0058 -0.01249,-0.0058 -0.01873,-0.0088 0,0 3.187843,-2.316103 3.187843,-2.316103 z" />
    <path
       id="path13722-5"
       style="opacity:0.5;fill:#000000;fill-opacity:1;stroke:#000000;stroke-width:0.264582px;stroke-linecap:round;stroke-linejoin:round;stroke-opacity:1"
       d="m 39.415149,11.815445 c -0.008,-0.403346 -0.848004,-0.663454 -1.250999,-0.682076 -0.03824,-1.04e-4 -0.06864,0.482375 -0.106881,0.482479 0.05761,1.145767 0.05055,1.612483 0.05055,1.612483 v 3.001368 h -0.802535 l 1.495516,2.987931 1.441773,-2.987931 h -0.802535 v -3.157947 z"
       sodipodi:nodetypes="scccccccccs" />
    <path
       id="path18382"
       style="opacity:0.5;fill:#000000;fill-opacity:1;stroke:#000000;stroke-width:0.264582px;stroke-linecap:round;stroke-linejoin:round;stroke-opacity:1"
       d="M 37.370329 5.4063883 C 35.363466 5.4063883 35.363216 11.468551 35.363216 11.468551 L 36.556425 11.333675 C 36.556425 11.333675 36.556442 7.4501912 37.370329 7.4501912 C 37.93805 7.4501912 38.160955 9.6748927 38.249345 11.432894 A 21.137547 21.137547 0 0 1 38.364067 11.432894 A 21.137547 21.137547 0 0 1 39.570711 11.523328 C 39.418292 9.1703606 38.930613 5.4063883 37.370329 5.4063883 z " />
    <circle
       style="fill:#000000;fill-opacity:1;stroke:none;stroke-width:1;stroke-linecap:round;stroke-linejoin:round;stroke-dasharray:none;paint-order:stroke fill markers"
       id="path12934-0"
       cx="91.652451"
       cy="-45.612125"
       transform="rotate(45)"
       r="21.137547" />
    <circle
       style="opacity:0.5;fill:#000000;fill-opacity:1;stroke:none;stroke-width:1;stroke-linecap:round;stroke-linejoin:round;stroke-dasharray:none;paint-order:stroke fill markers"
       id="path12934-4-0"
       cx="93.897507"
       cy="-45.612125"
       transform="rotate(45)"
       r="21.137547" />
    <path
       style="fill:#c33829;fill-opacity:1;stroke:none;stroke-width:1;stroke-linecap:round;stroke-linejoin:round;stroke-dasharray:none;paint-order:stroke fill markers"
       id="path12884-2"
       sodipodi:type="arc"
       sodipodi:cx="-45.612122"
       sodipodi:cy="-91.652451"
       sodipodi:rx="20.888163"
       sodipodi:ry="20.888163"
       sodipodi:start="0"
       sodipodi:end="1.5707963"
       sodipodi:arc-type="slice"
       d="m -24.723959,-91.652451 a 20.888163,20.888163 0 0 1 -20.888163,20.888163 v -20.888163 z"
       transform="rotate(135)" />
    <path
       style="fill:#679221;fill-opacity:1;stroke:none;stroke-width:1;stroke-linecap:round;stroke-linejoin:round;stroke-dasharray:none;paint-order:stroke fill markers"
       id="path12884-6-0"
       sodipodi:type="arc"
       sodipodi:cx="-91.652451"
       sodipodi:cy="45.612122"
       sodipodi:rx="20.888163"
       sodipodi:ry="20.888163"
       sodipodi:start="0"
       sodipodi:end="1.5707963"
       sodipodi:arc-type="slice"
       d="M -70.764288,45.612122 A 20.888163,20.888163 0 0 1 -91.652451,66.500284 V 45.612122 Z"
       transform="rotate(-135)" />
    <path
       style="fill:#1f629e;fill-opacity:1;stroke:none;stroke-width:1;stroke-linecap:round;stroke-linejoin:round;stroke-dasharray:none;paint-order:stroke fill markers"
       id="path12884-8-5"
       sodipodi:type="arc"
       sodipodi:cx="45.612122"
       sodipodi:cy="91.652451"
       sodipodi:rx="20.888163"
       sodipodi:ry="20.888163"
       sodipodi:start="0"
       sodipodi:end="1.5707963"
       sodipodi:arc-type="slice"
       d="M 66.500284,91.652451 A 20.888163,20.888163 0 0 1 45.612122,112.54061 V 91.652451 Z"
       transform="rotate(-45)" />
    <path
       style="fill:#1a1816;fill-opacity:1;stroke:none;stroke-width:1;stroke-linecap:round;stroke-linejoin:round;stroke-dasharray:none;paint-order:stroke fill markers"
       id="path12884-4-4"
       sodipodi:type="arc"
       sodipodi:cx="91.652451"
       sodipodi:cy="-45.612129"
       sodipodi:rx="20.888163"
       sodipodi:ry="20.888163"
       sodipodi:start="0"
       sodipodi:end="1.5707963"
       sodipodi:arc-type="slice"
       d="M 112.54061,-45.612129 A 20.888163,20.888163 0 0 1 91.652451,-24.723967 V -45.612129 Z"
       transform="rotate(45)" />
    <path
       style="fill:none;stroke:#000000;stroke-width:0.25;stroke-linecap:butt;stroke-linejoin:miter;stroke-dasharray:none;stroke-opacity:1"
       d="M 82.290548,17.785262 111.83087,47.325585"
       id="path12936-7" />
    <path
       style="fill:none;stroke:#000000;stroke-width:0.25;stroke-linecap:butt;stroke-linejoin:miter;stroke-dasharray:none;stroke-opacity:1"
       d="M 111.83087,17.785262 82.290547,47.325584"
       id="path12938-1" />
    <circle
       style="fill:#92603b;fill-opacity:1;stroke:#000000;stroke-width:0.4;stroke-linecap:round;stroke-linejoin:round;stroke-dasharray:none;stroke-opacity:1;paint-order:stroke fill markers"
       id="path12992-3"
       cx="91.652451"
       cy="-45.612125"
       transform="rotate(45)"
       r="2.2187705" />
    <path
       style="fill:#000000;fill-opacity:1;stroke:#000000;stroke-width:0.264582px;stroke-linecap:round;stroke-linejoin:round;stroke-opacity:1"
       d="m 95.714036,11.43638 c 0,0 0,-4.4153823 0.813888,-4.4153823 0.937732,0 0.937732,6.0777213 0.937732,6.0777213 v 3.001302 h -0.802772 l 1.495617,2.988173 1.441862,-2.988173 H 98.797592 V 12.9421 c 0,0 0,-7.9649796 -2.269668,-7.9649796 -2.006865,0 -2.006865,6.5938776 -2.006865,6.5938776 z"
       id="path13722-6"
       sodipodi:nodetypes="cscccccccscc" />
    <path
       style="opacity:0.3;fill:#ffffff;fill-opacity:1;stroke:#ffffff;stroke-width:2.5;stroke-linecap:round;stroke-linejoin:round;stroke-dasharray:none;stroke-opacity:1;paint-order:stroke fill markers"
       id="path13872-3"
       d="m 81.503481,24.426472 c -0.01243,0.01507 -0.02745,0.02831 -0.0373,0.04521 -0.02106,0.03619 -0.03653,0.07538 -0.0548,0.113065 -0.02539,0.04498 -0.04938,0.09078 -0.07615,0.134922 -0.02938,0.04844 -0.0651,0.09298 -0.09224,0.142737 -0.01906,0.03492 -0.145894,0.320064 -0.160882,0.353522 -0.1826,0.459263 -0.369491,0.916158 -0.57139,1.367158 -0.240873,0.528169 -0.476419,1.058626 -0.717944,1.586546 -0.239379,0.511136 -0.414008,1.048553 -0.561473,1.592803 -0.15714,0.599102 -0.290746,1.203903 -0.395184,1.814527 -0.09293,0.616089 -0.141683,1.236691 -0.166294,1.85896 -0.01831,0.30214 -0.01455,0.604858 -0.01803,0.907327 -0.0019,0.161397 -0.01126,0.35378 -9.27e-4,0.516066 0.0051,0.08047 0.01783,0.160271 0.02674,0.240405 0.08046,0.500849 0.187434,0.99525 0.313221,1.486216 0.128775,0.465269 0.291392,0.920383 0.448067,1.376703 0.138865,0.400305 0.25559,0.806978 0.433013,1.192127 0.101558,0.247884 0.247656,0.472857 0.371864,0.708969 0.06304,0.119841 0.121815,0.248155 0.179493,0.370697 0.137406,0.316809 0.28123,0.630425 0.467454,0.921335 0.12719,0.217616 0.289546,0.412159 0.473725,0.58266 0.0449,0.04224 0.108416,0.1064 0.161665,0.138126 1.014604,0.604493 2.88082,-1.533853 3.013933,-1.616619 0.04087,-0.02541 0.02544,-0.09339 0.03665,-0.140467 0.01369,-0.05747 0.02534,-0.115421 0.03802,-0.173133 0.08258,-0.637604 0.184926,-1.271675 0.29774,-1.904466 0.105078,-0.626008 0.182694,-1.256795 0.290037,-1.882297 0.08201,-0.586071 0.277279,-1.143584 0.506475,-1.685429 0.443169,-0.90179 -0.184503,0.366652 0.268117,-0.519526 0.219225,-0.429216 0.05929,-0.159689 0.309761,-0.606574 0.137675,-0.245639 0.219361,-0.371205 0.366433,-0.607675 0.05691,-0.08431 0.101948,-0.178121 0.170703,-0.252909 0.05726,-0.0623 0.134836,-0.101849 0.202253,-0.152775 -0.824455,0.500842 -1.65912,0.984987 -2.473364,1.502525 -0.04966,0.03156 0.11306,-0.04239 0.171705,-0.03959 0.196995,0.0094 0.313357,0.108473 0.478018,0.205105 0.238148,0.162559 0.418778,0.390113 0.628232,0.584285 0.105674,0.09797 0.244,0.22153 0.394879,0.247162 0.07718,0.01311 0.156144,-0.011 0.234218,-0.0165 2.79514,-1.60775 2.339781,-0.840871 3.109112,-2.238679 0.02526,-0.0459 0.231957,-0.438749 0.269584,-0.49081 0.04447,-0.06154 0.104248,-0.110185 0.156372,-0.165281 0.05677,-0.03622 0.111004,-0.07682 0.170288,-0.10867 0.05458,-0.02933 0.22349,-0.106068 0.170263,-0.07432 -0.848409,0.506007 -1.707287,0.993998 -2.556978,1.497807 -0.04008,0.02376 0.08423,-0.03983 0.127397,-0.05723 0.159996,-0.06451 0.13743,-0.05023 0.319439,-0.08376 0.363838,-0.0067 0.711725,0.120077 1.054997,0.227207 0.108146,0.03803 0.219632,0.06177 0.331968,0.08244 0,0 2.644364,-1.894498 2.644364,-1.894498 v 0 c -0.117751,-0.0034 -0.235624,-0.0061 -0.352917,-0.01818 -0.382376,-0.06408 -0.761454,-0.146731 -1.131855,-0.263183 -0.164993,-0.02813 -0.355899,-0.06773 -0.51403,0.02053 -0.959668,0.535606 -1.913031,1.0828 -2.860865,1.639409 -0.05132,0.03014 -0.09318,0.07502 -0.13348,0.118997 -0.04365,0.04764 -0.07812,0.103051 -0.117179,0.154576 -0.159769,0.296153 -0.285919,0.618875 -0.498667,0.883017 -0.617827,0.767085 -2.606331,1.573791 2.269508,-1.184061 -0.08676,0.09168 -0.148061,0.202148 -0.298573,0.188202 -0.143387,-0.01329 -0.316562,-0.173623 -0.412709,-0.252482 -0.210439,-0.172597 -0.262767,-0.226077 -0.466228,-0.412955 -0.138722,-0.130585 -0.30278,-0.302038 -0.472065,-0.397644 -0.07756,-0.0438 -0.16879,-0.137644 -0.24844,-0.09782 -1.899938,0.949798 -2.461232,0.825711 -3.083485,2.069496 -0.104353,0.199479 -0.202088,0.390321 -0.313823,0.586295 -0.224218,0.393254 -0.489768,0.76592 -0.638462,1.198357 -0.214643,0.574153 -0.421852,1.156298 -0.503141,1.767438 -0.05837,0.61746 -0.122493,1.234437 -0.228616,1.845856 -0.08059,0.653883 -0.183677,1.323271 -0.510126,1.904849 -0.03823,0.04936 -0.0698,0.104787 -0.114676,0.148092 -0.03135,0.03026 -0.14842,0.09076 -0.110592,0.0693 0.913909,-0.518413 1.812899,-1.064169 2.738939,-1.560225 0.02949,-0.0158 0.0032,0.07079 -0.01319,0.100113 -0.02784,0.04974 -0.106833,-0.0026 -0.127129,-0.01114 -0.17902,-0.140656 -0.339126,-0.29609 -0.466691,-0.487287 -0.194589,-0.266088 -0.371783,-0.542436 -0.510022,-0.843268 -0.181867,-0.358272 -0.358988,-0.718805 -0.535066,-1.079984 -0.171026,-0.374061 -0.322224,-0.755883 -0.465074,-1.141795 -0.162966,-0.444094 -0.305919,-0.895452 -0.443205,-1.348219 -0.124909,-0.476251 -0.252979,-0.957638 -0.281133,-1.45139 -0.05412,-0.525458 -0.110869,-1.051221 -0.0645,-1.580376 0.03541,-0.609831 0.07052,-1.221882 0.18318,-1.823295 0.113685,-0.599031 0.239295,-1.197257 0.410902,-1.782451 0.180943,-0.534337 0.383605,-1.059916 0.613742,-1.574924 0.229864,-0.523789 0.44637,-1.053573 0.692883,-1.569866 0.22866,-0.471349 0.452549,-0.945118 0.688715,-1.412726 0.11879,-0.21709 0.253492,-0.425683 0.401426,-0.624074 0.03215,-0.04312 0.06898,-0.08265 0.09989,-0.126684 0.02871,-0.0409 0.05243,-0.08512 0.07864,-0.127682 0,0 -3.01514,1.391793 -3.01514,1.391793 z" />
    <path
       style="opacity:0.3;fill:#ffffff;fill-opacity:1;stroke:#ffffff;stroke-width:2.5;stroke-linecap:round;stroke-linejoin:round;stroke-dasharray:none;stroke-opacity:1;paint-order:stroke fill markers"
       id="path13874-1"
       d="m 103.08042,34.51365 c 0.8709,-0.506212 7.22946,-4.198459 0.3337,-0.20381 -0.0597,0.03457 0.1199,-0.06827 0.18086,-0.100559 0.15666,-0.08298 0.31409,-0.151968 0.48138,-0.209795 0.0392,-0.0074 0.0778,-0.02455 0.11768,-0.02216 0.2167,0.01299 0.38115,0.222539 0.55497,0.323898 0.0692,0.04035 0.14409,0.0701 0.21614,0.105152 0.38753,0.125436 0.74162,-0.03693 1.11754,-0.101633 0.2108,-0.03628 0.22849,-0.01901 0.43488,0.0068 0.30395,0.06397 0.58555,0.205818 0.90128,0.211943 0.17964,0.0035 0.28486,-0.0278 0.45772,-0.06329 1.6033,-0.511236 3.07819,-1.39998 4.39993,-2.436639 -0.26806,0.109329 0.75812,-0.506841 0.56078,-0.392328 -0.92078,0.534309 -1.8403,1.070816 -2.75609,1.613611 -0.0453,0.02682 0.0941,-0.04761 0.1437,-0.06523 0.0529,-0.01881 0.11386,-0.01612 0.16275,-0.04374 1.07886,-0.609806 2.14378,-1.243891 3.21566,-1.865839 0.0436,-0.104227 0.0891,-0.207706 0.13088,-0.312685 0.23449,-0.589089 0.0955,-0.282333 0.35941,-0.92059 0.20933,-0.506289 0.44126,-1.003103 0.6594,-1.505626 0.0406,-0.09776 0.28036,-0.686894 0.34662,-0.80418 0.0493,-0.08718 0.26581,-0.29107 0.17872,-0.241508 -0.96918,0.551511 -1.88611,1.190435 -2.84537,1.75897 -0.0211,0.01253 -0.0185,-0.08757 0.002,-0.07357 0.0482,0.03348 0.067,0.09637 0.1006,0.14455 0.25106,0.670141 0.33053,1.401667 0.31104,2.114588 -0.005,0.175325 -0.0225,0.350064 -0.0337,0.525098 -0.0968,1.157135 -0.46262,2.276191 -0.83432,3.370357 -0.31635,0.915574 -0.7819,1.765474 -1.21835,2.62638 -0.0496,0.104917 -0.0993,0.209837 -0.1489,0.314755 0,0 3.10655,-1.420339 3.10655,-1.420339 v 0 c 0.0405,-0.09763 0.081,-0.195256 0.1215,-0.292884 0.37518,-0.848144 0.74918,-1.697983 1.02853,-2.583792 0.36341,-1.131323 0.72681,-2.27417 0.83976,-3.462976 0.0127,-0.183941 0.0309,-0.367587 0.0382,-0.551826 0.0308,-0.783691 -0.0414,-1.567803 -0.17884,-2.338936 -0.0355,-0.113045 -0.0482,-0.236026 -0.1066,-0.339138 -0.76133,-1.343012 -2.98798,1.388313 -3.3435,1.626844 -0.0713,0.04783 -0.055,0.16249 -0.081,0.244213 -0.0357,0.112269 -0.067,0.225938 -0.10426,0.337729 -0.046,0.138157 -0.0969,0.274649 -0.14527,0.411973 -0.1943,0.49806 -0.39153,0.995279 -0.62575,1.476449 -0.13929,0.286144 -0.34035,0.682622 -0.54392,0.937238 -0.0791,0.09896 -0.18214,0.176256 -0.27321,0.264386 0.95621,-0.52994 1.92202,-1.042991 2.86865,-1.589819 0.0533,-0.03076 -0.12031,0.02581 -0.18077,0.03714 -0.0727,0.01363 -0.15389,0.0022 -0.21872,0.03776 -1.39555,0.76645 -2.53705,1.304795 -3.68125,2.208832 -1.14318,0.789837 -0.42627,0.281124 2.33475,-1.288834 0.0706,-0.04015 -0.13747,0.08792 -0.21218,0.119811 -0.0651,0.0278 -0.13688,0.03652 -0.20435,0.05803 -0.17413,0.05552 -0.22498,0.08166 -0.39322,0.152947 -0.17718,0.07759 -0.40635,0.179374 -0.60389,0.184014 -0.23452,0.0055 -0.44436,-0.127163 -0.66464,-0.183139 -0.16218,-0.04057 -0.36528,-0.101613 -0.53424,-0.100465 -0.33369,0.0022 -0.62301,0.20761 -0.95308,0.238192 -0.0525,-0.01707 -0.10819,-0.02659 -0.15765,-0.05119 -0.27419,-0.136392 -0.50218,-0.462972 -0.82227,-0.541759 -0.0629,0.0043 -0.12684,0.001 -0.18884,0.01272 -0.18652,0.03497 -0.40014,0.127267 -0.56436,0.220864 -1.07248,0.611274 -7.160782,4.130071 -0.25372,0.140254 0,0 -2.833,2.28279 -2.833,2.28279 z" />
    <path
       style="opacity:0.3;fill:#ffffff;fill-opacity:1;stroke:#ffffff;stroke-width:2.5;stroke-linecap:round;stroke-linejoin:round;stroke-dasharray:none;stroke-opacity:1;paint-order:stroke fill markers"
       id="path13939-4"
       d="m 93.271041,15.39576 c -0.03792,0.0035 -0.07723,-3.18e-4 -0.113755,0.01047 -0.06546,0.01931 -0.381383,0.163926 -0.428596,0.184572 -0.266848,0.116688 -0.536728,0.225291 -0.807407,0.332688 -0.385623,0.158053 -0.788403,0.271661 -1.172618,0.433246 -0.06933,0.02916 -0.137144,0.06181 -0.205719,0.09272 -1.210616,0.611087 -0.242495,0.117735 -3.15834,1.80486 -0.235497,0.13626 -0.460023,0.291614 -0.68479,0.444552 0,0 3.234192,-1.277501 3.234192,-1.277501 v 0 c 0.111487,-0.08534 0.224345,-0.167265 0.342072,-0.243936 0.04856,-0.03163 0.197281,-0.121663 0.146936,-0.09295 -2.13142,1.215691 -3.479966,2.010182 -2.385399,1.366107 0.464434,-0.246774 0.943235,-0.469292 1.445088,-0.629509 0.139735,-0.03758 0.252648,-0.07045 0.39288,-0.09941 0.04503,-0.0093 0.09023,-0.01874 0.135999,-0.02314 0.04997,-0.0048 0.105534,-0.0015 0.09035,0.02209 -0.0037,0.0058 -0.01249,-0.0058 -0.01873,-0.0088 0,0 3.187843,-2.316103 3.187843,-2.316103 z" />
    <path
       id="path13722-5-4"
       style="opacity:0.5;fill:#000000;fill-opacity:1;stroke:#000000;stroke-width:0.264582px;stroke-linecap:round;stroke-linejoin:round;stroke-opacity:1"
       d="m 98.902257,11.815445 c -0.008,-0.403346 -0.848004,-0.663454 -1.250999,-0.682076 -0.03824,-1.04e-4 -0.06864,0.482375 -0.106881,0.482479 0.05761,1.145767 0.05055,1.612483 0.05055,1.612483 v 3.001368 h -0.802535 l 1.495516,2.987931 1.441773,-2.987931 h -0.802535 v -3.157947 z"
       sodipodi:nodetypes="scccccccccs" />
    <path
       id="path18382-8"
       style="opacity:0.5;fill:#000000;fill-opacity:1;stroke:#000000;stroke-width:0.264582px;stroke-linecap:round;stroke-linejoin:round;stroke-opacity:1"
       d="m 96.857437,5.4063883 c -2.006863,0 -2.007113,6.0621627 -2.007113,6.0621627 l 1.193209,-0.134876 c 0,0 1.7e-5,-3.8834843 0.813904,-3.8834843 0.567721,0 0.790626,2.224702 0.879016,3.9827033 a 21.137547,21.137547 0 0 1 0.114722,0 21.137547,21.137547 0 0 1 1.206644,0.09043 C 98.9054,9.1703607 98.417721,5.4063883 96.857437,5.4063883 Z" />
    <path
       style="fill:none;stroke:#000000;stroke-width:2;stroke-linecap:butt;stroke-linejoin:miter;stroke-dasharray:none;stroke-opacity:1;marker-end:url(#TriangleStart)"
       d="M 62.723004,32.555429 H 71.19118"
       id="path20752"
       sodipodi:nodetypes="cc" />
  </g>
</svg>
