<?xml version="1.0" encoding="UTF-8" standalone="no"?>
<!-- Created with Inkscape (http://www.inkscape.org/) -->

<svg
   width="264.63077mm"
   height="54.097195mm"
   viewBox="0 0 264.63077 54.097195"
   version="1.1"
   id="svg5"
   inkscape:version="1.2 (dc2aedaf03, 2022-05-15)"
   xmlns:inkscape="http://www.inkscape.org/namespaces/inkscape"
   xmlns:sodipodi="http://sodipodi.sourceforge.net/DTD/sodipodi-0.dtd"
   xmlns="http://www.w3.org/2000/svg"
   xmlns:svg="http://www.w3.org/2000/svg">
  <sodipodi:namedview
     id="namedview7"
     pagecolor="#ffffff"
     bordercolor="#666666"
     borderopacity="1.0"
     inkscape:showpageshadow="2"
     inkscape:pageopacity="0.0"
     inkscape:pagecheckerboard="0"
     inkscape:deskcolor="#d1d1d1"
     inkscape:document-units="mm"
     showgrid="false"
     inkscape:zoom="0.74564394"
     inkscape:cx="580.03556"
     inkscape:cy="288.34138"
     inkscape:window-width="1920"
     inkscape:window-height="1017"
     inkscape:window-x="1912"
     inkscape:window-y="-8"
     inkscape:window-maximized="1"
     inkscape:current-layer="layer1" />
  <defs
     id="defs2" />
  <g
     inkscape:label="Calque 1"
     inkscape:groupmode="layer"
     id="layer1"
     transform="translate(-3.898553,-2.6362844)">
    <path
       sodipodi:type="star"
       style="fill:#ffff00;fill-opacity:1;fill-rule:evenodd;stroke:#000000;stroke-width:1.5;stroke-linejoin:round;stroke-opacity:1"
       id="path1423"
       inkscape:flatsided="false"
       sodipodi:sides="5"
       sodipodi:cx="18.441799"
       sodipodi:cy="17.939983"
       sodipodi:r1="28.353809"
       sodipodi:r2="12.606237"
       sodipodi:arg1="-1.5707963"
       sodipodi:arg2="-0.9424778"
       inkscape:rounded="0"
       inkscape:randomized="0"
       d="M 18.4418,-10.413826 25.85156,7.741323 45.407875,9.1781751 30.431043,21.835525 35.10775,40.878697 18.441799,30.546221 1.7758476,40.878697 6.4525549,21.835525 -8.5242758,9.1781737 11.032039,7.7413231 Z"
       inkscape:transform-center-y="-2.7075482"
       transform="translate(13.172715,13.799987)" />
    <path
       sodipodi:type="star"
       style="fill:#ffff00;fill-opacity:1;fill-rule:evenodd;stroke:#000000;stroke-width:1.5;stroke-linejoin:round;stroke-opacity:1"
       id="path1425"
       inkscape:flatsided="true"
       sodipodi:sides="6"
       sodipodi:cx="79.036293"
       sodipodi:cy="25.216339"
       sodipodi:r1="23.640421"
       sodipodi:r2="20.473206"
       sodipodi:arg1="1.0471976"
       sodipodi:arg2="1.5707963"
       inkscape:rounded="0"
       inkscape:randomized="0"
       d="m 90.856502,45.689545 -23.64042,-1e-6 -11.82021,-20.473206 11.820212,-20.4732045 23.64042,1.1e-6 11.820206,20.4732054 z"
       transform="matrix(1.0617232,0,0,1.0617232,3.1507137,3.0299627)" />
    <path
       sodipodi:type="star"
       style="fill:#ffff00;fill-opacity:1;fill-rule:evenodd;stroke:#000000;stroke-width:1.5;stroke-linejoin:round;stroke-opacity:1"
       id="path2155"
       inkscape:flatsided="false"
       sodipodi:sides="4"
       sodipodi:cx="124.19355"
       sodipodi:cy="21.112904"
       sodipodi:r1="13.223413"
       sodipodi:r2="21.945309"
       sodipodi:arg1="-1.5028538"
       sodipodi:arg2="1.6445804"
       inkscape:rounded="0"
       inkscape:randomized="0"
       d="m 125.09129,7.9199993 -2.51549,35.0785037 14.81065,-20.987858 -35.0785,-2.515487 20.98786,14.81065 2.51549,-35.07850407 -14.81065,20.98785907 35.0785,2.515486 z"
       inkscape:transform-center-x="1.3114095"
       inkscape:transform-center-y="-2.2429316"
       transform="matrix(1.1058148,0,0,1.1058148,3.8020341,7.4352972)" />
    <path
       sodipodi:type="star"
       style="fill:#ffff00;fill-opacity:1;fill-rule:evenodd;stroke:#000000;stroke-width:1.5;stroke-linejoin:round;stroke-opacity:1"
       id="path5071"
       inkscape:flatsided="false"
       sodipodi:sides="10"
       sodipodi:cx="221.59677"
       sodipodi:cy="28.919353"
       sodipodi:r1="25.487328"
       sodipodi:r2="11.214424"
       sodipodi:arg1="1.0697829"
       sodipodi:arg2="1.3839422"
       inkscape:rounded="0.2"
       inkscape:randomized="0.1"
       d="m 232.89231,49.3511 c -2.57195,1.714888 -8.51318,-12.095156 -11.26074,-11.174815 -2.74756,0.920342 -0.66172,18.142644 -3.83143,18.162023 -3.16971,0.01938 1.34276,-17.200174 -1.61639,-18.360545 -2.95916,-1.160371 -8.23549,10.807097 -10.18381,8.432173 -1.94833,-2.374924 6.85474,-6.88271 5.66184,-9.664197 -1.1929,-2.781487 -14.38755,-2.244553 -14.59454,-5.250849 -0.20699,-3.006296 13.02152,-1.220346 13.25891,-4.209538 0.23739,-2.989192 -12.67318,-4.312275 -11.76471,-7.091363 0.90846,-2.779088 15.25331,3.272618 17.15222,0.977721 1.89892,-2.294896 -6.49901,-13.8872581 -4.00845,-15.7922047 2.49055,-1.9049467 4.14687,15.0159157 7.19869,14.4403787 3.05183,-0.575536 4.98992,-14.6609096 8.16819,-14.5417349 3.17827,0.1191747 -1.64146,10.4235569 1.34685,11.3506389 2.9883,0.927082 8.97717,-9.8148483 11.30325,-7.7513467 2.32608,2.0635017 -8.53437,12.0845767 -6.78121,14.6452517 1.75316,2.560676 14.00286,-3.341401 14.59446,-0.411032 0.5916,2.930369 -12.35949,5.640244 -12.90017,8.510652 -0.54069,2.870408 12.48658,5.00446 11.40597,7.887714 -1.0806,2.883255 -14.85567,-2.571085 -17.15214,-0.413305 -2.29647,2.157781 6.57516,8.539491 4.00321,10.254378 z"
       inkscape:transform-center-x="5.4938696"
       inkscape:transform-center-y="0.25988435"
       transform="translate(20.225806,-0.35483871)" />
    <path
       sodipodi:type="star"
       style="fill:#ffff00;fill-opacity:1;fill-rule:evenodd;stroke:#000000;stroke-width:5.66929;stroke-linejoin:round;stroke-dasharray:none;stroke-opacity:1"
       id="path7262"
       inkscape:flatsided="true"
       sodipodi:sides="3"
       sodipodi:cx="634.35101"
       sodipodi:cy="81.137924"
       sodipodi:r1="92.454826"
       sodipodi:r2="46.227409"
       sodipodi:arg1="0.96066454"
       sodipodi:arg2="2.0078621"
       inkscape:rounded="0.25"
       inkscape:randomized="0"
       d="M 687.32536,156.91136 C 654.5145,179.84992 545.70207,129.01266 542.24212,89.128338 538.78217,49.244017 637.21475,-19.571679 673.48556,-2.6259241 709.75637,14.319831 720.13622,133.97279 687.32536,156.91136 Z"
       transform="matrix(0.26458333,0,0,0.26458333,25.543714,8.1362844)"
       inkscape:transform-center-x="2.5734693"
       inkscape:transform-center-y="-0.64891808" />
  </g>
</svg>
