<?xml version="1.0" encoding="UTF-8" standalone="no"?>
<!-- Created with Inkscape (http://www.inkscape.org/) -->

<svg
   width="142.40395mm"
   height="47.93515mm"
   viewBox="0 0 142.40395 47.93515"
   version="1.1"
   id="svg21459"
   xmlns="http://www.w3.org/2000/svg"
   xmlns:svg="http://www.w3.org/2000/svg">
  <defs
     id="defs21456">
    <marker
       style="overflow:visible"
       id="marker24122"
       refX="0"
       refY="0"
       orient="auto-start-reverse"
       markerWidth="4"
       markerHeight="2.4000001"
       viewBox="0 0 7.7 5.6"
       preserveAspectRatio="xMidYMid">
      <path
         transform="scale(0.7)"
         d="M -2,-4 9,0 -2,4 c 2,-2.33 2,-5.66 0,-8 z"
         style="fill:context-stroke;fill-rule:evenodd;stroke:none"
         id="path24120" />
    </marker>
  </defs>
  <g
     id="layer1"
     transform="translate(-10.275921,-7.7615112)">
    <path
       id="path22358-8"
       style="fill:#ffff00;fill-opacity:1;stroke:#000000;stroke-width:1"
       d="M 122.84579 17.001774 A 29.33445 14.727091 0 0 0 114.70366 17.584167 L 114.70366 45.873914 A 29.33445 14.727091 0 0 0 122.84579 46.456307 A 29.33445 14.727091 0 0 0 130.98742 45.873914 L 130.98742 17.581584 A 29.33445 14.727091 0 0 0 122.84579 17.001774 z " />
    <ellipse
       style="fill:#ffff00;fill-opacity:1;stroke:#000000;stroke-width:1"
       id="path22358"
       cx="40.110371"
       cy="31.729071"
       rx="29.33445"
       ry="14.727091" />
    <rect
       style="fill:#00ff00;fill-opacity:1;stroke:#000000;stroke-width:1;stroke-opacity:1"
       id="rect22412"
       width="16.283613"
       height="46.93512"
       x="31.968563"
       y="8.2615414" />
    <path
       style="fill:none;stroke:#000000;stroke-width:1.5;stroke-linecap:butt;stroke-linejoin:miter;stroke-dasharray:none;stroke-opacity:1;marker-end:url(#marker24122)"
       d="M 72.34121,31.729071 H 86.564699"
       id="path23900" />
    <text
       xml:space="preserve"
       style="font-size:6.35px;line-height:1;font-family:sans-serif;-inkscape-font-specification:'sans-serif, Normal';font-variant-ligatures:none;stroke-width:0.264583"
       x="62.548878"
       y="18.647337"
       id="text24210"><tspan
         id="tspan24208"
         style="font-size:6.35px;stroke-width:0.264583"
         x="62.548878"
         y="18.647337">Intersection</tspan></text>
  </g>
</svg>
