<?xml version="1.0" encoding="UTF-8" standalone="no"?>
<!-- Created with Inkscape (http://www.inkscape.org/) -->

<svg
   width="112.14983mm"
   height="47.561615mm"
   viewBox="0 0 112.14983 47.561615"
   version="1.1"
   id="svg5"
   inkscape:version="1.2 (dc2aedaf03, 2022-05-15)"
   sodipodi:docname="4-path-unops.svg"
   xmlns:inkscape="http://www.inkscape.org/namespaces/inkscape"
   xmlns:sodipodi="http://sodipodi.sourceforge.net/DTD/sodipodi-0.dtd"
   xmlns="http://www.w3.org/2000/svg"
   xmlns:svg="http://www.w3.org/2000/svg">
  <sodipodi:namedview
     id="namedview7"
     pagecolor="#ffffff"
     bordercolor="#666666"
     borderopacity="1.0"
     inkscape:showpageshadow="2"
     inkscape:pageopacity="0.0"
     inkscape:pagecheckerboard="0"
     inkscape:deskcolor="#d1d1d1"
     inkscape:document-units="mm"
     showgrid="false"
     inkscape:zoom="1.4912879"
     inkscape:cx="208.87986"
     inkscape:cy="44.92761"
     inkscape:window-width="1920"
     inkscape:window-height="1017"
     inkscape:window-x="1912"
     inkscape:window-y="-8"
     inkscape:window-maximized="1"
     inkscape:current-layer="layer1" />
  <defs
     id="defs2">
    <filter
       id="selectable_hidder_filter"
       width="1"
       height="1"
       x="0"
       y="0"
       style="color-interpolation-filters:sRGB"
       inkscape:label="LPE boolean visibility">
      <feComposite
         id="boolops_hidder_primitive"
         result="composite1"
         operator="arithmetic"
         in2="SourceGraphic"
         in="BackgroundImage"
         k1="0"
         k2="0"
         k3="0"
         k4="0" />
    </filter>
    <inkscape:path-effect
       effect="bool_op"
       operand-path=""
       id="path-effect16611"
       is_visible="true"
       lpeversion="1"
       operation="cut-both"
       swap-operands="false"
       filltype-this="from-curve"
       filter=""
       filltype-operand="from-curve" />
  </defs>
  <g
     inkscape:label="Calque 1"
     inkscape:groupmode="layer"
     id="layer1"
     transform="translate(-12.836057,-22.077286)">
    <path
       id="path11718"
       style="fill:#ff0000;fill-opacity:1;stroke:none;stroke-width:1;stroke-dasharray:none;stroke-opacity:1"
       d="m 47.262551,31.044758 c 1.95233,-0.17531 3.91687,-0.170224 5.87556,-0.172207 1.52072,0.0076 0.77597,9e-4 2.23425,0.01931 0,0 2.74792,-1.996481 2.74792,-1.996481 v 0 c -1.5008,0.01831 -0.73833,0.01169 -2.28741,0.01932 -1.7999,-0.0018 -3.61002,0.02006 -5.40152,-0.172207 0,0 -3.1688,2.302266 -3.1688,2.302265 z m 1.50931,-5.988948 c -0.009,2.031924 -0.38921,4.04602 -0.7537,6.038769 -0.3498,1.893474 -0.87938,3.74841 -1.1502,5.656079 -0.11119,0.790921 -0.23772,1.609209 0.12785,2.359637 0.21451,0.440353 0.39001,0.563919 0.72706,0.908908 0.81479,0.711509 1.8145,1.087807 2.87269,1.256833 0.24451,0.03906 0.49167,0.05908 0.73751,0.08862 0.86948,0.09328 1.76227,0.145643 2.60584,-0.132924 0.15614,-0.05156 0.30274,-0.128464 0.45411,-0.192696 0,0 2.90304,-2.324801 2.90304,-2.324801 v 0 c -0.14998,0.08854 -0.29268,0.190755 -0.44994,0.265616 -0.80659,0.383985 -1.70415,0.397119 -2.57563,0.304297 -1.24515,-0.152203 -2.41211,-0.349638 -3.39703,-1.19407 -0.31287,-0.309328 -0.43326,-0.374415 -0.62651,-0.774076 -0.32599,-0.674158 -0.20774,-1.442169 -0.15131,-2.157344 0.22066,-1.846233 0.55752,-3.6745 0.88206,-5.50477 0.22929,-1.237002 0.45744,-2.474217 0.69544,-3.709582 0.0661,-0.34309 0.29752,-1.558209 0.39797,-1.947561 0.0531,-0.205971 0.12959,-0.405215 0.19438,-0.607823 0,0 -3.49363,1.66689 -3.49363,1.66689 z m -5.18264,7.20185 c -0.81984,0.03758 -1.63864,0.07279 -2.45477,0.163169 -0.2406,0.0376 -0.41562,0.05473 -0.64721,0.130054 -0.10222,0.03325 -0.20605,0.06682 -0.29896,0.120875 -1.17641,0.684394 -2.36034,1.357908 -3.50597,2.092685 -0.29216,0.187386 -0.13008,0.44226 -0.0749,0.693075 0.11723,0.134694 0.2187,0.284929 0.35169,0.404082 0.27302,0.244599 0.79159,0.538713 1.10381,0.703742 0.66181,0.349805 1.3617,0.621539 2.04908,0.915431 0.8586,0.4452 1.83255,0.739774 2.59058,1.357409 0.0799,0.08406 0.37042,0.42227 0.28644,0.566348 -0.0344,0.05902 -0.2436,0.12296 -0.18573,0.08665 2.89608,-1.816961 3.91238,-2.182411 2.23655,-1.512779 -1.44882,0.387116 -2.95823,0.465734 -4.45118,0.489105 -0.18384,-0.0068 -0.36768,-0.01369 -0.55152,-0.02054 0,0 -2.98472,2.154464 -2.98472,2.154464 v 0 c 0.19969,0.005 0.39939,0.01002 0.59908,0.01503 1.50355,-0.07501 3.00917,-0.148875 4.49601,-0.403057 1.86126,-0.380057 1.0679,-0.150759 4.18291,-2.29506 0.0966,-0.06648 0.0657,-0.229253 0.0609,-0.346396 -0.0124,-0.306887 -0.25445,-0.566814 -0.4556,-0.766399 -0.0952,-0.07397 -0.18369,-0.157604 -0.28569,-0.22191 -0.21695,-0.136768 -0.55765,-0.268678 -0.78818,-0.362546 -0.59009,-0.24028 -1.18774,-0.462447 -1.76719,-0.72834 -0.97576,-0.417629 -2.13802,-0.802966 -2.9043,-1.569517 -0.0711,-0.07115 -0.12111,-0.16069 -0.18167,-0.241035 0.0122,-0.0526 0.006,-0.113277 0.0366,-0.157817 0.051,-0.07432 0.27707,-0.227222 0.19789,-0.184207 -1.02335,0.555878 -2.02106,1.157793 -3.0373,1.726561 -0.0909,0.0509 0.16847,-0.124085 0.26072,-0.17257 0.22666,-0.119118 0.3911,-0.144416 0.63925,-0.207528 0.76584,-0.130799 1.54479,-0.218207 2.3212,-0.131606 0,0 3.16207,-2.297378 3.16207,-2.297378 z m -19.835479,6.162028 c 1.851224,-0.177238 3.728999,-0.09412 5.559169,-0.474448 0.37098,-0.07709 0.7329,-0.192692 1.09936,-0.289037 2.0865,-0.849448 1.5604,-0.582832 4.72189,-2.592124 0.25395,-0.161399 0.45219,-0.397937 0.66267,-0.612967 0.35315,-0.360782 0.65772,-0.679874 0.78508,-1.182526 0.0457,-0.180346 0.0125,-0.37188 0.0188,-0.55782 -0.0933,-0.163266 -0.14514,-0.358761 -0.28004,-0.489797 -0.28905,-0.280762 -0.90112,-0.4917 -1.26979,-0.598198 -0.72934,-0.210689 -1.46442,-0.261336 -2.21742,-0.300927 -0.88562,0.04004 -1.78817,0.21196 -2.57637,0.64147 -1.45172,0.791079 -3.2126,1.561604 -4.47862,2.767516 -0.208995,0.199071 -0.392195,0.423577 -0.588282,0.635365 -0.52145,0.69364 -1.013209,1.4265 -1.213809,2.282145 -0.0398,0.169828 -0.0839,0.340916 -0.0919,0.515165 -0.009,0.187438 0.0283,0.374207 0.0424,0.561311 0.174878,0.828474 0.613669,1.529983 1.404609,1.897792 0.554932,0.258055 1.066582,0.315968 1.663102,0.431507 1.17134,0.167422 2.35886,0.30839 3.54245,0.188538 0.73991,-0.07492 0.95035,-0.146484 1.66177,-0.311049 0.60844,-0.168844 1.21998,-0.35179 1.7686,-0.67336 3.62558,-2.125083 2.57069,-1.290644 4.0969,-2.555999 0,0 -3.4021,1.364451 -3.4021,1.364451 v 0 c -1.31242,1.003693 -0.49655,0.344195 2.16877,-1.120435 0.17227,-0.09467 -0.32891,0.216507 -0.50295,0.307898 -0.48183,0.253029 -0.79399,0.339641 -1.31497,0.52282 -0.26539,0.07472 -0.52733,0.163002 -0.79617,0.224161 -1.42886,0.325055 -2.89836,0.268249 -4.3371,0.04366 -1.02607,-0.218165 -2.14063,-0.404608 -2.54305,-1.524761 -0.0567,-0.157683 -0.0744,-0.326746 -0.11155,-0.490119 0.002,-0.163646 -0.0121,-0.3283 0.006,-0.490939 0.10646,-0.949025 0.65084,-1.799881 1.22099,-2.53255 0.19124,-0.193216 0.36895,-0.400839 0.57372,-0.579649 0.59796,-0.522152 3.21177,-2.208734 -1.50745,0.703729 -0.25511,0.157444 0.5351,-0.273028 0.81519,-0.379907 0.72566,-0.276904 0.84136,-0.244573 1.58762,-0.32976 0.72268,0.01622 1.42317,0.04491 2.1261,0.234817 0.26814,0.07244 0.79608,0.241982 1.03023,0.444039 0.0874,0.07542 0.12451,0.194437 0.18677,0.291656 -0.008,0.131872 0.0136,0.269266 -0.0251,0.395614 -0.11968,0.390931 -0.41877,0.718056 -0.70194,0.992014 -0.19932,0.192836 -0.88873,0.647321 -0.63307,0.539853 0.42279,-0.177721 3.7616,-2.031712 1.17506,-0.715742 -0.36738,0.112425 -0.72871,0.246995 -1.10216,0.337273 -1.67135,0.404033 -3.42868,0.420314 -5.12872,0.230817 0,0 -3.094811,2.248503 -3.094811,2.248503 z m -10.917685,-8.38834 c 4.098136,-0.438186 8.228609,-0.412477 12.343722,-0.333476 2.253802,0.07902 1.191512,0.03589 3.187022,0.12558 0,0 2.5696,-1.866923 2.5696,-1.866923 v 0 c -2.22627,0.08904 -1.04874,0.04615 -3.53271,0.12558 -3.806149,0.0694 -7.642906,0.162904 -11.425738,-0.333477 0,0 -3.141896,2.282716 -3.141896,2.282716 z m 6.907068,-0.426074 c 0.0325,0.185151 0.0739,0.368964 0.0975,0.555454 0.091,0.717454 0.13274,1.495864 0.14909,2.212089 0.0248,1.086911 0.008,2.44734 -0.0533,3.517893 -0.0383,0.675979 -0.10805,1.349816 -0.16207,2.024723 -0.27029,2.5833 -0.12151,1.328351 -0.44091,3.765484 0,0 2.710741,-1.347496 2.710741,-1.347496 v 0 c 0.15909,-2.37824 0.0632,-1.146418 0.29401,-3.69498 0.106824,-1.038549 0.309174,-2.98299 0.408274,-4.034545 0.12881,-1.366888 0.20614,-2.74242 0.359382,-4.106902 0.0246,-0.219306 0.065,-0.436555 0.0975,-0.654832 0,0 -3.460307,1.763112 -3.460307,1.763112 z" />
    <path
       id="path11718-7"
       style="fill:#ff0000;fill-opacity:1;stroke:none;stroke-width:1;stroke-dasharray:none;stroke-opacity:1"
       d="m 49.256994,53.441153 c -0.11332,3.882026 -1.27056,7.673359 -1.90235,11.441407 -0.21041,1.004015 -0.18891,2.221122 0.76364,2.853485 1.40603,1.136461 3.34445,1.283217 5.08012,1.169952 0.72724,-0.0481 1.2526,-0.564583 1.7871,-0.998047 -1.89001,-0.07784 -4.13894,-0.462612 -5.20153,-2.218388 -0.66323,-1.39806 -0.12564,-2.983528 0.0137,-4.43959 0.1419,-0.949189 0.31844,-1.892416 0.48278,-2.838115 1.62879,-0.03071 3.25787,-0.01909 4.88672,-0.002 0.23432,-0.277661 1.60386,-0.930431 0.96954,-0.921067 -1.89053,0.01306 -3.78335,0.0082 -5.66876,-0.145339 0.31931,-1.643088 0.60075,-3.294061 0.94531,-4.93164 -0.71875,0.343099 -1.4375,0.686198 -2.15624,1.029296 z m -34.603516,3.945313 c 1.831599,-0.139717 3.66892,-0.198854 5.505859,-0.208984 0.54105,3.01325 0.34898,6.108537 0.0725,9.140192 -0.0897,0.832106 -0.16013,1.666285 -0.28152,2.494573 0.48704,-0.31122 1.21038,-0.464662 1.55751,-0.869305 0.23104,-3.596035 0.71161,-7.170466 0.96007,-10.76546 1.90127,0.0181 3.802197,0.05944 5.701167,0.158203 0.37375,-0.320502 1.54966,-0.917867 0.41797,-0.718773 -4.175907,0.113096 -8.345097,0.237237 -12.501947,-0.271462 -0.47721,0.347006 -0.95443,0.694011 -1.43164,1.041016 z m 17.558596,2.564453 c -0.97776,0.08038 -1.84209,0.56153 -2.6836,1.023438 1.31861,-0.0555 2.80203,0.01098 3.90235,0.818359 0.4958,0.462531 0.38249,1.251327 0.002,1.753906 0.97488,-0.621328 2.12823,-1.219296 2.59375,-2.341797 0.14216,-0.825807 -0.95219,-0.93508 -1.52577,-1.110548 -0.78563,-0.145851 -1.48063,-0.241071 -2.28869,-0.143358 z m 9.54882,0.988281 c -1.22833,-0.06759 -2.17821,0.765477 -3.19324,1.316957 0.44831,-0.03804 -0.0499,0.485121 -0.53666,0.908005 -0.492,0.342749 -0.8908,0.490891 -0.10617,0.784351 1.76763,0.946123 3.69208,1.574987 5.41225,2.619594 0.5436,-0.653438 0.59475,0.49305 0.27249,0.436826 -0.11105,0.541704 0.82051,-0.473874 1.15347,-0.608286 0.33038,-0.273799 0.79986,-0.487217 1.05255,-0.787525 -0.56521,-0.89914 -1.77175,-0.953988 -2.63768,-1.442787 -1.1797,-0.496808 -2.41158,-0.932005 -3.40529,-1.76815 0.64892,-0.480322 1.41076,-1.005351 1.98828,-1.458985 z m -14.13867,1.085938 c -1.5378,0.925574 -2.942987,2.378538 -3.244137,4.207031 -0.0638,1.174494 0.91883,2.153296 2.065627,2.234598 2.31947,0.479829 4.83267,0.535563 7.0125,-0.511942 0.16672,0.228832 0.93925,-0.624752 0.49938,-0.546464 -0.89827,-0.204476 -0.3876,0.438493 -1.11502,0.36682 -1.71893,0.06038 -3.56341,-0.0023 -5.10702,-0.837934 -0.4553,-0.294094 -0.74862,-0.764125 -1.11523,-1.152344 1.73992,-0.09428 3.48884,-0.387603 5.05078,-1.197265 -1.65038,0.345521 -3.3557,0.334701 -5.02539,0.146484 0.0831,-1.070138 0.60836,-2.043892 1.25976,-2.875 -0.0937,0.05534 -0.1875,0.110677 -0.28125,0.166016 z m 7.57813,1.955078 c 0.23184,1.009087 0.87502,0.204377 0.83326,-0.151979 -0.27775,0.05066 -0.55551,0.101319 -0.83326,0.151979 z m 6.86523,3.013672 c -0.65534,0.06374 -1.35776,-0.01003 -1.98145,0.09567 -0.45738,0.329825 -0.91454,0.661793 -1.37206,0.990271 0.97686,-0.06221 1.89163,-0.130523 2.875,-0.271484 0.25841,-0.258269 1.02312,-0.740171 1.01343,-0.844079 -0.17831,0.0099 -0.35661,0.01975 -0.53492,0.02963 z" />
    <path
       id="path11718-5"
       style="fill:#ff0000;fill-opacity:1;stroke:none;stroke-width:1;stroke-dasharray:none;stroke-opacity:1"
       d="m 112.951,59.002741 c 2.85822,-0.364466 5.78024,0.08989 8.61687,-0.359396 1.30948,-0.255455 1.60309,-2.520337 -0.13108,-1.754404 -1.99854,0.199995 -4.31913,-0.619249 -6.10269,0.382387 -0.79437,0.577137 -1.58873,1.154283 -2.3831,1.731413 z m 1.50931,-5.988948 c 0.012,4.489929 -1.72824,8.745185 -2.00102,13.204522 0.48283,2.213968 2.9724,3.179215 5.02419,3.160723 1.76131,0.50146 4.29571,-1.292826 4.58782,-2.321517 -2.15874,0.611057 -5.08591,0.126936 -6.12939,-2.076984 -0.6545,-2.386756 0.54316,-4.733468 0.66827,-7.109111 -0.0383,-1.996636 1.70344,-4.501682 0.58523,-6.160854 -1.04893,0.02059 -1.70474,1.21414 -2.7351,1.303221 z m -5.18264,7.20185 c -2.38772,-0.220691 -4.64049,0.904252 -6.56492,2.202767 -0.60256,2.472727 2.83832,2.363283 4.03213,3.760611 0.72533,0.840014 3.67245,0.811889 3.16614,0.05211 -1.96308,0.211555 -4.33757,-0.166981 -5.89132,1.30748 -1.14126,1.628448 1.79114,0.808288 2.62601,0.826677 1.69253,-0.273753 3.67212,-0.625875 4.76981,-2.06652 0.90227,-2.323833 -2.20956,-2.513694 -3.54986,-3.308208 -1.09756,-0.635608 -2.84583,-1.804634 -3.79928,-0.365594 2.06062,0.301305 3.69668,-1.279729 5.21129,-2.409323 z m -19.835475,6.162028 c 3.44447,-0.07918 7.15607,-0.327839 10.02957,-2.446409 1.734115,-0.318362 3.617945,-3.142457 1.522025,-4.217305 -2.643735,-1.144963 -5.508715,0.266342 -7.765595,1.658843 -1.67576,1.19308 -3.73374,2.754466 -3.5686,5.052885 0.14472,2.240726 2.72574,2.711218 4.52158,2.841593 2.79256,0.1301 5.64884,-0.755354 7.888775,-2.413559 1.15801,-1.347098 -2.077415,0.329189 -2.776135,0.196647 -1.96919,0.327851 -4.33234,0.293253 -5.88277,-1.130822 -1.15029,-1.765162 0.30418,-4.018098 1.88814,-4.973681 -0.84169,-0.377882 -1.48013,1.385479 -0.3999,0.503598 1.49391,-0.840567 4.35722,0.43667 3.48397,2.373254 0.8715,-0.637247 -1.39066,0.443487 -1.82611,0.302166 -2.04286,0.244327 -4.49769,-0.41827 -5.98402,1.431138 -0.37698,0.273888 -0.75395,0.547776 -1.13093,0.821652 z m -10.91767,-8.38834 c 5.15966,-0.522858 10.35693,-0.431885 15.53073,-0.207896 0.85653,-0.622308 1.71307,-1.244615 2.5696,-1.866923 -4.98308,0.168676 -9.9947,0.402998 -14.95845,-0.207897 -1.04729,0.760905 -2.09459,1.521811 -3.14188,2.282716 z m 6.90705,-0.426074 c 0.57844,4.01586 0.10566,8.080618 -0.40962,12.075643 0.90358,-0.449165 1.80716,-0.898331 2.71074,-1.347496 0.26259,-4.119807 0.81627,-8.214728 1.08428,-12.334104 -1.21896,0.327221 -2.23516,1.118538 -3.3854,1.605957 z" />
    <path
       id="path11718-9"
       style="fill:#ff0000;fill-opacity:1;stroke:none;stroke-width:1;stroke-dasharray:none;stroke-opacity:1"
       d="m 117.25542,22.959726 c -1.26228,0.60305 -2.52533,1.204502 -3.78711,1.808593 0.004,1.818198 -0.26044,3.573139 -0.5918,5.384766 -0.74141,0.540784 -1.48424,1.079614 -2.22656,1.619141 0.6504,-0.052 1.30074,-0.104671 1.95117,-0.15625 -0.32446,1.646228 -0.76016,3.269547 -1.01172,4.929687 -0.90703,-0.823835 -2.19291,-1.014553 -3.25903,-1.568629 -0.4823,-0.201575 -0.97012,-0.394065 -1.43823,-0.626683 1.22327,-0.887417 2.44653,-1.774853 3.66992,-2.66211 -1.73153,0.161161 -3.51929,0.0041 -5.20703,0.472656 -1.09891,0.574535 -2.33122,1.369236 -3.30079,1.91211 0.59289,-0.860626 0.3013,-2.19885 -0.73028,-2.562805 -2.12112,-0.943252 -4.72582,-0.907221 -6.71328,0.359706 -2.13433,1.069595 -4.39558,2.316291 -5.49052,4.553331 -0.33307,0.524431 -0.39745,1.204909 -0.61735,1.732219 -0.74726,0.810713 -0.56657,-0.01742 -0.48744,-0.666196 0.2235,-2.412586 0.50298,-4.819858 0.68145,-7.236568 1.68479,0.0073 3.36802,0.08123 5.05078,0.158203 1.37209,-1.000246 2.74705,-1.996583 4.1211,-2.99414 -2.95771,0.103221 -5.91501,0.22962 -8.875,0.238281 0.36732,-0.964907 -0.25436,-0.555496 -0.8125,-0.234375 -0.76667,0.469097 -1.72457,0.115208 -2.57689,0.192317 -1.5221,-0.05184 -3.04105,-0.173133 -4.55202,-0.364192 -1.62249,1.179806 -3.24563,2.358715 -4.86914,3.537109 2.80013,-0.27689 5.53985,-0.517787 8.34375,-0.541015 0.44437,4.152131 -0.0811,8.319327 -0.62695,12.402344 1.29036,-0.641936 2.58213,-1.281053 3.87109,-1.925782 0.0988,-0.516186 -0.0519,-1.279796 0.20709,-1.63902 0.65253,-0.251794 0.78201,0.172099 0.95933,0.694425 0.66568,1.501807 2.44761,1.7834 3.89859,1.944911 2.62859,0.414309 5.43137,-0.04841 7.65351,-1.558033 1.27785,-0.741022 2.71869,-1.338822 3.60765,-2.579001 0.63048,0.220741 1.30457,0.43499 0.36117,0.8336 -1.25599,0.90677 -2.51242,1.812939 -3.76742,2.721086 2.6227,0.10575 5.2847,0.009 7.84766,-0.59375 1.12384,-0.372102 1.97815,-1.314965 2.96289,-1.886719 0.39711,1.86964 2.37766,2.875729 4.11736,3.167333 1.6533,0.23836 3.65404,0.49172 4.94671,-0.823441 0.77555,-0.681549 1.69625,-1.236365 2.38245,-1.995938 0.42342,-0.612165 0.79542,-1.1882 -0.21986,-0.789771 -0.76566,0.145271 -1.42463,0.704658 -2.254,0.633224 -1.59701,-0.05958 -3.5598,-0.231845 -4.51936,-1.695241 -0.42366,-1.210414 0.0369,-2.517625 0.14772,-3.751829 0.097,-0.649715 0.21004,-1.296772 0.32476,-1.943555 1.44464,-0.01913 2.88938,7.94e-4 4.33399,0.01367 1.40673,-1.024793 2.8157,-2.046538 4.22461,-3.068359 -2.66717,0.0047 -5.33638,0.08752 -8.00196,-0.03711 0.40084,-1.996645 0.64676,-4.03873 1.39844,-5.945313 -0.37565,0.179037 -0.7513,0.358073 -1.12695,0.53711 z m -21.59375,11.05664 c 0.77479,0.06112 1.63782,0.111693 2.29101,0.558594 -0.07,0.780234 -0.92326,0.967792 -1.56755,1.040801 -1.02576,0.165581 -2.19545,0.266217 -3.15901,0.136933 0.30978,-0.601376 0.65868,-1.269992 1.20508,-1.667968 0.40834,-0.0589 0.81745,-0.102621 1.23047,-0.06836 z m 5.54297,1.121094 c 0.068,1.079759 1.19569,1.592802 2.02929,2.044922 0.12567,-1.030185 1.23228,-0.142233 0.39603,-0.02336 -0.43645,0.120664 -0.57427,0.140978 -1.24128,0.264676 -0.89241,0.05456 -1.54559,0.790598 -2.42839,0.931513 -1.67208,0.527668 -3.48408,0.482849 -5.18534,0.124042 2.27537,-0.483737 4.21743,-1.832763 6.11328,-3.107422 0.066,0.0074 0.34773,-0.424557 0.31641,-0.234375 z m 4.00781,1.720703 c -1.24793,0.593442 -0.0835,-0.880263 0,0 z m 3.07031,2.861328 c -0.89422,-0.137365 -0.25676,-1.205321 -0.073,-0.298929 0.0243,0.09964 0.0487,0.199286 0.073,0.298929 z" />
    <text
       xml:space="preserve"
       style="font-size:4.23333px;line-height:1;font-family:sans-serif;-inkscape-font-specification:'sans-serif, Normal';font-variant-ligatures:none;stroke-width:0.264583"
       x="27.275059"
       y="25.293625"
       id="text16980"><tspan
         sodipodi:role="line"
         id="tspan16978"
         style="stroke-width:0.264583"
         x="27.275059"
         y="25.293625">Original</tspan></text>
    <text
       xml:space="preserve"
       style="font-size:4.23333px;line-height:1;font-family:sans-serif;-inkscape-font-specification:'sans-serif, Normal';font-variant-ligatures:none;stroke-width:0.264583"
       x="93.271278"
       y="25.703936"
       id="text17034"><tspan
         sodipodi:role="line"
         id="tspan17032"
         style="stroke-width:0.264583"
         x="93.271278"
         y="25.703936">Dilater</tspan></text>
    <text
       xml:space="preserve"
       style="font-size:4.23333px;line-height:1;font-family:sans-serif;-inkscape-font-specification:'sans-serif, Normal';font-variant-ligatures:none;stroke-width:0.264583"
       x="28.298252"
       y="54.136852"
       id="text17038"><tspan
         sodipodi:role="line"
         id="tspan17036"
         style="stroke-width:0.264583"
         x="28.298252"
         y="54.136852">Éroder</tspan></text>
    <text
       xml:space="preserve"
       style="font-size:4.23333px;line-height:1;font-family:sans-serif;-inkscape-font-specification:'sans-serif, Normal';font-variant-ligatures:none;stroke-width:0.264583"
       x="90.425972"
       y="53.372044"
       id="text17042"><tspan
         sodipodi:role="line"
         id="tspan17040"
         style="stroke-width:0.264583"
         x="90.425972"
         y="53.372044">Simplifier</tspan></text>
  </g>
</svg>
