<?xml version="1.0" encoding="UTF-8" standalone="no"?>
<!-- Created with Inkscape (http://www.inkscape.org/) -->

<svg
   width="85.078789mm"
   height="121.75705mm"
   viewBox="0 0 85.078789 121.75705"
   version="1.1"
   id="svg332191"
   xml:space="preserve"
   inkscape:version="1.2 (dc2aedaf03, 2022-05-15)"
   sodipodi:docname="5-gkey.svg"
   xmlns:inkscape="http://www.inkscape.org/namespaces/inkscape"
   xmlns:sodipodi="http://sodipodi.sourceforge.net/DTD/sodipodi-0.dtd"
   xmlns="http://www.w3.org/2000/svg"
   xmlns:svg="http://www.w3.org/2000/svg"><sodipodi:namedview
     id="namedview332193"
     pagecolor="#ffffff"
     bordercolor="#666666"
     borderopacity="1.0"
     inkscape:showpageshadow="2"
     inkscape:pageopacity="0.0"
     inkscape:pagecheckerboard="0"
     inkscape:deskcolor="#d1d1d1"
     inkscape:document-units="mm"
     showgrid="false"
     inkscape:zoom="1.0544998"
     inkscape:cx="194.87913"
     inkscape:cy="202.93983"
     inkscape:window-width="1920"
     inkscape:window-height="1017"
     inkscape:window-x="1912"
     inkscape:window-y="-8"
     inkscape:window-maximized="1"
     inkscape:current-layer="layer1" /><defs
     id="defs332188" /><g
     inkscape:label="Calque 1"
     inkscape:groupmode="layer"
     id="layer1"
     transform="translate(-15.208676,-20.391934)"><path
       style="fill:#000000;fill-opacity:1;fill-rule:evenodd;stroke-width:1"
       id="path333849"
       d="m 43.097851,85.736526 c -1.703851,0.122566 -3.39544,-0.251611 -5.046663,-0.625599 -2.085189,-0.56931 -4.155797,-1.379482 -5.903526,-2.680259 -0.343252,-0.255471 -0.655066,-0.550672 -0.982599,-0.826008 -0.280426,-0.315166 -0.580522,-0.613875 -0.841282,-0.945496 -0.921822,-1.172332 -1.701903,-2.611903 -1.88363,-4.113181 -0.04221,-0.348691 -0.01402,-0.702334 -0.02106,-1.053502 0.04888,-0.343413 0.06107,-0.694086 0.146656,-1.030237 0.252402,-0.991407 0.822275,-1.912795 1.576287,-2.599243 0.256524,-0.23354 1.14136,-0.781161 0.830472,-0.627234 -0.728271,0.360574 -1.394667,0.834551 -2.092,1.251828 1.789311,-0.853911 3.778107,-1.298612 5.76389,-1.296321 0.432131,5.3e-4 0.863087,0.04505 1.29463,0.06758 1.97317,0.208108 3.871005,0.79058 5.552657,1.862489 1.270309,0.809715 1.694259,1.284222 2.804446,2.296287 1.961702,2.028659 3.423335,4.48233 4.24394,7.18571 0.153016,0.50409 0.257384,1.021684 0.386077,1.532525 0.411779,2.028198 0.367112,4.090911 -0.248896,6.073527 -0.419986,1.351729 -0.612815,1.569955 -1.277988,2.81433 -0.810336,1.259935 -1.77306,2.418948 -2.932276,3.374456 -0.360431,0.297096 -1.572916,0.981922 -1.133253,0.824206 0.630545,-0.226187 1.282398,-0.530338 1.722332,-1.035518 0.314251,-0.360857 -0.878216,0.380296 -1.317324,0.570447 -1.951148,0.697399 -3.999108,1.11593 -6.075889,1.132832 -1.429535,0.01164 -1.891289,-0.09929 -3.322243,-0.284348 -0.616144,-0.154923 -1.24228,-0.27447 -1.848433,-0.464772 -2.581973,-0.810617 -5.004673,-2.189138 -7.078178,-3.921027 -0.508405,-0.424643 -0.973286,-0.898834 -1.459931,-1.34825 -1.782501,-1.779455 -3.157583,-3.900342 -4.110376,-6.228691 -0.564272,-1.378919 -0.673526,-1.935882 -1.07105,-3.367821 -0.529752,-2.598126 -0.798319,-5.301847 -0.362856,-7.938108 0.07685,-0.465241 0.206849,-0.920126 0.310274,-1.380188 0.583692,-1.95516 1.63238,-3.70726 2.932064,-5.268955 0.818168,-0.983107 1.467469,-1.60287 2.366767,-2.515497 2.005711,-2.003343 4.235286,-3.779697 6.138732,-5.886215 0.369811,-0.409265 0.714659,-0.840414 1.071989,-1.26062 1.999319,-2.471375 3.887671,-5.033709 5.659821,-7.672369 1.321197,-1.961672 2.371799,-4.101703 3.128912,-6.342724 0.140118,-0.414751 0.254667,-0.837708 0.382,-1.256562 0.684165,-2.721594 0.978512,-5.533843 1.0932,-8.333057 0.01416,-2.119563 -0.08918,-4.283129 -0.677547,-6.33372 -0.102457,-0.357082 -0.238123,-0.703787 -0.357182,-1.055681 -0.580417,-1.810311 -1.682822,-3.337144 -2.899963,-4.767011 -0.736439,-0.813505 -1.653707,-1.417978 -2.669987,-1.818892 -0.122719,-0.01784 -0.244187,-0.05661 -0.36816,-0.05353 -0.129432,0.0032 -0.269018,0.0083 -0.381654,0.07217 -1.229923,0.697119 -2.461847,1.397866 -3.626321,2.199544 -0.159255,0.109639 -0.20902,0.326291 -0.294489,0.499723 -0.243374,0.493866 -0.379256,0.955114 -0.557138,1.477774 -0.544023,1.635766 -0.704392,3.34905 -0.831856,5.05738 -0.109884,1.472729 -0.147658,2.308936 -0.228602,3.795737 -0.12124,3.297706 -0.04402,6.60659 0.362278,9.883887 0.08139,0.656488 0.189516,1.309383 0.284274,1.964074 0.685673,4.009449 1.601766,7.975032 2.490835,11.94302 0.870201,3.82276 1.863915,7.616872 2.872827,11.405076 0.959175,3.507382 1.886495,7.022306 2.656226,10.576425 0.66167,2.779466 1.08803,5.600858 1.373365,8.441015 0.367186,2.895134 0.06267,5.697916 -0.349213,8.564091 -0.327274,1.863826 -0.679784,3.730427 -1.170064,5.559727 -0.245941,0.91763 -0.443881,1.49438 -0.734116,2.39545 -0.13998,0.38692 -0.275635,0.77543 -0.419941,1.16075 -0.371809,0.9928 -0.517692,1.37805 -0.99449,2.33504 -0.571492,1.14706 -1.245597,2.22859 -1.932445,3.30833 -0.956141,1.3995 -1.993043,2.75508 -3.216624,3.93422 -0.640935,0.61766 -1.094031,0.95316 -1.785736,1.50493 0.746924,-0.30161 -2.40541,1.5566 -1.780826,1.20502 0.747728,-0.4209 1.49625,-0.84216 2.219698,-1.30354 0.25305,-0.16139 -0.533556,0.27539 -0.805773,0.4018 -0.642228,0.29822 -0.830162,0.35093 -1.482447,0.58736 -0.824177,0.20988 -1.681419,0.59495 -2.553761,0.50347 -0.659953,-0.0692 -0.834027,-0.21814 -1.42495,-0.5041 -1.532716,-0.97535 -2.159601,-2.50276 -2.703575,-4.15696 -0.178622,-0.62054 -0.383809,-1.2741 -0.235417,-1.92688 0.132786,-0.58412 0.504227,-1.02265 0.89191,-1.45176 0.351727,-0.30295 0.54002,-0.48224 0.925547,-0.74502 0.163642,-0.11154 0.677349,-0.41067 0.506153,-0.31111 -4.912172,2.85663 -3.019267,1.67768 -1.755476,1.18106 0.713373,-0.22717 1.481183,-0.51681 2.233504,-0.29473 0.141256,0.0417 0.272185,0.11261 0.408279,0.16892 0.628473,0.40559 1.132657,1.03954 1.274736,1.78347 l 3.118877,-2.64396 c -0.466616,-0.48757 -0.809607,-0.96095 -1.213688,-1.24813 -0.341661,-0.16897 -0.555553,-0.30141 -0.934915,-0.3806 -0.640961,-0.1338 -1.28152,0.11595 -1.89407,0.27161 -1.769449,0.63807 -2.876744,1.43476 -4.746125,2.53188 -0.52181,0.30625 -0.973481,0.72686 -1.38618,1.16373 -0.376782,0.5168 -0.712086,1.01513 -0.787296,1.67244 -0.07909,0.69125 0.157516,1.37 0.365898,2.01409 0.413029,1.10065 0.839163,2.23635 1.562179,3.17995 0.467242,0.60979 0.698643,0.73781 1.288332,1.21089 0.680779,0.38345 1.360206,0.77399 2.175527,0.7431 0.203436,-0.008 0.39901,-0.0812 0.597532,-0.12634 0.683956,-0.15539 0.681054,-0.16526 1.374103,-0.36346 2.916344,-1.00763 5.603394,-2.62974 8.057171,-4.48786 0.736418,-0.61253 1.055542,-0.84844 1.734931,-1.53451 1.197753,-1.20952 2.228885,-2.57499 3.171923,-3.98816 1.362753,-2.17018 2.574401,-4.432 3.326614,-6.89441 0.801828,-2.60201 1.368568,-5.263551 1.776585,-7.955787 0.41792,-2.874679 0.744773,-5.773973 0.383524,-8.676886 C 41.420752,83.257283 40.942182,80.44585 40.207508,77.684735 39.36168,74.150063 38.427741,70.637851 37.490629,67.126423 36.463244,63.35419 35.395849,59.590579 34.553704,55.771102 33.653075,51.81102 32.773743,47.843709 32.099333,43.837615 c -0.09247,-0.651032 -0.197715,-1.300377 -0.277418,-1.953096 -0.398296,-3.261843 -0.468527,-6.557611 -0.333097,-9.838464 0.22238,-3.016155 0.428681,-6.089311 1.495663,-8.948884 0.232437,-0.554061 0.358841,-0.943389 0.696457,-1.434684 0.758333,-1.103515 2.607406,-1.61092 -2.579674,1.18238 -0.188727,0.101631 0.698148,-0.480621 0.600628,-0.229706 1.0286,0.244783 1.933522,0.841077 2.692323,1.565121 0.579454,0.612759 1.14653,1.236324 1.615533,1.941075 0.546298,0.820904 0.962358,1.719273 1.323472,2.633947 0.11665,0.341797 0.246417,0.679395 0.349954,1.02539 0.599504,2.003408 0.771067,4.109051 0.731171,6.191389 -0.142156,2.784109 -0.400132,5.580089 -1.168088,8.271369 -0.130508,0.413126 -0.250563,0.829703 -0.391528,1.23938 -0.753843,2.19084 -1.76054,4.291452 -3.050598,6.218182 -1.779714,2.620917 -3.678161,5.164857 -5.664695,7.632583 -0.356094,0.412444 -0.699857,0.835864 -1.068284,1.23733 -1.910805,2.082157 -4.128765,3.855439 -6.106872,5.870217 -0.884705,0.905468 -1.599386,1.596994 -2.402364,2.576299 -1.320158,1.610055 -2.37198,3.426081 -2.93985,5.437317 -0.09383,0.470257 -0.216415,0.935685 -0.281499,1.410776 -0.06596,0.481492 -0.09055,0.96818 -0.110919,1.45374 -0.09217,2.196682 0.119022,4.398928 0.642506,6.53483 0.414648,1.473769 0.511734,1.994167 1.107435,3.409532 0.991625,2.35607 2.438271,4.489262 4.240951,6.299621 1.346946,1.225404 1.639742,1.570601 3.148761,2.621513 2.201125,1.532905 4.651738,2.674233 7.251047,3.339046 1.483233,0.231982 1.83607,0.342996 3.324899,0.36008 2.07459,0.02381 4.127619,-0.352142 6.094021,-0.997956 0.44427,-0.17703 0.910995,-0.305734 1.332812,-0.53109 2.317983,-1.238387 4.534022,-2.346981 6.299504,-4.274616 0.919806,-1.004282 1.057405,-1.308388 1.81319,-2.446004 0.24058,-0.471794 0.512225,-0.929 0.721741,-1.415386 1.067615,-2.478442 1.244428,-5.06553 0.68753,-7.690829 -0.354078,-1.341644 -0.427291,-1.803876 -0.965478,-3.093881 -0.895196,-2.145742 -2.233268,-4.072549 -3.844202,-5.740887 -1.072759,-0.998617 -1.589678,-1.551773 -2.794826,-2.389346 -1.68086,-1.168191 -3.486398,-1.832504 -5.512861,-2.077368 -0.433609,-0.03643 -0.865886,-0.09624 -1.300826,-0.109297 -1.974339,-0.05925 -4.008194,0.35491 -5.818995,1.128273 -0.937746,0.543719 -3.613753,1.773905 -4.824042,3.018436 -0.739693,0.760624 -1.263822,1.74657 -1.480081,2.786015 -0.07358,0.353673 -0.07567,0.718523 -0.113509,1.077782 0.02003,0.370269 0.0052,0.744075 0.06012,1.110803 0.303204,2.026373 1.557372,3.746146 2.906321,5.213919 0.336732,0.285964 0.656629,0.593021 1.010195,0.85789 1.758082,1.317035 3.84031,2.17804 5.928389,2.805671 1.562475,0.428342 3.156116,0.810085 4.775999,0.929148 l 3.177587,-2.308651 z"
       sodipodi:nodetypes="ccscssccsscccscscscssscscsscscscscsccsccscccscsccscsccccccscsscscssscsccscsscsccccscscscscssccsccccccccsccssccscsccsccscscsccscscscsscscscscccsscccscccc" /><path
       style="fill:#000000;fill-opacity:1;stroke-width:1"
       id="path333849-4"
       d="m 91.182353,85.736526 c -1.703851,0.122566 -3.39544,-0.251611 -5.046663,-0.625599 -2.085189,-0.56931 -4.155797,-1.379482 -5.903526,-2.680259 -0.343252,-0.255471 -0.655066,-0.550672 -0.982599,-0.826008 -0.280426,-0.315166 -0.580522,-0.613875 -0.841282,-0.945496 -0.921822,-1.172332 -1.701903,-2.611903 -1.88363,-4.113181 -0.04221,-0.348691 -0.01402,-0.702334 -0.02106,-1.053502 0.04888,-0.343413 0.06107,-0.694086 0.146656,-1.030237 0.252402,-0.991407 0.822275,-1.912795 1.576287,-2.599243 0.256524,-0.23354 1.14136,-0.781161 0.830472,-0.627234 -0.728271,0.360574 -1.394667,0.834551 -2.092,1.251828 1.789311,-0.853911 3.778107,-1.298612 5.76389,-1.296321 0.432131,5.3e-4 0.863087,0.04505 1.29463,0.06758 1.97317,0.208108 3.871005,0.79058 5.552657,1.862489 1.270309,0.809715 1.694259,1.284222 2.804446,2.296287 1.961702,2.028659 3.423332,4.48233 4.243942,7.18571 0.15301,0.50409 0.25738,1.021684 0.38608,1.532525 0.41177,2.028198 0.36711,4.090911 -0.2489,6.073527 -0.41999,1.351729 -0.61282,1.569955 -1.27799,2.81433 -0.81034,1.259935 -1.77306,2.418948 -2.932275,3.374456 -0.360431,0.297096 -1.572916,0.981922 -1.133253,0.824206 0.630545,-0.226187 1.282398,-0.530338 1.722332,-1.035518 0.314251,-0.360857 -0.878216,0.380296 -1.317324,0.570447 -1.951148,0.697399 -3.999108,1.11593 -6.075889,1.132832 -1.429535,0.01164 -1.891289,-0.09929 -3.322243,-0.284348 -0.616144,-0.154923 -1.24228,-0.27447 -1.848433,-0.464772 -2.581973,-0.810617 -5.004673,-2.189138 -7.078178,-3.921027 -0.508405,-0.424643 -0.973286,-0.898834 -1.459931,-1.34825 -1.782501,-1.779455 -3.157583,-3.900342 -4.110376,-6.228691 -0.564272,-1.378919 -0.673526,-1.935882 -1.07105,-3.367821 -0.529752,-2.598126 -0.798319,-5.301847 -0.362856,-7.938108 0.07685,-0.465241 0.206849,-0.920126 0.310274,-1.380188 0.583692,-1.95516 1.63238,-3.70726 2.932064,-5.268955 0.818168,-0.983107 1.467469,-1.60287 2.366767,-2.515497 2.005711,-2.003343 4.235286,-3.779697 6.138732,-5.886215 0.369811,-0.409265 0.714659,-0.840414 1.071989,-1.26062 1.999319,-2.471375 3.887671,-5.033709 5.659821,-7.672369 1.321197,-1.961672 2.371799,-4.101703 3.128912,-6.342724 0.140118,-0.414751 0.254667,-0.837708 0.382,-1.256562 0.684165,-2.721594 0.978512,-5.533843 1.0932,-8.333057 0.01416,-2.119563 -0.08918,-4.283129 -0.677547,-6.33372 -0.102457,-0.357082 -0.238123,-0.703787 -0.357182,-1.055681 -0.580417,-1.810311 -1.682822,-3.337144 -2.899963,-4.767011 -0.736439,-0.813505 -1.653707,-1.417978 -2.669987,-1.818891 -0.122719,-0.01784 -0.244187,-0.05661 -0.36816,-0.05353 -0.129432,0.0032 -0.269018,0.0083 -0.381654,0.07217 -1.229923,0.697118 -2.461847,1.397865 -3.626321,2.199543 -0.159255,0.109639 -0.20902,0.326291 -0.294489,0.499723 -0.243374,0.493866 -0.379256,0.955114 -0.557138,1.477774 -0.544023,1.635766 -0.704392,3.34905 -0.831856,5.05738 -0.109884,1.472729 -0.147658,2.308936 -0.228602,3.795737 -0.12124,3.297706 -0.04402,6.60659 0.362278,9.883887 0.08139,0.656488 0.189516,1.309383 0.284274,1.964074 0.685673,4.009449 1.601766,7.975032 2.490835,11.94302 0.870201,3.82276 1.863915,7.616872 2.872827,11.405076 0.959175,3.507382 1.886495,7.022306 2.656226,10.576425 0.66167,2.779466 1.08803,5.600858 1.373365,8.441015 0.367186,2.895134 0.06267,5.697916 -0.349213,8.564091 -0.327274,1.863826 -0.679784,3.730427 -1.170064,5.559727 -0.245941,0.91763 -0.443881,1.49438 -0.734116,2.39545 -0.13998,0.38692 -0.275635,0.77543 -0.419941,1.16075 -0.371809,0.9928 -0.517692,1.37805 -0.99449,2.33504 -0.571492,1.14706 -1.245597,2.22859 -1.932445,3.30833 -0.956141,1.3995 -1.993043,2.75508 -3.216624,3.93422 -0.640935,0.61766 -1.094031,0.95316 -1.785736,1.50493 0.746924,-0.30161 -2.40541,1.5566 -1.780826,1.20502 0.747728,-0.4209 1.49625,-0.84216 2.219698,-1.30354 0.25305,-0.16139 -0.533556,0.27539 -0.805773,0.4018 -0.642228,0.29822 -0.830162,0.35093 -1.482447,0.58736 -0.824177,0.20988 -1.681419,0.59495 -2.553761,0.50347 -0.659953,-0.0692 -0.834027,-0.21814 -1.42495,-0.5041 -1.532716,-0.97535 -2.159601,-2.50276 -2.703575,-4.15696 -0.178622,-0.62054 -0.383809,-1.2741 -0.235417,-1.92688 0.132786,-0.58412 0.504227,-1.02265 0.89191,-1.45176 0.351727,-0.30295 0.54002,-0.48224 0.925547,-0.74502 0.163642,-0.11154 0.677349,-0.41067 0.506153,-0.31111 -4.912172,2.85663 -3.019267,1.67768 -1.755476,1.18106 0.713373,-0.22717 1.481183,-0.51681 2.233504,-0.29473 0.141256,0.0417 0.272185,0.11261 0.408279,0.16892 0.628473,0.40559 1.132657,1.03954 1.274736,1.78347 l 3.118877,-2.64396 c -0.466616,-0.48757 -0.809607,-0.96095 -1.213688,-1.24813 -0.341661,-0.16897 -0.555553,-0.30141 -0.934915,-0.3806 -0.640961,-0.1338 -1.28152,0.11595 -1.89407,0.27161 -1.769449,0.63807 -2.876744,1.43476 -4.746125,2.53188 -0.52181,0.30625 -0.973481,0.72686 -1.38618,1.16373 -0.376782,0.5168 -0.712086,1.01513 -0.787296,1.67244 -0.07909,0.69125 0.157516,1.37 0.365898,2.01409 0.413029,1.10065 0.839163,2.23635 1.562179,3.17995 0.467242,0.60979 0.698643,0.73781 1.288332,1.21089 0.680779,0.38345 1.360206,0.77399 2.175527,0.7431 0.203436,-0.008 0.39901,-0.0812 0.597532,-0.12634 0.683956,-0.15539 0.681054,-0.16526 1.374103,-0.36346 2.916344,-1.00763 5.603394,-2.62974 8.057171,-4.48786 0.736418,-0.61253 1.055542,-0.84844 1.734931,-1.53451 1.197753,-1.20952 2.228885,-2.57499 3.171923,-3.98816 1.362753,-2.17018 2.574401,-4.432 3.326614,-6.89441 0.801828,-2.60201 1.368568,-5.263551 1.776585,-7.955787 0.41792,-2.874679 0.744773,-5.773973 0.383524,-8.676886 C 89.505254,83.257285 89.026684,80.445852 88.29201,77.684737 87.446182,74.150065 86.512243,70.637853 85.575131,67.126425 84.547746,63.354192 83.480351,59.590581 82.638206,55.771104 81.737577,51.811022 80.858245,47.843711 80.183835,43.837617 80.091365,43.186585 79.98612,42.53724 79.906417,41.884521 79.508121,38.622678 79.43789,35.32691 79.57332,32.046057 c 0.22238,-3.016155 0.428681,-6.089311 1.495663,-8.948884 0.232437,-0.554061 0.358841,-0.943389 0.696457,-1.434684 0.758333,-1.103515 2.607406,-1.61092 -2.579674,1.18238 -0.188727,0.101631 0.698148,-0.480621 0.600628,-0.229705 1.0286,0.244782 1.933522,0.841076 2.692323,1.56512 0.579454,0.612759 1.14653,1.236324 1.615533,1.941075 0.546298,0.820904 0.962358,1.719273 1.323472,2.633947 0.11665,0.341797 0.246417,0.679395 0.349954,1.02539 0.599504,2.003408 0.771067,4.109051 0.731171,6.191389 -0.142156,2.784109 -0.400132,5.580089 -1.168088,8.271369 -0.130508,0.413126 -0.250563,0.829703 -0.391528,1.23938 -0.753843,2.19084 -1.76054,4.291452 -3.050598,6.218182 -1.779714,2.620917 -3.678161,5.164857 -5.664695,7.632583 -0.356094,0.412444 -0.699857,0.835864 -1.068284,1.23733 -1.910805,2.082157 -4.128765,3.855439 -6.106872,5.870217 -0.884705,0.905468 -1.599386,1.596994 -2.402364,2.576299 -1.320158,1.610055 -2.37198,3.426081 -2.93985,5.437317 -0.09383,0.470257 -0.216415,0.935685 -0.281499,1.410776 -0.06596,0.481492 -0.09055,0.96818 -0.110919,1.45374 -0.09217,2.196682 0.119022,4.398928 0.642506,6.53483 0.414648,1.473769 0.511734,1.994167 1.107435,3.409532 0.991625,2.35607 2.438271,4.489262 4.240951,6.299621 1.346946,1.225404 1.639742,1.570601 3.148761,2.621513 2.201125,1.532905 4.651738,2.674233 7.251047,3.339046 1.483233,0.231982 1.83607,0.342996 3.324899,0.36008 2.07459,0.02381 4.127619,-0.352142 6.094021,-0.997956 0.44427,-0.17703 0.910995,-0.305734 1.332812,-0.53109 2.317983,-1.238387 4.534021,-2.346981 6.299501,-4.274616 0.91981,-1.004282 1.05741,-1.308388 1.81319,-2.446004 0.24058,-0.471794 0.51223,-0.929 0.72174,-1.415386 1.067617,-2.478442 1.244437,-5.06553 0.68753,-7.690829 -0.35407,-1.341644 -0.42729,-1.803876 -0.96547,-3.093881 -0.8952,-2.145742 -2.23327,-4.072549 -3.84421,-5.740887 -1.07276,-0.998617 -1.589674,-1.551773 -2.794822,-2.389346 -1.68086,-1.168191 -3.486398,-1.832504 -5.512861,-2.077368 -0.433609,-0.03643 -0.865886,-0.09624 -1.300826,-0.109297 -1.974339,-0.05925 -4.008194,0.35491 -5.818995,1.128273 -0.937746,0.543719 -3.613753,1.773905 -4.824042,3.018436 -0.739693,0.760624 -1.263822,1.74657 -1.480081,2.786015 -0.07358,0.353673 -0.07567,0.718523 -0.113509,1.077782 0.02003,0.370269 0.0052,0.744075 0.06012,1.110803 0.303204,2.026373 1.557372,3.746146 2.906321,5.213919 0.336732,0.285964 0.656629,0.593021 1.010195,0.85789 1.758082,1.317035 3.84031,2.17804 5.928389,2.805671 1.562475,0.428342 3.156116,0.810085 4.775999,0.929148 l 3.177587,-2.308651 z"
       sodipodi:nodetypes="ccscssccsscccscscscssscscsscscscscsccsccscccscsccscsccccccscsscscssscsccscsscsccccscscscscssccsccccccccsccssccscsccsccscscsccscscscsscscscscccsscccscccc" /><path
       d="m 33.734227,142.14898 c 10.624307,0 13.166692,-20.43728 6.561389,-20.43728 -6.691158,0 -17.211264,16.35309 -6.523579,16.35309 10.551738,0 0.09192,-16.35309 -6.572628,-16.35309 -6.66563,0 -4.276496,20.43728 6.534818,20.43728 z"
       id="fill-rule-even-odd"
       inkscape:connector-curvature="0"
       inkscape:label="#fillrule_evenodd"
       sodipodi:nodetypes="ccccs"
       style="fill:#000000;fill-rule:evenodd;stroke-width:1.02186" /><path
       d="m 81.818719,142.14898 c 10.624319,0 13.166719,-20.43728 6.561389,-20.43728 -6.691166,0 -17.211253,16.35299 -6.523579,16.35299 10.551765,0 0.09196,-16.35299 -6.572628,-16.35299 -6.665618,0 -4.2765,20.43728 6.534818,20.43728 z"
       id="fill-rule-nonzero"
       inkscape:connector-curvature="0"
       inkscape:label="#fillrule_nonzero"
       sodipodi:nodetypes="ccccs"
       style="fill:#000000;stroke-width:1.02186" /></g></svg>
