<?xml version="1.0" encoding="UTF-8" standalone="no"?>
<!-- Created with Inkscape (http://www.inkscape.org/) -->

<svg
   width="93.017189mm"
   height="17.075977mm"
   viewBox="0 0 93.017189 17.075977"
   version="1.1"
   id="svg5"
   xml:space="preserve"
   inkscape:version="1.2 (dc2aedaf03, 2022-05-15)"
   sodipodi:docname="5-stroke-joins.svg"
   xmlns:inkscape="http://www.inkscape.org/namespaces/inkscape"
   xmlns:sodipodi="http://sodipodi.sourceforge.net/DTD/sodipodi-0.dtd"
   xmlns="http://www.w3.org/2000/svg"
   xmlns:svg="http://www.w3.org/2000/svg"><sodipodi:namedview
     id="namedview7"
     pagecolor="#ffffff"
     bordercolor="#666666"
     borderopacity="1.0"
     inkscape:showpageshadow="2"
     inkscape:pageopacity="0.0"
     inkscape:pagecheckerboard="0"
     inkscape:deskcolor="#d1d1d1"
     inkscape:document-units="mm"
     showgrid="false"
     inkscape:zoom="2.9825758"
     inkscape:cx="147.69114"
     inkscape:cy="109.63678"
     inkscape:window-width="1920"
     inkscape:window-height="1017"
     inkscape:window-x="1912"
     inkscape:window-y="-8"
     inkscape:window-maximized="1"
     inkscape:current-layer="layer1" /><defs
     id="defs2" /><g
     inkscape:label="Calque 1"
     inkscape:groupmode="layer"
     id="layer1"
     transform="translate(-4.2690859,-0.80090235)"><rect
       style="fill:#ff6600;stroke:#000000;stroke-width:2;stroke-linecap:butt;stroke-linejoin:bevel;stroke-dasharray:none;stroke-dashoffset:0;stroke-opacity:1;paint-order:fill markers stroke"
       id="rect15518"
       width="23.961796"
       height="6.0218129"
       x="5.2690859"
       y="10.855067" /><rect
       style="fill:#ff6600;stroke:#000000;stroke-width:2;stroke-linecap:butt;stroke-linejoin:round;stroke-dasharray:none;stroke-dashoffset:0;stroke-opacity:1;paint-order:fill markers stroke"
       id="rect15518-2"
       width="23.961796"
       height="6.0218129"
       x="38.796783"
       y="10.855067" /><rect
       style="fill:#ff6600;stroke:#000000;stroke-width:2;stroke-linecap:butt;stroke-linejoin:miter;stroke-dasharray:none;stroke-dashoffset:0;stroke-opacity:1;paint-order:fill markers stroke"
       id="rect15518-8"
       width="23.961796"
       height="6.0218129"
       x="72.324478"
       y="10.855067" /><g
       id="stroke-join-miter"
       inkscape:label="#join_miter"
       transform="matrix(0.26458333,0,0,0.26458333,81.130376,0.80090235)"><path
         d="M 0.5,24 V 0.5 H 24 v 17 H 17.5 V 24 Z"
         style="fill:#99b6d4"
         id="path15918" /><path
         d="M 0.5,24 V 0.5 H 24 m 0,17 H 17.5 V 24"
         style="fill:none;stroke:#000000"
         id="path15920" /><path
         d="M 9,24 V 9 h 15"
         style="fill:none;stroke:#ffffff;stroke-width:2px;stroke-dasharray:2, 2;stroke-dashoffset:2"
         id="path15922" /></g><g
       id="stroke-join-round"
       inkscape:label="#join_round"
       transform="matrix(0.26458333,0,0,0.26458333,47.602681,0.80090235)"><!-- Corner exaggerated --><path
         d="M 0.5,24 V 13 A 12.5,12.5 0 0 1 13,0.5 h 11 v 17 H 17.5 V 24 Z"
         style="fill:#99b6d4"
         id="path15935" /><path
         d="M 0.5,24 V 13 A 12.5,12.5 0 0 1 13,0.5 h 11 m 0,17 H 17.5 V 24"
         style="fill:none;stroke:#000000"
         id="path15937" /><path
         d="M 9,24 V 9 h 15"
         style="fill:none;stroke:#ffffff;stroke-width:2px;stroke-dasharray:2, 2;stroke-dashoffset:2"
         id="path15939" /></g><g
       id="stroke-join-bevel"
       inkscape:label="#join_bevel"
       transform="matrix(0.26458333,0,0,0.26458333,14.074984,0.80090235)"><!-- Corner exaggerated --><path
         d="M 0.5,24 V 11 L 11,0.5 h 13 v 17 H 17.5 V 24 Z"
         style="fill:#99b6d4"
         id="path15952" /><path
         d="M 0.5,24 V 11 L 11,0.5 h 13 m 0,17 H 17.5 V 24"
         style="fill:none;stroke:#000000"
         id="path15954" /><path
         d="M 9,24 V 9 h 15"
         style="fill:none;stroke:#ffffff;stroke-width:2px;stroke-dasharray:2, 2;stroke-dashoffset:2"
         id="path15956" /></g></g></svg>
