<?xml version="1.0" encoding="UTF-8" standalone="no"?>
<!-- Created with Inkscape (http://www.inkscape.org/) -->

<svg
   width="98.35627mm"
   height="144.87671mm"
   viewBox="0 0 98.35627 144.87671"
   version="1.1"
   id="svg5"
   xml:space="preserve"
   inkscape:version="1.2 (dc2aedaf03, 2022-05-15)"
   sodipodi:docname="7-distribution-example.svg"
   xmlns:inkscape="http://www.inkscape.org/namespaces/inkscape"
   xmlns:sodipodi="http://sodipodi.sourceforge.net/DTD/sodipodi-0.dtd"
   xmlns:xlink="http://www.w3.org/1999/xlink"
   xmlns="http://www.w3.org/2000/svg"
   xmlns:svg="http://www.w3.org/2000/svg"><sodipodi:namedview
     id="namedview7"
     pagecolor="#ffffff"
     bordercolor="#666666"
     borderopacity="1.0"
     inkscape:showpageshadow="2"
     inkscape:pageopacity="0.0"
     inkscape:pagecheckerboard="0"
     inkscape:deskcolor="#d1d1d1"
     inkscape:document-units="mm"
     showgrid="false"
     inkscape:zoom="2"
     inkscape:cx="250.75"
     inkscape:cy="64"
     inkscape:window-width="1920"
     inkscape:window-height="1017"
     inkscape:window-x="1912"
     inkscape:window-y="-8"
     inkscape:window-maximized="1"
     inkscape:current-layer="layer1" /><defs
     id="defs2"><linearGradient
       id="gradientVector"><stop
         offset="0"
         style="stop-color:#ffffff"
         id="stop1468" /><stop
         offset="1"
         style="stop-color:#98b6d3"
         id="stop1470" /></linearGradient><linearGradient
       gradientUnits="userSpaceOnUse"
       id="gradientFill1"
       x1="2"
       x2="-2"
       xlink:href="#gradientVector"
       y1="1"
       y2="-1" /><linearGradient
       gradientUnits="userSpaceOnUse"
       id="gradientStroke1"
       x1="-3"
       x2="3"
       xlink:href="#gradientVector"
       y1="-1"
       y2="1" /><linearGradient
       gradientUnits="userSpaceOnUse"
       id="gradientFill3"
       x1="1"
       x2="-1"
       xlink:href="#gradientVector"
       y1="1"
       y2="-1" /><linearGradient
       gradientUnits="userSpaceOnUse"
       id="gradientStroke3"
       x1="-2"
       x2="2"
       xlink:href="#gradientVector"
       y1="-1"
       y2="1" /><g
       id="TheRect1"><rect
         x="-3"
         y="-5"
         width="6"
         height="10"
         style="fill:none;stroke:#222222;stroke-linejoin:round"
         id="rect1479" /><rect
         x="-2"
         y="-4"
         width="4"
         height="8"
         style="fill:url(#gradientFill1);stroke:url(#gradientStroke1)"
         id="rect1481" /></g><g
       id="TheRect2"><rect
         x="-3"
         y="-8"
         width="6"
         height="16"
         style="fill:none;stroke:#222222;stroke-linejoin:round"
         id="rect1484" /><rect
         x="-2"
         y="-7"
         width="4"
         height="14"
         style="fill:url(#gradientFill1);stroke:url(#gradientStroke1)"
         id="rect1486" /></g><g
       id="TheRect3"><rect
         x="-2"
         y="-6"
         width="4"
         height="12"
         style="fill:none;stroke:#222222;stroke-linejoin:round"
         id="rect1489" /><rect
         x="-1"
         y="-5"
         width="2"
         height="10"
         style="fill:url(#gradientFill3);stroke:url(#gradientStroke3)"
         id="rect1491" /></g><g
       id="TheRect1-9"><rect
         x="-3"
         y="-5"
         width="6"
         height="10"
         style="fill:none;stroke:#222222;stroke-linejoin:round"
         id="rect1609" /><rect
         x="-2"
         y="-4"
         width="4"
         height="8"
         style="fill:url(#gradientFill1);stroke:url(#gradientStroke1)"
         id="rect1611" /></g><g
       id="TheRect2-1"><rect
         x="-3"
         y="-8"
         width="6"
         height="16"
         style="fill:none;stroke:#222222;stroke-linejoin:round"
         id="rect1614" /><rect
         x="-2"
         y="-7"
         width="4"
         height="14"
         style="fill:url(#gradientFill1);stroke:url(#gradientStroke1)"
         id="rect1616" /></g><g
       id="TheRect3-0"><rect
         x="-2"
         y="-6"
         width="4"
         height="12"
         style="fill:none;stroke:#222222;stroke-linejoin:round"
         id="rect1619" /><rect
         x="-1"
         y="-5"
         width="2"
         height="10"
         style="fill:url(#gradientFill3);stroke:url(#gradientStroke3)"
         id="rect1621" /></g><g
       id="TheRect1-96"><rect
         x="-3"
         y="-5"
         width="6"
         height="10"
         style="fill:none;stroke:#222222;stroke-linejoin:round"
         id="rect1679" /><rect
         x="-2"
         y="-4"
         width="4"
         height="8"
         style="fill:url(#gradientFill1);stroke:url(#gradientStroke1)"
         id="rect1681" /></g><g
       id="TheRect2-9"><rect
         x="-3"
         y="-8"
         width="6"
         height="16"
         style="fill:none;stroke:#222222;stroke-linejoin:round"
         id="rect1684" /><rect
         x="-2"
         y="-7"
         width="4"
         height="14"
         style="fill:url(#gradientFill1);stroke:url(#gradientStroke1)"
         id="rect1686" /></g><g
       id="TheRect3-4"><rect
         x="-2"
         y="-6"
         width="4"
         height="12"
         style="fill:none;stroke:#222222;stroke-linejoin:round"
         id="rect1689" /><rect
         x="-1"
         y="-5"
         width="2"
         height="10"
         style="fill:url(#gradientFill3);stroke:url(#gradientStroke3)"
         id="rect1691" /></g></defs><g
     inkscape:label="Calque 1"
     inkscape:groupmode="layer"
     id="layer1"
     transform="translate(0,-8.782258)"><rect
       style="fill:#f26500;fill-opacity:1;stroke-width:1.5;stroke-linecap:square;stroke-linejoin:round;paint-order:stroke fill markers"
       id="rect795"
       width="27.145161"
       height="11"
       x="29.819902"
       y="8.782259" /><rect
       style="fill:#faf800;fill-opacity:1;stroke-width:1.5;stroke-linecap:square;stroke-linejoin:round;paint-order:stroke fill markers"
       id="rect799"
       width="10.556453"
       height="11"
       x="56.965057"
       y="19.782257" /><rect
       style="fill:#00c2a7;fill-opacity:1;stroke-width:1.5;stroke-linecap:square;stroke-linejoin:round;paint-order:stroke fill markers"
       id="rect909"
       width="11.133063"
       height="22"
       x="13.395163"
       y="8.782259" /><rect
       style="fill:#db1fdb;fill-opacity:1;stroke-width:1.5;stroke-linecap:square;stroke-linejoin:round;paint-order:stroke fill markers"
       id="rect911"
       width="11.221773"
       height="10.999999"
       x="82.867348"
       y="8.7822571" /><rect
       style="fill:#f26500;fill-opacity:1;stroke-width:1.5;stroke-linecap:square;stroke-linejoin:round;paint-order:stroke fill markers"
       id="rect795-9"
       width="27.145161"
       height="11"
       x="36.552559"
       y="39.501339" /><rect
       style="fill:#faf800;fill-opacity:1;stroke-width:1.5;stroke-linecap:square;stroke-linejoin:round;paint-order:stroke fill markers"
       id="rect799-9"
       width="10.556453"
       height="11"
       x="59.709957"
       y="50.501339" /><rect
       style="fill:#00c2a7;fill-opacity:1;stroke-width:1.5;stroke-linecap:square;stroke-linejoin:round;paint-order:stroke fill markers"
       id="rect909-4"
       width="11.133063"
       height="22"
       x="13.395163"
       y="39.501339" /><rect
       style="fill:#db1fdb;fill-opacity:1;stroke-width:1.5;stroke-linecap:square;stroke-linejoin:round;paint-order:stroke fill markers"
       id="rect911-5"
       width="11.221773"
       height="10.999999"
       x="82.867355"
       y="39.501339" /><rect
       style="fill:#f26500;fill-opacity:1;stroke-width:1.5;stroke-linecap:square;stroke-linejoin:round;paint-order:stroke fill markers"
       id="rect795-4"
       width="27.145161"
       height="11"
       x="28.561296"
       y="70.220421" /><rect
       style="fill:#faf800;fill-opacity:1;stroke-width:1.5;stroke-linecap:square;stroke-linejoin:round;paint-order:stroke fill markers"
       id="rect799-95"
       width="10.556453"
       height="11"
       x="60.027832"
       y="81.220421" /><rect
       style="fill:#00c2a7;fill-opacity:1;stroke-width:1.5;stroke-linecap:square;stroke-linejoin:round;paint-order:stroke fill markers"
       id="rect909-2"
       width="11.133063"
       height="22"
       x="13.395163"
       y="70.220421" /><rect
       style="fill:#db1fdb;fill-opacity:1;stroke-width:1.5;stroke-linecap:square;stroke-linejoin:round;paint-order:stroke fill markers"
       id="rect911-3"
       width="11.221773"
       height="10.999999"
       x="82.867355"
       y="70.220421" /><rect
       style="fill:#f26500;fill-opacity:1;stroke-width:1.5;stroke-linecap:square;stroke-linejoin:round;paint-order:stroke fill markers"
       id="rect795-8"
       width="27.145161"
       height="11"
       x="20.570032"
       y="100.93951" /><rect
       style="fill:#faf800;fill-opacity:1;stroke-width:1.5;stroke-linecap:square;stroke-linejoin:round;paint-order:stroke fill markers"
       id="rect799-97"
       width="10.556453"
       height="11"
       x="60.345707"
       y="111.93951" /><rect
       style="fill:#00c2a7;fill-opacity:1;stroke-width:1.5;stroke-linecap:square;stroke-linejoin:round;paint-order:stroke fill markers"
       id="rect909-27"
       width="11.133063"
       height="22"
       x="13.395163"
       y="100.93951" /><rect
       style="fill:#db1fdb;fill-opacity:1;stroke-width:1.5;stroke-linecap:square;stroke-linejoin:round;paint-order:stroke fill markers"
       id="rect911-2"
       width="11.221773"
       height="10.999999"
       x="82.867355"
       y="100.93951" /><rect
       style="fill:#f26500;fill-opacity:1;stroke-width:1.5;stroke-linecap:square;stroke-linejoin:round;paint-order:stroke fill markers"
       id="rect795-44"
       width="27.145161"
       height="11"
       x="31.407398"
       y="131.65858" /><rect
       style="fill:#faf800;fill-opacity:1;stroke-width:1.5;stroke-linecap:square;stroke-linejoin:round;paint-order:stroke fill markers"
       id="rect799-6"
       width="10.556453"
       height="11"
       x="65.431732"
       y="142.65858" /><rect
       style="fill:#00c2a7;fill-opacity:1;stroke-width:1.5;stroke-linecap:square;stroke-linejoin:round;paint-order:stroke fill markers"
       id="rect909-3"
       width="11.133063"
       height="22"
       x="13.395163"
       y="131.65858" /><rect
       style="fill:#db1fdb;fill-opacity:1;stroke-width:1.5;stroke-linecap:square;stroke-linejoin:round;paint-order:stroke fill markers"
       id="rect911-39"
       width="11.221773"
       height="10.999999"
       x="82.867355"
       y="131.65858" /><g
       id="distribute-horizontal-center"
       inkscape:label="#distribute_hcentre"
       transform="matrix(0.26458333,0,0,0.26458333,5.2646318,78.177713)"><use
         xlink:href="#TheRect1"
         transform="translate(3.5,12.5)"
         id="use1496" /><use
         xlink:href="#TheRect2"
         transform="translate(12.5,14.5)"
         id="use1498" /><use
         xlink:href="#TheRect3"
         transform="translate(21.5,15.5)"
         id="use1500" /><!-- Lines --><g
         style="fill:none;stroke:#c80000"
         id="g1508"><path
           d="M 3.5,0 V 12"
           id="path1502" /><path
           d="M 12.5,0 V 12"
           id="path1504" /><path
           d="M 21.5,0 V 12"
           id="path1506" /></g><!-- Arrows --><path
         d="M 6,3 4,1.5 6,0 v 1 h 4 V 0 L 12,1.5 10,3 V 2 H 6 Z"
         id="path1510"
         style="stroke-width:1.00157;stroke-dasharray:none" /><path
         d="M 15,3 13,1.5 15,0 v 1 h 4 V 0 L 21,1.5 19,3 V 2 h -4 z"
         id="path1512" /></g><g
       id="distribute-horizontal-gaps"
       inkscape:label="#distribute_hdist"
       transform="matrix(0.26458333,0,0,0.26458333,5.2646318,139.48358)"><!-- Rectangles --><g
         style="fill:#98b6d3;stroke:#222222;stroke-linejoin:round"
         id="g1551"><rect
           x="0.5"
           y="6.5"
           width="3"
           height="15"
           id="rect1545" /><rect
           x="10.5"
           y="8.5"
           width="3"
           height="9"
           id="rect1547" /><rect
           x="20.5"
           y="5.5"
           width="3"
           height="18"
           id="rect1549" /></g><!-- Rectangle highlights --><g
         style="fill:none;stroke:#e2e8f0"
         id="g1559"><path
           d="M 1.5,20 V 7.5 H 3"
           id="path1553" /><path
           d="M 11.5,16 V 9.5 H 13"
           id="path1555" /><path
           d="M 21.5,22 V 6.5 H 23"
           id="path1557" /></g><!-- Lines --><g
         style="fill:none;stroke:#c80000"
         id="g1569"><path
           d="M 3.5,0 V 12"
           id="path1561" /><path
           d="M 10.5,0 V 12"
           id="path1563" /><path
           d="M 13.5,0 V 12"
           id="path1565" /><path
           d="M 20.5,0 V 12"
           id="path1567" /></g><!-- Arrows --><path
         d="M 6,3 4,1.5 6,0 V 1 H 8 V 0 L 10,1.5 8,3 V 2 H 6 Z"
         id="path1571" /><path
         d="M 16,3 14,1.5 16,0 v 1 h 2 V 0 L 20,1.5 18,3 V 2 h -2 z"
         id="path1573" /></g><g
       id="distribute-horizontal-left"
       inkscape:label="#distribute_left"
       transform="matrix(0.26458333,0,0,0.26458333,5.3969234,47.458631)"><use
         xlink:href="#TheRect1-9"
         transform="translate(3.5,12.5)"
         id="use1626" /><use
         xlink:href="#TheRect2-1"
         transform="translate(12.5,14.5)"
         id="use1628" /><use
         xlink:href="#TheRect3-0"
         transform="translate(20.5,15.5)"
         id="use1630" /><!-- Lines --><g
         style="fill:none;stroke:#c80000"
         id="g1638"><path
           d="M 0.5,0 V 12"
           id="path1632" /><path
           d="M 9.5,0 V 12"
           id="path1634" /><path
           d="M 18.5,0 V 12"
           id="path1636" /></g><!-- Arrows --><path
         d="M 3,3 1,1.5 3,0 V 1 H 7 V 0 L 9,1.5 7,3 V 2 H 3 Z"
         id="path1640" /><path
         d="M 12,3 10,1.5 12,0 v 1 h 4 V 0 L 18,1.5 16,3 V 2 h -4 z"
         id="path1642" /></g><g
       id="distribute-horizontal-right"
       inkscape:label="#distribute_right"
       transform="matrix(0.26458333,0,0,0.26458333,5.1323401,108.8968)"><use
         xlink:href="#TheRect1-96"
         transform="translate(20.5,12.5)"
         id="use1696" /><use
         xlink:href="#TheRect2-9"
         transform="translate(11.5,14.5)"
         id="use1698" /><use
         xlink:href="#TheRect3-4"
         transform="translate(3.5,15.5)"
         id="use1700" /><!-- Lines --><g
         style="fill:none;stroke:#c80000"
         id="g1708"><path
           d="M 5.5,0 V 12"
           id="path1702" /><path
           d="M 14.5,0 V 12"
           id="path1704" /><path
           d="M 23.5,0 V 12"
           id="path1706" /></g><!-- Arrows --><path
         d="M 8,3 6,1.5 8,0 v 1 h 4 V 0 L 14,1.5 12,3 V 2 H 8 Z"
         id="path1710" /><path
         d="M 17,3 15,1.5 17,0 v 1 h 4 V 0 L 23,1.5 21,3 V 2 h -4 z"
         id="path1712" /></g><path
       style="fill:none;stroke:#000000;stroke-width:0.264583px;stroke-linecap:butt;stroke-linejoin:miter;stroke-opacity:1"
       d="M 18.961694,65.860882 V 96.579964"
       id="path3003" /><path
       style="fill:none;stroke:#000000;stroke-width:0.264583px;stroke-linecap:butt;stroke-linejoin:miter;stroke-opacity:1"
       d="M 42.133877,65.860882 V 96.579964"
       id="path3005" /><path
       style="fill:none;stroke:#000000;stroke-width:0.264583px;stroke-linecap:butt;stroke-linejoin:miter;stroke-opacity:1"
       d="M 65.623931,65.993173 V 96.579964"
       id="path3007" /><path
       style="fill:none;stroke:#000000;stroke-width:0.264583px;stroke-linecap:butt;stroke-linejoin:miter;stroke-opacity:1"
       d="M 88.47824,65.860882 V 96.579964"
       id="path3009" /><path
       style="fill:none;stroke:#000000;stroke-width:0.264583px;stroke-linecap:butt;stroke-linejoin:miter;stroke-opacity:1"
       d="M 24.528226,96.579964 V 127.29905"
       id="path3011" /><path
       style="fill:none;stroke:#000000;stroke-width:0.264583px;stroke-linecap:butt;stroke-linejoin:miter;stroke-opacity:1"
       d="M 47.715193,96.579964 V 127.29905"
       id="path3013" /><path
       style="fill:none;stroke:#000000;stroke-width:0.264583px;stroke-linecap:butt;stroke-linejoin:miter;stroke-opacity:1"
       d="M 70.90216,96.579964 V 127.29905"
       id="path3015" /><path
       style="fill:none;stroke:#000000;stroke-width:0.264583px;stroke-linecap:butt;stroke-linejoin:miter;stroke-opacity:1"
       d="M 94.089126,96.447672 V 127.29905"
       id="path3017" /><path
       style="fill:none;stroke:#000000;stroke-width:0.264583px;stroke-linecap:butt;stroke-linejoin:miter;stroke-opacity:1"
       d="M 13.395162,35.274088 V 65.860882"
       id="path2993" /><path
       style="fill:none;stroke:#000000;stroke-width:0.264583px;stroke-linecap:butt;stroke-linejoin:miter;stroke-opacity:1"
       d="M 36.552557,35.141796 V 65.860882"
       id="path2995" /><path
       style="fill:none;stroke:#000000;stroke-width:0.264583px;stroke-linecap:butt;stroke-linejoin:miter;stroke-opacity:1"
       d="M 59.709957,35.141796 V 65.860882"
       id="path2999" /><path
       style="fill:none;stroke:#000000;stroke-width:0.264583px;stroke-linecap:butt;stroke-linejoin:miter;stroke-opacity:1"
       d="M 82.867353,35.274088 V 65.860882"
       id="path3001" /><path
       d="m 25.421195,137.9358 -0.892969,-0.58705 0.892969,-0.58704 v 0.39136 h 5.118039 v -0.39136 l 0.868164,0.58704 -0.868164,0.58705 v -0.39136 h -5.118039 z"
       id="path1510-7"
       style="fill:#646464;fill-opacity:1;stroke-width:0.5;stroke-dasharray:none"
       sodipodi:nodetypes="ccccccccccc" /><path
       d="m 59.445528,137.74563 -0.892969,-0.58705 0.892969,-0.58704 v 0.39136 h 5.118039 v -0.39136 l 0.868164,0.58704 -0.868164,0.58705 v -0.39136 h -5.118039 z"
       id="path1510-7-9"
       style="fill:#646464;fill-opacity:1;stroke-width:0.5;stroke-dasharray:none"
       sodipodi:nodetypes="ccccccccccc" /><path
       d="m 76.881152,137.74563 -0.892969,-0.58705 0.892969,-0.58704 v 0.39136 h 5.118039 v -0.39136 l 0.868164,0.58704 -0.868164,0.58705 v -0.39136 h -5.118039 z"
       id="path1510-7-2"
       style="fill:#646464;fill-opacity:1;stroke-width:0.5;stroke-dasharray:none"
       sodipodi:nodetypes="ccccccccccc" /><path
       style="fill:none;stroke:#000000;stroke-width:0.264583px;stroke-linecap:butt;stroke-linejoin:miter;stroke-opacity:1"
       d="m 65.431733,153.65858 -0.04424,-22"
       id="path3185" /><path
       style="fill:none;stroke:#000000;stroke-width:0.264583px;stroke-linecap:butt;stroke-linejoin:miter;stroke-opacity:1"
       d="m 75.988182,153.65858 0.06336,-22"
       id="path3187" /></g></svg>
