<?xml version="1.0" encoding="UTF-8"?>
<svg width="1024" height="1024" version="1.1" viewBox="0 0 270.933 270.933" xmlns="http://www.w3.org/2000/svg" xmlns:cc="http://creativecommons.org/ns#" xmlns:dc="http://purl.org/dc/elements/1.1/" xmlns:rdf="http://www.w3.org/1999/02/22-rdf-syntax-ns#"><metadata><rdf:RDF><cc:Work rdf:about=""><dc:format>image/svg+xml</dc:format><dc:type rdf:resource="http://purl.org/dc/dcmitype/StillImage"/><dc:title/></cc:Work></rdf:RDF></metadata><circle cx="135.467" cy="135.467" r="135.467" fill="#44c500" fill-rule="evenodd" stroke-width=".600001"/><g transform="matrix(.851218 0 0 .851218 20.1549 -.626541)"><path d="m40.5598 208.734 50.1664-86.8913s68.0206 117.815 70.5497 122.195l101.734 0.0734-126.836-219.686-128.252 222.138h10.7957l21.841-37.8297" fill="#fff"/><g fill="none" stroke="#44c500"><g><path d="m136.175 24.4254-45.7555 98.9056"/><path d="m165.824 236.761-67.4042-116.747"/><path d="m104.319 104.894 75.5167 130.799 0.61723 1.06908"/><path d="m111.156 90.4434 4.74879 8.22514 78.8021 136.489 0.92585 1.60362"/><path d="m117.212 74.8113 93.5019 161.95"/><path d="m124.681 58.8635 6.60639 11.4426 94.4057 163.515 1.69739 2.93997"/></g><g stroke-width=".6"><path d="m120.952 52.5387-105.925 183.468"/><path d="m113.433 68.593-96.0122 166.298"/><path d="m106.25 84.0643-86.7724 150.294"/><path d="m97.7 101.904-76.0224 131.675"/><path d="m90.5253 117.362-65.5737 113.577-1.01157 1.75209"/></g></g></g></svg>
